<?xml version="1.0" encoding="UTF-8"?><svg id="Layer_2" xmlns="http://www.w3.org/2000/svg" xmlns:xlink="http://www.w3.org/1999/xlink" viewBox="0 0 29.92 26.38"><defs><style>.cls-1{fill:none;}.cls-2{clip-path:url(#clippath);}.cls-3{fill:#02503a;}.cls-4{fill:#ee3426;}.cls-5{fill:#fff;}</style><clipPath id="clippath"><rect class="cls-1" width="29.92" height="26.38"/></clipPath></defs><g id="Layer_1-2"><g class="cls-2"><g><path class="cls-3" d="m27.36,2.57c-3.42-3.42-8.97-3.42-12.4,0C11.54-.85,5.99-.85,2.56,2.57-.86,5.99-.86,11.54,2.56,14.97l.29.29c7.35-1.37,16.17-2.56,26.48-3.32,1.21-3.15.56-6.84-1.97-9.37Z"/><path class="cls-4" d="m27.36,14.96c.64-.64,1.15-1.35,1.55-2.1-10.08.76-18.41,1.96-25.16,3.29l9.54,9.54c.92.92,2.42.92,3.34,0l10.73-10.73Z"/><path class="cls-5" d="m11.84,15.86s1.38,1.58,3.24,1.58c1.02,0,1.92-.55,1.92-1.58,0-2.28-6.3-2.09-6.3-6.26,0-2.17,1.89-3.77,4.47-3.77,1.57,0,3.98.74,3.98,2.64v1.24h-2.23v-.6c0-.62-.88-1.04-1.77-1.04-1.13,0-1.96.59-1.96,1.43,0,2.28,6.29,1.83,6.29,6.22,0,2.13-1.64,3.94-4.45,3.94-2.96,0-4.6-2.07-4.6-2.07l1.41-1.73Z"/></g></g></g></svg>