<svg width="380" height="390" viewBox="0 0 380 390" fill="none" xmlns="http://www.w3.org/2000/svg">
<circle cx="198" cy="190" r="177" fill="#F3F0EB"/>
<mask id="path-2-outside-1_2844_20752" maskUnits="userSpaceOnUse" x="0.527344" y="0" width="380" height="390" fill="black">
<rect fill="white" x="0.527344" width="380" height="390"/>
<path d="M69.6108 341.748C62.8128 334.95 56.4252 327.28 50.3711 318.737C39.9817 304.064 30.3875 286.415 21.1012 264.789C10.3783 239.906 4.65767 220.384 2.55413 201.478C0.553209 183.623 1.47671 165.384 5.32465 147.273C13.1231 110.23 32.0806 76.6765 58.7083 52.7936C85.5412 28.6543 120.917 11.1846 158.755 3.30921C158.934 3.15529 159.165 3.05268 159.447 3.00137C160.217 2.89876 160.986 2.79615 161.756 2.69354C162.423 2.56527 163.116 2.43701 163.808 2.30875C164.116 2.25744 164.373 2.28309 164.578 2.36005C172.556 1.4622 180.046 1.00045 187.358 1.00045C225.965 0.923489 262.828 10.7742 293.945 29.4495C327.858 49.8179 354.255 80.9092 368.262 117.003C381.319 150.659 382.602 189.37 372.315 238.777C367.595 261.403 361.182 279.95 352.69 295.496C343.532 312.273 330.116 327.998 312.826 342.286C279.118 370.12 237.894 386.615 196.747 388.744C160.371 390.642 123.815 380.945 93.8271 361.449C85.1821 355.831 77.1271 349.29 69.5851 341.722M158.395 3.84792C120.814 11.749 85.6695 29.116 58.9648 53.1015C32.4398 76.933 13.5336 110.41 5.73509 147.35C1.91281 165.435 0.989308 183.623 2.99023 201.426C5.09377 220.281 10.8144 239.778 21.486 264.635C35.1846 296.496 55.8352 336.258 94.0837 361.116C123.995 380.561 160.448 390.232 196.747 388.333C237.765 386.204 278.913 369.735 312.544 341.953C329.782 327.716 343.173 312.016 352.306 295.29C360.771 279.77 367.184 261.275 371.879 238.7C382.166 189.37 380.883 150.736 367.851 117.157C353.87 81.1401 327.551 50.1257 293.74 29.8086C262.674 11.1846 225.888 1.35959 187.358 1.43655C180.2 1.43655 172.889 1.87265 165.117 2.74484C165.245 2.92441 165.347 3.12964 165.399 3.33486C165.501 3.77096 165.399 4.25836 165.142 4.64316C201.313 1.23132 236.816 6.3619 268.19 19.5731C303.463 34.4005 333.476 60.233 352.793 92.3504C363.054 109.435 369.981 127.649 373.418 146.452C376.753 164.769 376.855 185.265 373.777 209.122C370.853 231.876 366.671 250.911 360.976 267.303C353.87 287.902 344.379 304.756 332.014 318.891C305.181 349.521 266.574 372.198 226.119 381.074C189.589 389.103 151.213 385.358 118.069 370.505C102.01 363.322 87.5422 353.779 75.0492 342.184C61.0171 329.178 48.7037 312.375 37.4164 290.801C26.4883 269.945 18.6385 251.398 13.431 234.083C6.94078 212.534 4.34984 192.653 5.50422 173.311C7.60775 137.91 20.7164 103.048 42.3931 75.2143C63.5054 48.0479 96.1102 26.4994 136.616 12.9034C144.158 10.3638 152.521 7.90108 162.115 5.38709C161.32 5.46405 160.55 5.56666 159.755 5.64362C158.909 5.74623 158.395 5.13056 158.318 4.48924C158.293 4.25836 158.319 4.02749 158.395 3.82227M164.603 5.13056C164.603 5.13056 164.347 5.25883 164.193 5.31013C153.778 8.00369 144.799 10.6459 136.744 13.3395C96.3155 26.8842 63.7876 48.407 42.6496 75.5477C21.0499 103.304 7.99255 138.064 5.88901 173.388C3.19546 218.819 22.7943 262.07 37.7756 290.647C49.0628 312.17 61.3506 328.921 75.3314 341.902C87.7987 353.471 102.216 362.963 118.249 370.146C151.315 384.947 189.589 388.693 226.042 380.689C266.42 371.813 304.95 349.187 331.706 318.635C360.309 285.978 368.98 242.933 373.367 209.097C376.445 185.291 376.317 164.82 373.008 146.555C369.596 127.803 362.695 109.64 352.46 92.6069C333.22 60.5921 303.232 34.7853 268.062 20.0092C236.56 6.7467 200.902 1.64177 164.629 5.13056M158.985 3.71965C158.806 3.92488 158.755 4.18141 158.78 4.43794C158.832 4.87403 159.139 5.28448 159.729 5.20752C161.32 5.02795 162.885 4.84838 164.475 4.69446C164.911 4.41228 165.065 3.87357 164.963 3.41182C164.937 3.28355 164.834 2.95007 164.527 2.79615C163.629 2.89876 162.731 3.00137 161.833 3.10398C160.884 3.28355 159.935 3.48878 158.96 3.66835"/>
</mask>
<path d="M50.3711 318.737L49.7998 319.142L49.8 319.142L50.3711 318.737ZM21.1012 264.789L21.7444 264.513L21.744 264.512L21.1012 264.789ZM2.55413 201.478L3.24984 201.4L3.24978 201.4L2.55413 201.478ZM5.32465 147.273L6.00936 147.419L6.00963 147.417L5.32465 147.273ZM58.7083 52.7936L59.1757 53.3147L59.1765 53.314L58.7083 52.7936ZM158.755 3.30921L158.897 3.99452L159.073 3.95784L159.21 3.84069L158.755 3.30921ZM159.447 3.00137L159.355 2.30751L159.338 2.3097L159.322 2.31266L159.447 3.00137ZM161.756 2.69354L161.848 3.3874L161.868 3.38474L161.888 3.38094L161.756 2.69354ZM163.808 2.30875L163.693 1.61816L163.681 1.62045L163.808 2.30875ZM164.578 2.36005L164.332 3.01548L164.489 3.07444L164.656 3.05566L164.578 2.36005ZM187.358 1.00045L187.358 1.70045L187.359 1.70045L187.358 1.00045ZM293.945 29.4495L294.306 28.8494L294.306 28.8493L293.945 29.4495ZM368.262 117.003L368.914 116.75L368.914 116.75L368.262 117.003ZM372.315 238.777L373 238.92L373 238.92L372.315 238.777ZM352.69 295.496L352.076 295.16L352.076 295.16L352.69 295.496ZM312.826 342.286L313.272 342.826L313.272 342.826L312.826 342.286ZM196.747 388.744L196.71 388.045L196.71 388.045L196.747 388.744ZM93.8271 361.449L94.2087 360.862L94.2086 360.862L93.8271 361.449ZM58.9648 53.1015L58.4971 52.5807L58.497 52.5808L58.9648 53.1015ZM5.73509 147.35L6.41996 147.495L6.42 147.495L5.73509 147.35ZM2.99023 201.426L3.68592 201.349L3.68585 201.348L2.99023 201.426ZM21.486 264.635L20.8427 264.911L20.8429 264.912L21.486 264.635ZM94.0837 361.116L94.4652 360.529L94.4651 360.529L94.0837 361.116ZM196.747 388.333L196.71 387.634L196.71 387.634L196.747 388.333ZM312.544 341.953L312.098 341.413L312.098 341.413L312.544 341.953ZM352.306 295.29L352.92 295.626L352.92 295.626L352.306 295.29ZM371.879 238.7L371.194 238.557L371.193 238.558L371.879 238.7ZM367.851 117.157L368.504 116.903L368.504 116.903L367.851 117.157ZM293.74 29.8086L294.101 29.2086L294.1 29.2083L293.74 29.8086ZM187.358 1.43655L187.358 2.13655L187.359 2.13655L187.358 1.43655ZM165.117 2.74484L165.038 2.04921L163.854 2.18208L164.547 3.15171L165.117 2.74484ZM165.399 3.33486L166.08 3.17452L166.078 3.16509L165.399 3.33486ZM165.142 4.64316L164.56 4.25487L163.744 5.47813L165.208 5.34006L165.142 4.64316ZM268.19 19.5731L267.918 20.2183L267.919 20.2184L268.19 19.5731ZM352.793 92.3504L353.393 91.99L353.393 91.9896L352.793 92.3504ZM373.418 146.452L374.107 146.327L374.107 146.326L373.418 146.452ZM373.777 209.122L373.083 209.033L373.083 209.033L373.777 209.122ZM360.976 267.303L360.315 267.073L360.315 267.075L360.976 267.303ZM332.014 318.891L332.541 319.352L332.541 319.352L332.014 318.891ZM226.119 381.074L225.969 380.39L225.969 380.39L226.119 381.074ZM118.069 370.505L118.355 369.866L118.355 369.866L118.069 370.505ZM75.0492 342.184L75.5254 341.671L75.5251 341.671L75.0492 342.184ZM37.4164 290.801L38.0367 290.477L38.0365 290.476L37.4164 290.801ZM13.431 234.083L14.1013 233.881L14.1012 233.881L13.431 234.083ZM5.50422 173.311L6.20297 173.353L6.20298 173.352L5.50422 173.311ZM42.3931 75.2143L42.9454 75.6444L42.9458 75.6438L42.3931 75.2143ZM136.616 12.9034L136.839 13.567L136.84 13.5668L136.616 12.9034ZM162.115 5.38709L162.293 6.06423L162.048 4.69035L162.115 5.38709ZM159.755 5.64362L159.688 4.94688L159.679 4.94769L159.671 4.94871L159.755 5.64362ZM158.318 4.48924L157.623 4.56655L157.623 4.57264L158.318 4.48924ZM164.193 5.31013L164.368 5.98784L164.392 5.98182L164.414 5.97421L164.193 5.31013ZM136.744 13.3395L136.522 12.6756L136.522 12.6757L136.744 13.3395ZM42.6496 75.5477L42.0973 75.1176L42.0972 75.1178L42.6496 75.5477ZM5.88901 173.388L5.19025 173.346L5.19024 173.346L5.88901 173.388ZM37.7756 290.647L37.1556 290.972L37.1556 290.972L37.7756 290.647ZM75.3314 341.902L74.8551 342.415L74.8552 342.415L75.3314 341.902ZM118.249 370.146L117.962 370.784L117.963 370.784L118.249 370.146ZM226.042 380.689L226.192 381.373L226.192 381.373L226.042 380.689ZM331.706 318.635L331.18 318.173L331.18 318.173L331.706 318.635ZM373.367 209.097L374.061 209.187L374.061 209.186L373.367 209.097ZM373.008 146.555L373.696 146.43L373.696 146.43L373.008 146.555ZM352.46 92.6069L353.06 92.2464L353.06 92.2464L352.46 92.6069ZM268.062 20.0092L267.79 20.6544L267.79 20.6546L268.062 20.0092ZM158.78 4.43794L158.084 4.5076L158.085 4.51972L158.78 4.43794ZM159.729 5.20752L159.651 4.51184L159.639 4.5134L159.729 5.20752ZM164.475 4.69446L164.543 5.39121L164.712 5.37479L164.855 5.28216L164.475 4.69446ZM164.963 3.41182L164.276 3.5491L164.278 3.5564L164.279 3.56367L164.963 3.41182ZM164.527 2.79615L164.84 2.17005L164.654 2.07707L164.447 2.10068L164.527 2.79615ZM161.833 3.10398L161.753 2.40851L161.728 2.41142L161.703 2.41619L161.833 3.10398ZM70.1058 341.253C63.3389 334.486 56.9764 326.847 50.9422 318.332L49.8 319.142C55.8741 327.713 62.2867 335.414 69.1158 342.243L70.1058 341.253ZM50.9424 318.333C40.5883 303.709 31.0167 286.106 21.7444 264.513L20.458 265.065C29.7584 286.723 39.3751 304.418 49.7998 319.142L50.9424 318.333ZM21.744 264.512C11.0379 239.668 5.34324 220.215 3.24984 201.4L1.85843 201.555C3.97211 220.553 9.71865 240.144 20.4583 265.066L21.744 264.512ZM3.24978 201.4C1.25743 183.622 2.17662 165.458 6.00936 147.419L4.63993 147.128C0.776809 165.31 -0.151012 183.625 1.85849 201.556L3.24978 201.4ZM6.00963 147.417C13.7794 110.511 32.6654 77.0923 59.1757 53.3147L58.2409 52.2725C31.4958 76.2607 12.4669 109.95 4.63966 147.129L6.00963 147.417ZM59.1765 53.314C85.9105 29.2636 121.171 11.8467 158.897 3.99452L158.612 2.62389C120.662 10.5226 85.172 28.0449 58.2402 52.2732L59.1765 53.314ZM159.21 3.84069C159.277 3.78312 159.386 3.7239 159.572 3.69008L159.322 2.31266C158.944 2.38145 158.591 2.52746 158.299 2.77773L159.21 3.84069ZM159.54 3.69523C159.925 3.64393 160.309 3.59262 160.694 3.54132C161.079 3.49001 161.464 3.4387 161.848 3.3874L161.663 1.99968C161.279 2.05098 160.894 2.10229 160.509 2.1536C160.124 2.2049 159.74 2.25621 159.355 2.30751L159.54 3.69523ZM161.888 3.38094C162.552 3.25321 163.243 3.12539 163.936 2.99704L163.681 1.62045C162.989 1.74863 162.294 1.87734 161.624 2.00613L161.888 3.38094ZM163.923 2.99922C164.132 2.9645 164.261 2.98884 164.332 3.01548L164.824 1.70462C164.484 1.57735 164.1 1.55038 163.693 1.61827L163.923 2.99922ZM164.656 3.05566C172.612 2.16029 180.076 1.70045 187.358 1.70045V0.300448C180.017 0.300448 172.5 0.764106 164.5 1.66444L164.656 3.05566ZM187.359 1.70045C225.847 1.62372 262.584 11.4441 293.585 30.0497L294.306 28.8493C263.073 10.1043 226.083 0.223253 187.356 0.300449L187.359 1.70045ZM293.585 30.0496C327.368 50.3399 353.66 81.3107 367.609 117.256L368.914 116.75C354.85 80.5077 328.349 49.2959 294.306 28.8494L293.585 30.0496ZM367.609 117.256C380.602 150.746 381.899 189.309 371.63 238.634L373 238.92C383.304 189.431 382.036 150.573 368.914 116.75L367.609 117.256ZM371.63 238.634C366.92 261.212 360.526 279.69 352.076 295.16L353.305 295.831C361.837 280.21 368.27 261.594 373 238.92L371.63 238.634ZM352.076 295.16C342.968 311.846 329.613 327.505 312.38 341.747L313.272 342.826C330.618 328.491 344.097 312.699 353.305 295.831L352.076 295.16ZM312.38 341.747C278.781 369.491 237.698 385.924 196.71 388.045L196.783 389.443C238.089 387.306 279.455 370.749 313.272 342.826L312.38 341.747ZM196.71 388.045C160.479 389.936 124.071 380.276 94.2087 360.862L93.4456 362.036C123.56 381.614 160.262 391.349 196.783 389.443L196.71 388.045ZM94.2086 360.862C85.6057 355.272 77.5889 348.762 70.081 341.228L69.0893 342.216C76.6653 349.818 84.7585 356.391 93.4457 362.036L94.2086 360.862ZM158.251 3.16289C120.559 11.0873 85.3003 28.5067 58.4971 52.5807L59.4326 53.6222C86.0387 29.7253 121.069 12.4107 158.539 4.53294L158.251 3.16289ZM58.497 52.5808C31.8548 76.5175 12.8774 110.129 5.05019 147.206L6.42 147.495C14.1897 110.691 33.0247 77.3485 59.4327 53.6222L58.497 52.5808ZM5.05022 147.205C1.21296 165.362 0.285059 183.625 2.29461 201.505L3.68585 201.348C1.69356 183.622 2.61267 165.509 6.41996 147.495L5.05022 147.205ZM2.29455 201.504C4.40824 220.45 10.1547 240.016 20.8427 264.911L22.1292 264.359C11.474 239.54 5.7793 220.113 3.68592 201.349L2.29455 201.504ZM20.8429 264.912C34.5513 296.795 55.2696 336.725 93.7022 361.703L94.4651 360.529C56.4008 335.791 35.8179 296.197 22.129 264.359L20.8429 264.912ZM93.7021 361.703C123.74 381.23 160.339 390.938 196.783 389.033L196.71 387.634C160.556 389.525 124.25 379.892 94.4652 360.529L93.7021 361.703ZM196.783 389.033C237.961 386.895 279.25 370.364 312.989 342.493L312.098 341.413C278.575 369.106 237.57 385.514 196.71 387.634L196.783 389.033ZM312.989 342.493C330.285 328.209 343.738 312.442 352.92 295.626L351.691 294.955C342.608 311.59 329.28 327.223 312.098 341.413L312.989 342.493ZM352.92 295.626C361.427 280.031 367.86 261.466 372.564 238.843L371.193 238.558C366.509 261.084 360.116 279.51 351.691 294.955L352.92 295.626ZM372.564 238.843C382.868 189.431 381.6 150.65 368.504 116.903L367.199 117.41C380.166 150.823 381.463 189.308 371.194 238.557L372.564 238.843ZM368.504 116.903C354.466 80.7387 328.041 49.6039 294.101 29.2086L293.38 30.4086C327.06 50.6476 353.275 81.5415 367.199 117.41L368.504 116.903ZM294.1 29.2083C262.918 10.5148 226.006 0.659352 187.356 0.736548L187.359 2.13655C225.771 2.05982 262.43 11.8545 293.38 30.409L294.1 29.2083ZM187.358 0.736547C180.172 0.736547 172.834 1.17443 165.038 2.04921L165.195 3.44048C172.944 2.57086 180.229 2.13655 187.358 2.13655V0.736547ZM164.547 3.15171C164.635 3.27443 164.694 3.40046 164.72 3.50464L166.078 3.16509C166.001 2.85882 165.855 2.57439 165.686 2.33798L164.547 3.15171ZM164.717 3.49519C164.771 3.72425 164.72 4.01497 164.56 4.25487L165.725 5.03145C166.078 4.50176 166.231 3.81767 166.08 3.17453L164.717 3.49519ZM165.208 5.34006C201.272 1.9383 236.659 7.05498 267.918 20.2183L268.461 18.928C236.974 5.66882 201.354 0.524346 165.076 3.94625L165.208 5.34006ZM267.919 20.2184C303.057 34.9895 332.955 60.7237 352.193 92.7112L353.393 91.9896C333.998 59.7422 303.868 33.8116 268.461 18.9278L267.919 20.2184ZM352.193 92.7108C362.412 109.726 369.308 127.86 372.729 146.578L374.107 146.326C370.653 127.437 363.696 109.144 353.393 91.99L352.193 92.7108ZM372.729 146.578C376.048 164.805 376.155 185.227 373.083 209.033L374.471 209.212C377.556 185.304 377.458 164.732 374.107 146.327L372.729 146.578ZM373.083 209.033C370.163 231.754 365.99 250.739 360.315 267.073L361.638 267.533C367.353 251.083 371.543 231.999 374.471 209.212L373.083 209.033ZM360.315 267.075C353.234 287.601 343.784 304.373 331.487 318.43L332.541 319.352C344.974 305.14 354.507 288.204 361.638 267.531L360.315 267.075ZM331.488 318.43C304.755 348.945 266.28 371.546 225.969 380.39L226.269 381.757C266.867 372.85 305.608 350.096 332.541 319.352L331.488 318.43ZM225.969 380.39C189.581 388.388 151.358 384.656 118.355 369.866L117.783 371.143C151.068 386.06 189.598 389.818 226.269 381.757L225.969 380.39ZM118.355 369.866C102.364 362.713 87.9609 353.213 75.5254 341.671L74.573 342.697C87.1235 354.345 101.656 363.93 117.783 371.144L118.355 369.866ZM75.5251 341.671C61.5648 328.731 49.2964 311.998 38.0367 290.477L36.7962 291.126C48.1109 312.752 60.4693 329.625 74.5734 342.697L75.5251 341.671ZM38.0365 290.476C27.123 269.649 19.2928 251.143 14.1013 233.881L12.7606 234.284C17.9842 251.653 25.8535 270.242 36.7964 291.126L38.0365 290.476ZM14.1012 233.881C7.63105 212.399 5.05422 192.601 6.20297 173.353L4.80546 173.269C3.64545 192.706 6.25051 212.67 12.7607 234.285L14.1012 233.881ZM6.20298 173.352C8.29817 138.092 21.3562 103.365 42.9454 75.6444L41.8408 74.7842C20.0766 102.73 6.91734 137.728 4.80545 173.269L6.20298 173.352ZM42.9458 75.6438C63.955 48.6101 96.4317 27.1299 136.839 13.567L136.393 12.2398C95.7888 25.8689 63.0558 47.4856 41.8404 74.7847L42.9458 75.6438ZM136.84 13.5668C144.363 11.0334 152.71 8.57515 162.293 6.06423L161.938 4.70995C152.332 7.227 143.953 9.69414 136.393 12.24L136.84 13.5668ZM162.048 4.69035C161.643 4.72952 161.246 4.77514 160.855 4.81992C160.463 4.86492 160.078 4.90909 159.688 4.94688L159.822 6.34037C160.227 6.30119 160.625 6.25557 161.015 6.21079C161.407 6.16579 161.792 6.12162 162.183 6.08384L162.048 4.69035ZM159.671 4.94871C159.448 4.97575 159.311 4.91066 159.219 4.82714C159.113 4.73111 159.034 4.57788 159.014 4.40584L157.623 4.57264C157.68 5.04192 157.896 5.51719 158.278 5.86367C158.673 6.22266 159.216 6.4141 159.839 6.33853L159.671 4.94871ZM159.014 4.41194C159 4.28044 159.016 4.16123 159.051 4.06805L157.74 3.57648C157.621 3.89375 157.586 4.23629 157.623 4.56654L159.014 4.41194ZM164.603 5.13056C164.29 4.50446 164.29 4.50445 164.29 4.50444C164.29 4.50444 164.29 4.50443 164.29 4.50442C164.291 4.50441 164.291 4.5044 164.291 4.50439C164.291 4.50437 164.291 4.50436 164.291 4.50436C164.291 4.50435 164.291 4.50438 164.29 4.50443C164.29 4.50454 164.29 4.50477 164.289 4.5051C164.288 4.50577 164.286 4.50687 164.283 4.50837C164.276 4.51135 164.267 4.51587 164.256 4.52154C164.232 4.53293 164.199 4.54859 164.163 4.56554C164.081 4.60322 164.009 4.63368 163.972 4.64605L164.414 5.97421C164.531 5.93528 164.664 5.87596 164.749 5.83668C164.796 5.81515 164.837 5.79553 164.866 5.78128C164.881 5.77411 164.893 5.76821 164.902 5.76398C164.906 5.76187 164.909 5.76017 164.912 5.75893C164.913 5.75831 164.914 5.75781 164.915 5.75743C164.915 5.75724 164.916 5.75708 164.916 5.75695C164.916 5.75689 164.916 5.75683 164.916 5.75678C164.916 5.75676 164.916 5.75674 164.916 5.75672C164.916 5.75671 164.916 5.75669 164.916 5.75669C164.916 5.75667 164.917 5.75666 164.603 5.13056ZM164.018 4.63243C153.59 7.32934 144.595 9.97609 136.522 12.6756L136.966 14.0034C145.004 11.3158 153.966 8.67803 164.368 5.98784L164.018 4.63243ZM136.522 12.6757C95.9936 26.2538 63.338 47.845 42.0973 75.1176L43.2019 75.9779C64.2371 48.969 96.6373 27.5146 136.967 14.0032L136.522 12.6757ZM42.0972 75.1178C20.4099 102.987 7.30214 137.882 5.19025 173.346L6.58777 173.429C8.68296 138.246 21.6898 103.622 43.202 75.9776L42.0972 75.1178ZM5.19024 173.346C2.48451 218.983 22.1673 262.382 37.1556 290.972L38.3955 290.322C23.4212 261.758 3.9064 218.655 6.58778 173.429L5.19024 173.346ZM37.1556 290.972C48.4703 312.547 60.8029 329.368 74.8551 342.415L75.8077 341.389C61.8983 328.475 49.6553 311.793 38.3955 290.322L37.1556 290.972ZM74.8552 342.415C87.3803 354.038 101.862 363.571 117.962 370.784L118.535 369.507C102.569 362.354 88.2171 352.904 75.8075 341.389L74.8552 342.415ZM117.963 370.784C151.17 385.649 189.598 389.407 226.192 381.373L225.892 380.005C189.581 387.978 151.46 384.245 118.535 369.507L117.963 370.784ZM226.192 381.373C266.713 372.465 305.377 349.763 332.233 319.096L331.18 318.173C304.524 348.611 266.126 371.161 225.892 380.005L226.192 381.373ZM332.233 319.096C360.983 286.271 369.672 243.041 374.061 209.187L372.672 209.007C368.288 242.825 359.635 285.685 331.18 318.173L332.233 319.096ZM374.061 209.186C377.146 185.329 377.021 164.783 373.696 146.43L372.319 146.68C375.612 164.857 375.744 185.253 372.672 209.007L374.061 209.186ZM373.696 146.43C370.269 127.591 363.337 109.35 353.06 92.2464L351.86 92.9675C362.053 109.931 368.923 128.014 372.319 146.68L373.696 146.43ZM353.06 92.2464C333.742 60.1014 303.637 34.1963 268.333 19.3639L267.79 20.6546C302.826 35.3743 332.698 61.0829 351.86 92.9675L353.06 92.2464ZM268.333 19.3641C236.717 6.05339 200.942 0.934691 164.562 4.43378L164.696 5.82735C200.862 2.34885 236.403 7.44 267.79 20.6544L268.333 19.3641ZM158.459 3.2587C158.119 3.64727 158.044 4.11438 158.084 4.50759L159.477 4.36828C159.471 4.30775 159.476 4.26508 159.483 4.23771C159.489 4.21323 159.498 4.19637 159.512 4.18061L158.459 3.2587ZM158.085 4.51972C158.126 4.86389 158.271 5.24151 158.574 5.52548C158.895 5.8269 159.333 5.96518 159.82 5.90164L159.639 4.5134C159.579 4.52115 159.551 4.51386 159.544 4.51171C159.538 4.50977 159.535 4.50809 159.532 4.50477C159.52 4.49373 159.486 4.44808 159.475 4.35615L158.085 4.51972ZM159.808 5.9031C161.401 5.72328 162.959 5.54446 164.543 5.39121L164.408 3.99772C162.81 4.1523 161.239 4.33262 159.651 4.51194L159.808 5.9031ZM164.855 5.28216C165.584 4.81107 165.799 3.94946 165.646 3.25997L164.279 3.56367C164.331 3.79768 164.239 4.0135 164.095 4.10676L164.855 5.28216ZM165.649 3.27454C165.612 3.09188 165.449 2.47481 164.84 2.17005L164.213 3.42225C164.213 3.42226 164.214 3.42231 164.214 3.42268C164.215 3.42311 164.216 3.42433 164.219 3.42683C164.224 3.43221 164.232 3.4424 164.242 3.45912C164.251 3.47588 164.259 3.49486 164.266 3.51371C164.273 3.53268 164.276 3.54623 164.276 3.5491L165.649 3.27454ZM164.447 2.10068C163.998 2.15198 163.549 2.20329 163.1 2.25459C162.651 2.3059 162.202 2.35721 161.753 2.40851L161.912 3.79946C162.361 3.74815 162.81 3.69685 163.259 3.64554C163.708 3.59423 164.157 3.54293 164.606 3.49162L164.447 2.10068ZM161.703 2.41619C160.704 2.60518 159.832 2.79595 158.833 2.97993L159.087 4.35677C160.038 4.1816 161.064 3.96193 161.963 3.79178L161.703 2.41619Z" fill="#F3F0EB" mask="url(#path-2-outside-1_2844_20752)"/>
</svg>
