<svg width="384" height="394" viewBox="0 0 384 394" fill="none" xmlns="http://www.w3.org/2000/svg">
<circle cx="197" cy="190" r="177" fill="#F3F0EB"/>
<mask id="path-2-outside-1_2844_20751" maskUnits="userSpaceOnUse" x="0" y="0" width="384" height="394" fill="black">
<rect fill="white" width="384" height="394"/>
<path d="M69.7853 345.261C62.9172 338.393 56.4638 330.643 50.3473 322.013C39.8508 307.188 30.1577 289.357 20.7756 267.509C9.94217 242.369 4.1626 222.646 2.03738 203.545C0.0158225 185.506 0.948847 167.079 4.83645 148.781C12.7153 111.357 31.8683 77.4567 58.7705 53.3276C85.88 28.9394 121.62 11.2896 159.848 3.33301C160.03 3.17751 160.263 3.07384 160.548 3.02201C161.325 2.91834 162.103 2.81467 162.88 2.711C163.554 2.58141 164.254 2.45182 164.954 2.32224C165.265 2.2704 165.524 2.29632 165.731 2.37407C173.792 1.46696 181.36 1.00045 188.746 1.00045C227.752 0.9227 264.995 10.875 296.433 29.7428C330.695 50.3212 357.364 81.733 371.515 118.199C384.707 152.202 386.003 191.312 375.61 241.228C370.841 264.088 364.362 282.826 355.783 298.532C346.531 315.482 332.976 331.369 315.508 345.805C281.452 373.925 239.803 390.59 198.232 392.741C161.481 394.659 124.549 384.862 94.2513 365.165C85.5172 359.489 77.3791 352.88 69.7594 345.235M159.485 3.87728C121.516 11.8598 86.0096 29.4059 59.0296 53.6386C32.2311 77.7158 13.13 111.538 5.25113 148.859C1.38944 167.131 0.456418 185.506 2.47797 203.493C4.60319 222.542 10.3828 242.239 21.1644 267.353C35.0043 299.542 55.8677 339.714 94.5105 364.828C124.73 384.474 161.559 394.244 198.232 392.327C239.674 390.175 281.245 373.537 315.223 345.468C332.639 331.084 346.168 315.222 355.395 298.324C363.947 282.644 370.427 263.958 375.17 241.151C385.562 191.312 384.267 152.28 371.101 118.354C356.976 81.9663 330.384 50.6322 296.225 30.1056C264.839 11.2896 227.674 1.3633 188.746 1.44105C181.515 1.44105 174.129 1.88164 166.276 2.76283C166.405 2.94425 166.509 3.15159 166.561 3.35893C166.664 3.79953 166.561 4.29196 166.302 4.68072C202.845 1.23371 238.715 6.41718 270.412 19.7646C306.048 34.7448 336.371 60.8436 355.887 93.2922C366.254 110.553 373.252 128.954 376.725 147.952C380.094 166.457 380.198 187.165 377.087 211.268C374.133 234.257 369.908 253.487 364.155 270.049C356.976 290.86 347.386 307.888 334.894 322.168C307.784 353.114 268.779 376.025 227.907 384.992C191.001 393.104 152.228 389.32 118.743 374.314C102.519 367.057 87.9016 357.416 75.2798 345.701C61.103 332.561 48.6627 315.585 37.2591 293.789C26.2183 272.718 18.2876 253.98 13.0263 236.486C6.46924 214.715 3.85159 194.629 5.01787 175.087C7.1431 139.321 20.3869 104.1 42.287 75.9794C63.617 48.5329 96.558 26.7623 137.481 13.0261C145.101 10.4603 153.55 7.97222 163.243 5.43232C162.44 5.51007 161.662 5.61374 160.859 5.69149C160.004 5.79516 159.485 5.17315 159.408 4.52521C159.382 4.29196 159.408 4.0587 159.485 3.85136M165.757 5.17315C165.757 5.17315 165.498 5.30273 165.343 5.35457C154.82 8.07589 145.749 10.7454 137.611 13.4667C96.7653 27.1511 63.9021 48.8957 42.5462 76.3163C20.7238 104.359 7.53186 139.477 5.40663 175.165C2.68531 221.065 22.4862 264.761 37.6219 293.633C49.0255 315.378 61.44 332.302 75.5649 345.416C88.1608 357.105 102.726 366.694 118.925 373.951C152.332 388.905 191.001 392.689 227.829 384.603C268.623 375.636 307.551 352.777 334.583 321.909C363.481 288.916 372.241 245.427 376.673 211.242C379.783 187.191 379.653 166.509 376.31 148.056C372.863 129.11 365.891 110.76 355.55 93.5513C336.112 61.2065 305.815 35.1336 270.282 20.2052C238.455 6.80594 202.43 1.64839 165.783 5.17315M160.081 3.74769C159.9 3.95503 159.848 4.2142 159.874 4.47338C159.926 4.91397 160.237 5.32865 160.833 5.2509C162.44 5.06948 164.021 4.88806 165.628 4.73255C166.068 4.44746 166.224 3.9032 166.12 3.43668C166.094 3.3071 165.991 2.97017 165.68 2.81467C164.772 2.91834 163.865 3.02201 162.958 3.12568C161.999 3.3071 161.04 3.51444 160.055 3.69586"/>
</mask>
<path d="M50.3473 322.013L49.776 322.417L49.7762 322.418L50.3473 322.013ZM20.7756 267.509L21.4188 267.232L21.4185 267.232L20.7756 267.509ZM2.03738 203.545L2.73308 203.467L2.73302 203.467L2.03738 203.545ZM4.83645 148.781L5.52117 148.927L5.52144 148.925L4.83645 148.781ZM58.7705 53.3276L59.2379 53.8487L59.2386 53.848L58.7705 53.3276ZM159.848 3.33301L159.991 4.01833L160.167 3.98165L160.304 3.86449L159.848 3.33301ZM160.548 3.02201L160.455 2.32815L160.439 2.33033L160.423 2.3333L160.548 3.02201ZM162.88 2.711L162.973 3.40486L162.993 3.4022L163.013 3.3984L162.88 2.711ZM164.954 2.32224L164.839 1.63165L164.826 1.63394L164.954 2.32224ZM165.731 2.37407L165.486 3.0295L165.643 3.08846L165.81 3.06968L165.731 2.37407ZM188.746 1.00045L188.746 1.70045L188.747 1.70045L188.746 1.00045ZM296.433 29.7428L296.793 29.1427L296.793 29.1426L296.433 29.7428ZM371.515 118.199L372.168 117.946L372.168 117.945L371.515 118.199ZM375.61 241.228L376.295 241.371L376.295 241.371L375.61 241.228ZM355.783 298.532L355.169 298.196L355.169 298.196L355.783 298.532ZM315.508 345.805L315.953 346.345L315.954 346.345L315.508 345.805ZM198.232 392.741L198.196 392.042L198.195 392.042L198.232 392.741ZM94.2513 365.165L94.6329 364.578L94.6328 364.578L94.2513 365.165ZM59.0296 53.6386L58.5619 53.1178L58.5618 53.1179L59.0296 53.6386ZM5.25113 148.859L5.936 149.004L5.93603 149.004L5.25113 148.859ZM2.47797 203.493L3.17366 203.415L3.17359 203.415L2.47797 203.493ZM21.1644 267.353L20.5212 267.629L20.5213 267.63L21.1644 267.353ZM94.5105 364.828L94.892 364.241L94.892 364.241L94.5105 364.828ZM198.232 392.327L198.195 391.628L198.195 391.628L198.232 392.327ZM315.223 345.468L314.777 344.928L314.777 344.928L315.223 345.468ZM355.395 298.324L356.009 298.66L356.009 298.66L355.395 298.324ZM375.17 241.151L374.484 241.008L374.484 241.008L375.17 241.151ZM371.101 118.354L371.753 118.101L371.753 118.101L371.101 118.354ZM296.225 30.1056L296.586 29.5056L296.585 29.5053L296.225 30.1056ZM188.746 1.44105L188.746 2.14105L188.747 2.14105L188.746 1.44105ZM166.276 2.76283L166.198 2.0672L165.013 2.20007L165.706 3.1697L166.276 2.76283ZM166.561 3.35893L167.242 3.19859L167.24 3.18916L166.561 3.35893ZM166.302 4.68072L165.719 4.29243L164.904 5.51569L166.367 5.37762L166.302 4.68072ZM270.412 19.7646L270.14 20.4098L270.14 20.4099L270.412 19.7646ZM355.887 93.2922L356.487 92.9317L356.487 92.9314L355.887 93.2922ZM376.725 147.952L377.413 147.826L377.413 147.826L376.725 147.952ZM377.087 211.268L376.393 211.178L376.393 211.179L377.087 211.268ZM364.155 270.049L363.493 269.819L363.493 269.82L364.155 270.049ZM334.894 322.168L335.421 322.63L335.421 322.629L334.894 322.168ZM227.907 384.992L227.757 384.308L227.757 384.308L227.907 384.992ZM118.743 374.314L119.029 373.675L119.029 373.675L118.743 374.314ZM75.2798 345.701L75.756 345.188L75.7557 345.188L75.2798 345.701ZM37.2591 293.789L37.8793 293.464L37.8791 293.464L37.2591 293.789ZM13.0263 236.486L13.6967 236.284L13.6966 236.284L13.0263 236.486ZM5.01787 175.087L5.71663 175.129L5.71664 175.129L5.01787 175.087ZM42.287 75.9794L42.8393 76.4095L42.8397 76.4089L42.287 75.9794ZM137.481 13.0261L137.704 13.6897L137.705 13.6895L137.481 13.0261ZM163.243 5.43232L163.421 6.10946L163.176 4.73557L163.243 5.43232ZM160.859 5.69149L160.792 4.99475L160.783 4.99556L160.775 4.99658L160.859 5.69149ZM159.408 4.52521L158.712 4.60252L158.713 4.60861L159.408 4.52521ZM165.343 5.35457L165.518 6.03227L165.541 6.02625L165.564 6.01865L165.343 5.35457ZM137.611 13.4667L137.389 12.8028L137.389 12.803L137.611 13.4667ZM42.5462 76.3163L41.9939 75.8862L41.9938 75.8864L42.5462 76.3163ZM5.40663 175.165L4.70787 175.123L4.70786 175.124L5.40663 175.165ZM37.6219 293.633L37.0019 293.958L37.002 293.958L37.6219 293.633ZM75.5649 345.416L75.0886 345.929L75.0888 345.929L75.5649 345.416ZM118.925 373.951L118.638 374.59L118.639 374.59L118.925 373.951ZM227.829 384.603L227.979 385.287L227.98 385.287L227.829 384.603ZM334.583 321.909L334.056 321.448L334.056 321.448L334.583 321.909ZM376.673 211.242L377.367 211.332L377.367 211.332L376.673 211.242ZM376.31 148.056L376.999 147.931L376.999 147.93L376.31 148.056ZM355.55 93.5513L356.15 93.1908L356.15 93.1908L355.55 93.5513ZM270.282 20.2052L270.01 20.8504L270.011 20.8506L270.282 20.2052ZM159.874 4.47338L159.177 4.54304L159.179 4.55517L159.874 4.47338ZM160.833 5.2509L160.754 4.55521L160.742 4.55678L160.833 5.2509ZM165.628 4.73255L165.695 5.4293L165.865 5.41287L166.008 5.32025L165.628 4.73255ZM166.12 3.43668L165.434 3.57396L165.435 3.58127L165.437 3.58853L166.12 3.43668ZM165.68 2.81467L165.993 2.18857L165.807 2.09559L165.6 2.11919L165.68 2.81467ZM162.958 3.12568L162.879 2.4302L162.853 2.43311L162.828 2.43788L162.958 3.12568ZM70.2803 344.766C63.4434 337.929 57.015 330.21 50.9184 321.608L49.7762 322.418C55.9127 331.076 62.3911 338.856 69.2904 345.756L70.2803 344.766ZM50.9186 321.608C40.4574 306.833 30.7869 289.048 21.4188 267.232L20.1324 267.785C29.5286 289.666 39.2442 307.543 49.776 322.417L50.9186 321.608ZM21.4185 267.232C10.6018 242.131 4.84816 222.477 2.73308 203.467L1.34167 203.622C3.47703 222.814 9.28255 242.607 20.1328 267.786L21.4185 267.232ZM2.73302 203.467C0.720043 185.505 1.64875 167.153 5.52117 148.927L4.15173 148.636C0.248944 167.005 -0.688398 185.508 1.34173 203.623L2.73302 203.467ZM5.52144 148.925C13.3716 111.637 32.4531 77.8724 59.2379 53.8487L58.3031 52.8065C31.2834 77.0409 12.0591 111.076 4.15147 148.637L5.52144 148.925ZM59.2386 53.848C86.2493 29.5487 121.874 11.9517 159.991 4.01833L159.706 2.6477C121.366 10.6276 85.5108 28.33 58.3023 52.8072L59.2386 53.848ZM160.304 3.86449C160.373 3.80534 160.484 3.74506 160.673 3.71071L160.423 2.3333C160.041 2.40262 159.686 2.54968 159.393 2.80153L160.304 3.86449ZM160.64 3.71587C161.029 3.66403 161.418 3.6122 161.807 3.56036C162.195 3.50853 162.584 3.45669 162.973 3.40486L162.788 2.01714C162.399 2.06897 162.01 2.12081 161.622 2.17264C161.233 2.22448 160.844 2.27631 160.455 2.32815L160.64 3.71587ZM163.013 3.3984C163.684 3.26935 164.381 3.14021 165.081 3.01053L164.826 1.63394C164.127 1.76344 163.425 1.89347 162.748 2.02359L163.013 3.3984ZM165.069 3.01271C165.28 2.97746 165.412 3.00206 165.486 3.0295L165.977 1.71864C165.636 1.59058 165.249 1.56334 164.839 1.63176L165.069 3.01271ZM165.81 3.06968C173.848 2.16506 181.389 1.70045 188.746 1.70045V0.300452C181.33 0.300452 173.735 0.768871 165.653 1.67846L165.81 3.06968ZM188.747 1.70045C227.634 1.62294 264.751 11.5448 296.072 30.343L296.793 29.1426C265.239 10.2051 227.869 0.222464 188.745 0.300454L188.747 1.70045ZM296.072 30.3429C330.205 50.8432 356.769 82.1346 370.863 118.452L372.168 117.945C357.959 81.3315 331.186 49.7992 296.793 29.1427L296.072 30.3429ZM370.863 118.452C383.99 152.289 385.301 191.251 374.925 241.086L376.295 241.371C386.705 191.373 385.425 152.116 372.168 117.946L370.863 118.452ZM374.925 241.085C370.166 263.897 363.706 282.566 355.169 298.196L356.398 298.867C365.018 283.086 371.517 264.278 376.295 241.371L374.925 241.085ZM355.169 298.196C345.966 315.055 332.474 330.876 315.062 345.265L315.954 346.345C333.479 331.862 347.096 315.908 356.398 298.867L355.169 298.196ZM315.062 345.265C281.115 373.296 239.608 389.899 198.196 392.042L198.268 393.44C239.999 391.281 281.79 374.555 315.953 346.345L315.062 345.265ZM198.195 392.042C161.589 393.953 124.804 384.193 94.6329 364.578L93.8698 365.752C124.294 385.531 161.373 395.366 198.268 393.44L198.195 392.042ZM94.6328 364.578C85.9408 358.93 77.8409 352.352 70.2552 344.741L69.2636 345.729C76.9173 353.409 85.0936 360.049 93.8699 365.752L94.6328 364.578ZM159.341 3.19225C121.261 11.1981 85.6404 28.7966 58.5619 53.1178L59.4974 54.1594C86.3788 30.0151 121.771 12.5215 159.629 4.5623L159.341 3.19225ZM58.5618 53.1179C31.6461 77.3003 12.4738 111.257 4.56622 148.714L5.93603 149.004C13.7862 111.819 32.816 78.1313 59.4975 54.1593L58.5618 53.1179ZM4.56626 148.714C0.689589 167.057 -0.247831 185.508 1.78235 203.571L3.17359 203.415C1.16067 185.505 2.0893 167.205 5.936 149.004L4.56626 148.714ZM1.78229 203.57C3.91767 222.711 9.72315 242.477 20.5212 267.629L21.8076 267.077C11.0424 242.001 5.28872 222.373 3.17366 203.415L1.78229 203.57ZM20.5213 267.63C34.371 299.842 55.3021 340.182 94.1291 365.415L94.892 364.241C56.4333 339.247 35.6376 299.243 21.8075 267.077L20.5213 267.63ZM94.129 365.415C124.475 385.143 161.45 394.951 198.268 393.026L198.195 391.628C161.667 393.538 124.985 383.805 94.892 364.241L94.129 365.415ZM198.268 393.026C239.869 390.866 281.582 374.166 315.669 346.008L314.777 344.928C280.908 372.907 239.478 389.485 198.195 391.628L198.268 393.026ZM315.668 346.008C333.142 331.577 346.733 315.649 356.009 298.66L354.78 297.989C345.603 314.796 332.137 330.591 314.777 344.928L315.668 346.008ZM356.009 298.66C364.603 282.904 371.102 264.149 375.855 241.293L374.484 241.008C369.751 263.767 363.292 282.384 354.78 297.989L356.009 298.66ZM375.855 241.294C386.265 191.373 384.984 152.194 371.753 118.101L370.448 118.607C383.549 152.366 384.86 191.25 374.484 241.008L375.855 241.294ZM371.753 118.101C357.571 81.5649 330.875 50.1103 296.586 29.5056L295.865 30.7056C329.894 51.1541 356.38 82.3677 370.448 118.608L371.753 118.101ZM296.585 29.5053C265.083 10.6198 227.792 0.663059 188.745 0.741049L188.747 2.14105C227.556 2.06353 264.595 11.9595 295.865 30.706L296.585 29.5053ZM188.746 0.741047C181.486 0.741047 174.074 1.18343 166.198 2.0672L166.354 3.45847C174.184 2.57985 181.544 2.14105 188.746 2.14105V0.741047ZM165.706 3.1697C165.795 3.29427 165.855 3.42241 165.882 3.52871L167.24 3.18916C167.163 2.88077 167.015 2.59423 166.845 2.35597L165.706 3.1697ZM165.879 3.51926C165.934 3.75281 165.882 4.04856 165.719 4.29243L166.884 5.06901C167.24 4.53535 167.395 3.84624 167.242 3.1986L165.879 3.51926ZM166.367 5.37762C202.804 1.94069 238.557 7.11026 270.14 20.4098L270.683 19.1195C238.872 5.7241 202.886 0.526731 166.236 3.98381L166.367 5.37762ZM270.14 20.4099C305.643 35.3338 335.85 61.3344 355.287 93.6529L356.487 92.9314C336.893 60.3529 306.453 34.1559 270.683 19.1193L270.14 20.4099ZM355.287 93.6526C365.612 110.844 372.579 129.166 376.036 148.078L377.413 147.826C373.925 128.743 366.896 110.262 356.487 92.9317L355.287 93.6526ZM376.036 148.077C379.389 166.494 379.497 187.126 376.393 211.178L377.782 211.358C380.898 187.203 380.799 166.42 377.413 147.826L376.036 148.077ZM376.393 211.179C373.443 234.134 369.227 253.315 363.493 269.819L364.816 270.278C370.59 253.659 374.823 234.379 377.782 211.357L376.393 211.179ZM363.493 269.82C356.339 290.559 346.792 307.504 334.367 321.707L335.421 322.629C347.981 308.271 357.612 291.161 364.816 270.277L363.493 269.82ZM334.367 321.707C307.358 352.538 268.485 375.372 227.757 384.308L228.057 385.676C269.072 376.677 308.211 353.689 335.421 322.63L334.367 321.707ZM227.757 384.308C190.992 392.389 152.373 388.618 119.029 373.675L118.457 374.953C152.084 390.022 191.009 393.819 228.057 385.676L227.757 384.308ZM119.029 373.675C102.873 366.449 88.3203 356.849 75.756 345.188L74.8036 346.214C87.4829 357.982 102.165 367.666 118.457 374.953L119.029 373.675ZM75.7557 345.188C61.6508 332.114 49.2555 315.208 37.8793 293.464L36.6388 294.113C48.0699 315.962 60.5553 333.008 74.804 346.215L75.7557 345.188ZM37.8791 293.464C26.853 272.421 18.9419 253.725 13.6967 236.284L12.356 236.687C17.6332 254.235 25.5835 273.015 36.639 294.114L37.8791 293.464ZM13.6966 236.284C7.15952 214.58 4.55597 194.576 5.71663 175.129L4.31912 175.046C3.14721 194.682 5.77897 214.85 12.3561 236.687L13.6966 236.284ZM5.71664 175.129C7.83351 139.503 21.0267 104.417 42.8393 76.4095L41.7348 75.5493C19.7471 103.782 6.45268 139.139 4.3191 175.046L5.71664 175.129ZM42.8397 76.4089C64.0666 49.0951 96.8794 27.3928 137.704 13.6897L137.259 12.3625C96.2365 26.1318 63.1674 47.9707 41.7343 75.5498L42.8397 76.4089ZM137.705 13.6895C145.306 11.1299 153.739 8.6463 163.421 6.10946L163.066 4.75518C153.361 7.29815 144.896 9.79067 137.258 12.3627L137.705 13.6895ZM163.176 4.73557C162.767 4.77515 162.366 4.82123 161.971 4.86647C161.575 4.91194 161.186 4.95657 160.792 4.99475L160.926 6.38824C161.335 6.34867 161.737 6.30259 162.131 6.25734C162.527 6.21188 162.916 6.16724 163.311 6.12906L163.176 4.73557ZM160.775 4.99658C160.547 5.02415 160.407 4.95774 160.312 4.87194C160.204 4.77363 160.124 4.61716 160.103 4.44181L158.713 4.60861C158.769 5.0812 158.987 5.55971 159.371 5.90847C159.769 6.26974 160.315 6.46251 160.943 6.38641L160.775 4.99658ZM160.103 4.44791C160.088 4.31403 160.105 4.19244 160.141 4.09715L158.83 3.60557C158.71 3.92496 158.675 4.26988 158.712 4.60251L160.103 4.44791ZM165.757 5.17315C165.444 4.54705 165.444 4.54704 165.444 4.54702C165.444 4.54702 165.444 4.54701 165.444 4.547C165.444 4.54699 165.444 4.54698 165.444 4.54697C165.444 4.54696 165.444 4.54695 165.444 4.54694C165.444 4.54694 165.444 4.54697 165.444 4.54702C165.444 4.54713 165.444 4.54736 165.443 4.5477C165.442 4.54838 165.439 4.54949 165.436 4.55101C165.43 4.55403 165.421 4.55861 165.409 4.56433C165.385 4.57586 165.352 4.5917 165.315 4.60885C165.232 4.64693 165.159 4.67785 165.121 4.69049L165.564 6.01865C165.682 5.97945 165.816 5.91966 165.902 5.87999C165.949 5.85826 165.99 5.83846 166.02 5.82407C166.035 5.81684 166.047 5.81089 166.055 5.80663C166.06 5.80449 166.063 5.80278 166.066 5.80153C166.067 5.80091 166.068 5.8004 166.069 5.80002C166.069 5.79983 166.07 5.79967 166.07 5.79954C166.07 5.79947 166.07 5.79942 166.07 5.79937C166.07 5.79934 166.07 5.79932 166.07 5.7993C166.07 5.79929 166.07 5.79928 166.07 5.79927C166.07 5.79926 166.07 5.79925 165.757 5.17315ZM165.167 4.67686C154.632 7.40155 145.545 10.0755 137.389 12.8028L137.833 14.1306C145.953 11.4152 155.008 8.75023 165.518 6.03227L165.167 4.67686ZM137.389 12.803C96.4435 26.5207 63.4526 48.3337 41.9939 75.8862L43.0985 76.7464C64.3517 49.4577 97.0872 27.7815 137.833 14.1304L137.389 12.803ZM41.9938 75.8864C20.0839 104.041 6.84145 139.295 4.70787 175.123L6.10539 175.207C8.22227 139.659 21.3637 104.676 43.0986 76.7462L41.9938 75.8864ZM4.70786 175.124C1.97436 221.229 21.8592 265.073 37.0019 293.958L38.2419 293.308C23.1131 264.45 3.39626 220.901 6.10541 175.207L4.70786 175.124ZM37.002 293.958C48.4331 315.755 60.8923 332.749 75.0886 345.929L76.0412 344.903C61.9877 331.855 49.618 315.001 38.2418 293.308L37.002 293.958ZM75.0888 345.929C87.7424 357.672 102.373 367.303 118.638 374.59L119.211 373.312C103.08 366.086 88.5791 356.538 76.0411 344.903L75.0888 345.929ZM118.639 374.59C152.187 389.608 191.009 393.404 227.979 385.287L227.679 383.919C190.992 391.975 152.477 388.203 119.211 373.312L118.639 374.59ZM227.98 385.287C268.917 376.288 307.977 353.353 335.11 322.37L334.056 321.448C307.125 352.201 268.33 374.984 227.679 383.92L227.98 385.287ZM335.11 322.37C364.155 289.209 372.933 245.535 377.367 211.332L375.979 211.152C371.549 245.319 362.807 288.623 334.056 321.448L335.11 322.37ZM377.367 211.332C380.484 187.229 380.358 166.472 376.999 147.931L375.621 148.18C378.949 166.546 379.082 187.153 375.979 211.152L377.367 211.332ZM376.999 147.93C373.536 128.899 366.533 110.47 356.15 93.1908L354.95 93.9119C365.249 111.051 372.19 129.321 375.621 148.181L376.999 147.93ZM356.15 93.1908C336.634 60.7157 306.22 34.5446 270.553 19.5599L270.011 20.8506C305.409 35.7226 335.59 61.6972 354.95 93.9119L356.15 93.1908ZM270.554 19.5601C238.613 6.11264 202.47 0.941307 165.716 4.47636L165.85 5.86993C202.39 2.35546 238.298 7.49924 270.01 20.8504L270.554 19.5601ZM159.555 3.28674C159.213 3.67742 159.138 4.14718 159.178 4.54303L160.571 4.40373C160.564 4.34187 160.569 4.29788 160.577 4.26925C160.584 4.24351 160.593 4.22547 160.608 4.20864L159.555 3.28674ZM159.179 4.55517C159.22 4.90158 159.366 5.28138 159.67 5.56687C159.993 5.86981 160.433 6.00896 160.924 5.94502L160.742 4.55678C160.682 4.56472 160.652 4.55732 160.644 4.55482C160.636 4.55251 160.633 4.55024 160.629 4.54617C160.615 4.5336 160.58 4.48577 160.569 4.39159L159.179 4.55517ZM160.912 5.94648C162.521 5.76481 164.095 5.58414 165.695 5.4293L165.56 4.03581C163.947 4.19197 162.359 4.37414 160.754 4.55532L160.912 5.94648ZM166.008 5.32025C166.741 4.84625 166.958 3.97909 166.803 3.28483L165.437 3.58853C165.49 3.8273 165.396 4.04867 165.247 4.14485L166.008 5.32025ZM166.807 3.2994C166.77 3.11543 166.605 2.49492 165.993 2.18857L165.367 3.44077C165.367 3.44079 165.369 3.44167 165.374 3.44682C165.379 3.45277 165.388 3.46358 165.398 3.48091C165.408 3.49828 165.416 3.51786 165.423 3.53725C165.43 3.55675 165.433 3.57077 165.434 3.57396L166.807 3.2994ZM165.6 2.11919C165.147 2.17103 164.693 2.22286 164.239 2.2747C163.786 2.32653 163.332 2.37837 162.879 2.4302L163.038 3.82115C163.491 3.76931 163.945 3.71748 164.398 3.66564C164.852 3.61381 165.305 3.56197 165.759 3.51014L165.6 2.11919ZM162.828 2.43788C161.819 2.62872 160.937 2.82161 159.929 3.00744L160.182 4.38427C161.143 4.20726 162.179 3.98548 163.088 3.81347L162.828 2.43788Z" fill="#F3F0EB" mask="url(#path-2-outside-1_2844_20751)"/>
</svg>
