<svg width="394" height="384" viewBox="0 0 394 384" fill="none" xmlns="http://www.w3.org/2000/svg">
<mask id="path-1-outside-1_2844_20750" maskUnits="userSpaceOnUse" x="0.165999" y="-1.71786e-05" width="394" height="384" fill="black">
<rect fill="white" x="0.165999" y="-1.71786e-05" width="394" height="384"/>
<path d="M48.9053 69.7853C55.7734 62.9172 63.5227 56.4638 72.1532 50.3473C86.9779 39.8508 104.809 30.1577 126.657 20.7756C151.797 9.94216 171.52 4.16259 190.621 2.03737C208.66 0.0158144 227.087 0.94884 245.385 4.83644C282.809 12.7153 316.709 31.8683 340.838 58.7705C365.227 85.88 382.876 121.62 390.833 159.848C390.988 160.03 391.092 160.263 391.144 160.548C391.248 161.325 391.351 162.103 391.455 162.88C391.585 163.554 391.714 164.254 391.844 164.954C391.896 165.265 391.87 165.524 391.792 165.731C392.699 173.792 393.166 181.36 393.166 188.746C393.243 227.752 383.291 264.995 364.423 296.433C343.845 330.695 312.433 357.364 275.967 371.515C241.964 384.707 202.854 386.003 152.938 375.61C130.078 370.841 111.34 364.362 95.6343 355.783C78.6843 346.531 62.797 332.976 48.3611 315.508C20.2407 281.452 3.57589 239.803 1.42475 198.232C-0.493131 161.481 9.30363 124.549 29.0008 94.2513C34.6767 85.5172 41.2856 77.3791 48.9312 69.7594M390.289 159.485C382.306 121.516 364.76 86.0096 340.527 59.0296C316.45 32.2311 282.628 13.13 245.307 5.25112C227.035 1.38943 208.66 0.45641 190.673 2.47796C171.624 4.60318 151.927 10.3828 126.813 21.1644C94.6235 35.0042 54.4516 55.8677 29.3377 94.5105C9.69236 124.73 -0.0784835 161.559 1.8394 198.232C3.99054 239.674 20.6295 281.245 48.698 315.223C63.0821 332.639 78.9435 346.168 95.8416 355.395C111.522 363.947 130.208 370.427 153.015 375.17C202.854 385.562 241.886 384.267 275.812 371.101C312.2 356.976 343.534 330.384 364.06 296.225C382.876 264.839 392.803 227.674 392.725 188.746C392.725 181.515 392.284 174.129 391.403 166.276C391.222 166.405 391.014 166.509 390.807 166.561C390.366 166.664 389.874 166.561 389.485 166.302C392.932 202.845 387.749 238.715 374.401 270.412C359.421 306.048 333.322 336.371 300.874 355.887C283.613 366.254 265.212 373.252 246.214 376.725C227.709 380.094 207.001 380.198 182.898 377.087C159.909 374.133 140.679 369.908 124.117 364.155C103.306 356.976 86.2781 347.386 71.9977 334.894C41.0524 307.784 18.1414 268.779 9.17401 227.907C1.06188 191.001 4.84585 152.228 19.852 118.743C27.1089 102.519 36.7501 87.9016 48.4647 75.2798C61.6048 61.103 78.5807 48.6627 100.377 37.259C121.448 26.2183 140.186 18.2875 157.68 13.0263C179.451 6.46923 199.537 3.85158 219.079 5.01786C254.845 7.14309 290.066 20.3869 318.187 42.287C345.633 63.617 367.404 96.558 381.14 137.481C383.706 145.101 386.194 153.55 388.734 163.243C388.656 162.44 388.552 161.662 388.475 160.859C388.371 160.004 388.993 159.485 389.641 159.408C389.874 159.382 390.107 159.408 390.315 159.485M388.993 165.757C388.993 165.757 388.863 165.498 388.811 165.343C386.09 154.82 383.421 145.749 380.699 137.611C367.015 96.7653 345.27 63.9021 317.85 42.5462C289.807 20.7238 254.689 7.53185 219.001 5.40662C173.101 2.6853 129.405 22.4862 100.533 37.6219C78.788 49.0255 61.864 61.4399 48.7498 75.5649C37.0611 88.1607 27.4717 102.726 20.2148 118.925C5.26052 152.332 1.47659 191.001 9.5628 227.829C18.5302 268.623 41.3893 307.551 72.2568 334.583C105.25 363.481 148.739 372.241 182.924 376.673C206.975 379.783 227.657 379.653 246.11 376.31C265.056 372.863 283.406 365.891 300.615 355.55C332.96 336.112 359.032 305.815 373.961 270.282C387.36 238.455 392.518 202.43 388.993 165.783M390.418 160.081C390.211 159.9 389.952 159.848 389.693 159.874C389.252 159.926 388.837 160.237 388.915 160.833C389.097 162.44 389.278 164.021 389.433 165.628C389.719 166.068 390.263 166.224 390.729 166.12C390.859 166.094 391.196 165.991 391.351 165.68C391.248 164.772 391.144 163.865 391.04 162.958C390.859 161.999 390.652 161.04 390.47 160.055"/>
</mask>
<path d="M72.1532 50.3473L71.7487 49.776L71.7484 49.7762L72.1532 50.3473ZM126.657 20.7756L126.934 21.4188L126.934 21.4185L126.657 20.7756ZM190.621 2.03737L190.699 2.73307L190.699 2.73301L190.621 2.03737ZM245.385 4.83644L245.239 5.52116L245.241 5.52143L245.385 4.83644ZM340.838 58.7705L340.317 59.2379L340.318 59.2386L340.838 58.7705ZM390.833 159.848L390.148 159.991L390.184 160.167L390.302 160.304L390.833 159.848ZM391.144 160.548L391.838 160.455L391.836 160.439L391.833 160.423L391.144 160.548ZM391.455 162.88L390.761 162.973L390.764 162.993L390.768 163.013L391.455 162.88ZM391.844 164.954L392.534 164.839L392.532 164.826L391.844 164.954ZM391.792 165.731L391.137 165.486L391.078 165.643L391.096 165.81L391.792 165.731ZM393.166 188.746L392.466 188.746L392.466 188.747L393.166 188.746ZM364.423 296.433L365.023 296.793L365.023 296.793L364.423 296.433ZM275.967 371.515L276.22 372.168L276.22 372.168L275.967 371.515ZM152.938 375.61L152.795 376.295L152.795 376.295L152.938 375.61ZM95.6343 355.783L95.9698 355.169L95.9697 355.169L95.6343 355.783ZM48.3611 315.508L47.8213 315.953L47.8215 315.954L48.3611 315.508ZM1.42475 198.232L2.12382 198.196L2.1238 198.195L1.42475 198.232ZM29.0008 94.2513L29.5877 94.6329L29.5878 94.6327L29.0008 94.2513ZM340.527 59.0296L341.048 58.5619L341.048 58.5618L340.527 59.0296ZM245.307 5.25112L245.162 5.93599L245.162 5.93603L245.307 5.25112ZM190.673 2.47796L190.751 3.17365L190.751 3.17358L190.673 2.47796ZM126.813 21.1644L126.537 20.5211L126.536 20.5213L126.813 21.1644ZM29.3377 94.5105L29.9246 94.892L29.9247 94.8919L29.3377 94.5105ZM1.8394 198.232L2.53846 198.195L2.53844 198.195L1.8394 198.232ZM48.698 315.223L49.2377 314.777L49.2377 314.777L48.698 315.223ZM95.8416 355.395L95.5062 356.009L95.5064 356.009L95.8416 355.395ZM153.015 375.17L153.158 374.484L153.158 374.484L153.015 375.17ZM275.812 371.101L276.065 371.753L276.065 371.753L275.812 371.101ZM364.06 296.225L364.66 296.586L364.661 296.585L364.06 296.225ZM392.725 188.746L392.025 188.746L392.025 188.747L392.725 188.746ZM391.403 166.276L392.099 166.198L391.966 165.013L390.996 165.706L391.403 166.276ZM390.807 166.561L390.967 167.242L390.977 167.24L390.807 166.561ZM389.485 166.302L389.874 165.719L388.65 164.904L388.788 166.367L389.485 166.302ZM374.401 270.412L373.756 270.14L373.756 270.14L374.401 270.412ZM300.874 355.887L301.234 356.487L301.235 356.487L300.874 355.887ZM246.214 376.725L246.34 377.413L246.34 377.413L246.214 376.725ZM182.898 377.087L182.988 376.393L182.987 376.393L182.898 377.087ZM124.117 364.155L124.347 363.493L124.346 363.493L124.117 364.155ZM71.9977 334.894L71.5364 335.42L71.5368 335.421L71.9977 334.894ZM9.17401 227.907L9.85775 227.757L9.85769 227.757L9.17401 227.907ZM19.852 118.743L20.4908 119.029L20.491 119.029L19.852 118.743ZM48.4647 75.2798L48.9778 75.756L48.9781 75.7557L48.4647 75.2798ZM100.377 37.259L100.702 37.8793L100.702 37.8791L100.377 37.259ZM157.68 13.0263L157.882 13.6967L157.882 13.6966L157.68 13.0263ZM219.079 5.01786L219.037 5.71662L219.037 5.71663L219.079 5.01786ZM318.187 42.287L317.757 42.8393L317.757 42.8397L318.187 42.287ZM381.14 137.481L380.476 137.704L380.477 137.705L381.14 137.481ZM388.734 163.243L388.057 163.421L389.43 163.176L388.734 163.243ZM388.475 160.859L389.171 160.792L389.17 160.783L389.169 160.775L388.475 160.859ZM389.641 159.408L389.563 158.712L389.557 158.713L389.641 159.408ZM388.811 165.343L388.134 165.518L388.14 165.541L388.147 165.564L388.811 165.343ZM380.699 137.611L381.363 137.389L381.363 137.389L380.699 137.611ZM317.85 42.5462L318.28 41.9939L318.28 41.9938L317.85 42.5462ZM219.001 5.40662L219.043 4.70786L219.042 4.70785L219.001 5.40662ZM100.533 37.6219L100.208 37.0019L100.208 37.002L100.533 37.6219ZM48.7498 75.5649L48.2368 75.0886L48.2367 75.0887L48.7498 75.5649ZM20.2148 118.925L19.576 118.638L19.5759 118.639L20.2148 118.925ZM9.5628 227.829L8.87908 227.979L8.87912 227.98L9.5628 227.829ZM72.2568 334.583L72.7181 334.056L72.718 334.056L72.2568 334.583ZM182.924 376.673L182.834 377.367L182.834 377.367L182.924 376.673ZM246.11 376.31L246.235 376.999L246.236 376.999L246.11 376.31ZM300.615 355.55L300.975 356.15L300.975 356.15L300.615 355.55ZM373.961 270.282L373.316 270.01L373.315 270.011L373.961 270.282ZM389.693 159.874L389.623 159.177L389.611 159.179L389.693 159.874ZM388.915 160.833L389.611 160.754L389.609 160.742L388.915 160.833ZM389.433 165.628L388.737 165.695L388.753 165.865L388.846 166.008L389.433 165.628ZM390.729 166.12L390.592 165.434L390.585 165.435L390.577 165.437L390.729 166.12ZM391.351 165.68L391.977 165.993L392.07 165.807L392.047 165.6L391.351 165.68ZM391.04 162.958L391.736 162.879L391.733 162.853L391.728 162.828L391.04 162.958ZM49.4003 70.2803C56.2373 63.4433 63.9556 57.015 72.5579 50.9184L71.7484 49.7762C63.0898 55.9127 55.3096 62.3911 48.4104 69.2904L49.4003 70.2803ZM72.5577 50.9186C87.3326 40.4574 105.118 30.7868 126.934 21.4188L126.381 20.1324C104.5 29.5286 86.6232 39.2442 71.7487 49.776L72.5577 50.9186ZM126.934 21.4185C152.035 10.6018 171.689 4.84815 190.699 2.73307L190.544 1.34166C171.352 3.47703 151.559 9.28254 126.38 20.1328L126.934 21.4185ZM190.699 2.73301C208.661 0.720035 227.013 1.64874 245.239 5.52116L245.53 4.15173C227.161 0.248936 208.658 -0.688406 190.543 1.34172L190.699 2.73301ZM245.241 5.52143C282.529 13.3716 316.294 32.4531 340.317 59.2379L341.36 58.3031C317.125 31.2834 283.09 12.0591 245.529 4.15146L245.241 5.52143ZM340.318 59.2386C364.617 86.2493 382.214 121.874 390.148 159.991L391.518 159.706C383.538 121.366 365.836 85.5108 341.359 58.3023L340.318 59.2386ZM390.302 160.304C390.361 160.373 390.421 160.484 390.455 160.673L391.833 160.423C391.763 160.041 391.616 159.686 391.364 159.393L390.302 160.304ZM390.45 160.64C390.502 161.029 390.554 161.418 390.606 161.807C390.657 162.195 390.709 162.584 390.761 162.973L392.149 162.788C392.097 162.399 392.045 162.01 391.993 161.622C391.942 161.233 391.89 160.844 391.838 160.455L390.45 160.64ZM390.768 163.013C390.897 163.684 391.026 164.381 391.155 165.081L392.532 164.826C392.403 164.127 392.273 163.425 392.142 162.748L390.768 163.013ZM391.153 165.069C391.189 165.28 391.164 165.412 391.137 165.486L392.447 165.977C392.575 165.636 392.603 165.249 392.534 164.839L391.153 165.069ZM391.096 165.81C392.001 173.848 392.466 181.389 392.466 188.746L393.866 188.746C393.866 181.33 393.397 173.735 392.488 165.653L391.096 165.81ZM392.466 188.747C392.543 227.634 382.621 264.751 363.823 296.072L365.023 296.793C383.961 265.239 393.944 227.869 393.866 188.745L392.466 188.747ZM363.823 296.072C343.323 330.205 312.031 356.769 275.714 370.863L276.22 372.168C312.835 357.959 344.367 331.186 365.023 296.793L363.823 296.072ZM275.714 370.863C241.877 383.99 202.915 385.301 153.08 374.925L152.795 376.295C202.793 386.705 242.05 385.425 276.22 372.168L275.714 370.863ZM153.081 374.925C130.269 370.166 111.6 363.706 95.9698 355.169L95.2987 356.398C111.08 365.018 129.888 371.517 152.795 376.295L153.081 374.925ZM95.9697 355.169C79.1106 345.966 63.2899 332.474 48.9007 315.062L47.8215 315.954C62.3042 333.478 78.2581 347.096 95.2989 356.398L95.9697 355.169ZM48.9008 315.062C20.87 281.115 4.2667 239.608 2.12382 198.196L0.725687 198.268C2.88508 239.999 19.6115 281.79 47.8213 315.953L48.9008 315.062ZM2.1238 198.195C0.213476 161.589 9.97267 124.804 29.5877 94.6329L28.4139 93.8698C8.63459 124.294 -1.19974 161.373 0.725703 198.268L2.1238 198.195ZM29.5878 94.6327C35.2363 85.9408 41.8139 77.8409 49.4254 70.2552L48.4371 69.2636C40.7574 76.9173 34.1172 85.0936 28.4139 93.8699L29.5878 94.6327ZM390.974 159.341C382.968 121.261 365.369 85.6404 341.048 58.5619L340.007 59.4974C364.151 86.3788 381.644 121.771 389.604 159.629L390.974 159.341ZM341.048 58.5618C316.866 31.6461 282.909 12.4738 245.452 4.56622L245.162 5.93603C282.347 13.7862 316.035 32.816 340.007 59.4975L341.048 58.5618ZM245.452 4.56625C227.109 0.689582 208.659 -0.247839 190.595 1.78234L190.751 3.17358C208.661 1.16066 226.961 2.08929 245.162 5.93599L245.452 4.56625ZM190.596 1.78228C171.455 3.91766 151.689 9.72314 126.537 20.5211L127.089 21.8076C152.165 11.0424 171.793 5.28871 190.751 3.17365L190.596 1.78228ZM126.536 20.5213C94.3243 34.3709 53.9844 55.3021 28.7508 94.129L29.9247 94.8919C54.9189 56.4333 94.9228 35.6375 127.089 21.8075L126.536 20.5213ZM28.7508 94.129C9.02332 124.475 -0.785104 161.45 1.14035 198.268L2.53844 198.195C0.628137 161.667 10.3614 124.985 29.9246 94.892L28.7508 94.129ZM1.14034 198.268C3.29976 239.869 20.0003 281.582 48.1583 315.668L49.2377 314.777C21.2587 280.908 4.68132 239.478 2.53846 198.195L1.14034 198.268ZM48.1583 315.668C62.5892 333.142 78.5173 346.733 95.5062 356.009L96.1771 354.78C79.3698 345.603 63.575 332.137 49.2377 314.777L48.1583 315.668ZM95.5064 356.009C111.262 364.603 130.017 371.102 152.873 375.855L153.158 374.484C130.399 369.751 111.782 363.292 96.1768 354.78L95.5064 356.009ZM152.872 375.855C202.793 386.265 241.972 384.984 276.065 371.753L275.559 370.448C241.8 383.549 202.916 384.86 153.158 374.484L152.872 375.855ZM276.065 371.753C312.601 357.571 344.056 330.875 364.66 296.586L363.46 295.865C343.012 329.894 311.798 356.38 275.558 370.448L276.065 371.753ZM364.661 296.585C383.546 265.083 393.503 227.792 393.425 188.745L392.025 188.747C392.102 227.556 382.206 264.595 363.46 295.865L364.661 296.585ZM393.425 188.746C393.425 181.486 392.983 174.074 392.099 166.198L390.708 166.354C391.586 174.184 392.025 181.544 392.025 188.746L393.425 188.746ZM390.996 165.706C390.872 165.795 390.744 165.855 390.637 165.882L390.977 167.24C391.285 167.163 391.572 167.015 391.81 166.845L390.996 165.706ZM390.647 165.879C390.413 165.934 390.117 165.882 389.874 165.719L389.097 166.884C389.631 167.24 390.32 167.395 390.967 167.242L390.647 165.879ZM388.788 166.367C392.225 202.804 387.056 238.557 373.756 270.14L375.047 270.683C388.442 238.872 393.639 202.886 390.182 166.236L388.788 166.367ZM373.756 270.14C358.832 305.643 332.832 335.85 300.513 355.287L301.235 356.487C333.813 336.893 360.01 306.453 375.047 270.683L373.756 270.14ZM300.513 355.287C283.322 365.612 265 372.579 246.088 376.036L246.34 377.413C265.423 373.925 283.904 366.896 301.234 356.487L300.513 355.287ZM246.089 376.036C227.672 379.389 207.04 379.497 182.988 376.393L182.808 377.782C206.963 380.898 227.746 380.799 246.34 377.413L246.089 376.036ZM182.987 376.393C160.032 373.443 140.851 369.227 124.347 363.493L123.888 364.816C140.507 370.59 159.787 374.823 182.809 377.782L182.987 376.393ZM124.346 363.493C103.607 356.339 86.6616 346.792 72.4586 334.367L71.5368 335.421C85.8947 347.981 103.005 357.612 123.889 364.816L124.346 363.493ZM72.4589 334.367C41.6281 307.358 18.7937 268.485 9.85775 227.757L8.49028 228.057C17.4892 269.072 40.4766 308.211 71.5364 335.42L72.4589 334.367ZM9.85769 227.757C1.77671 190.992 5.54801 152.373 20.4908 119.029L19.2132 118.457C4.14368 152.084 0.347057 191.009 8.49034 228.057L9.85769 227.757ZM20.491 119.029C27.7173 102.873 37.3165 88.3203 48.9778 75.756L47.9517 74.8036C36.1837 87.4829 26.5004 102.165 19.213 118.457L20.491 119.029ZM48.9781 75.7557C62.0516 61.6508 78.9577 49.2554 100.702 37.8793L100.053 36.6388C78.2036 48.0699 61.1581 60.5552 47.9514 74.804L48.9781 75.7557ZM100.702 37.8791C121.745 26.853 140.441 18.9419 157.882 13.6967L157.479 12.356C139.931 17.6332 121.151 25.5835 100.052 36.639L100.702 37.8791ZM157.882 13.6966C179.586 7.15951 199.59 4.55597 219.037 5.71662L219.12 4.31911C199.484 3.1472 179.316 5.77896 157.479 12.3561L157.882 13.6966ZM219.037 5.71663C254.663 7.83351 289.749 21.0266 317.757 42.8393L318.617 41.7348C290.384 19.7471 255.027 6.45267 219.12 4.3191L219.037 5.71663ZM317.757 42.8397C345.071 64.0666 366.773 96.8794 380.476 137.704L381.804 137.259C368.034 96.2365 346.195 63.1674 318.616 41.7343L317.757 42.8397ZM380.477 137.705C383.036 145.306 385.52 153.739 388.057 163.421L389.411 163.066C386.868 153.361 384.375 144.896 381.803 137.258L380.477 137.705ZM389.43 163.176C389.391 162.767 389.345 162.366 389.3 161.971C389.254 161.575 389.209 161.186 389.171 160.792L387.778 160.926C387.817 161.335 387.863 161.737 387.909 162.131C387.954 162.527 387.999 162.916 388.037 163.311L389.43 163.176ZM389.169 160.775C389.142 160.547 389.208 160.407 389.294 160.312C389.392 160.204 389.549 160.124 389.724 160.103L389.557 158.713C389.085 158.769 388.606 158.987 388.258 159.371C387.896 159.769 387.704 160.315 387.78 160.943L389.169 160.775ZM389.718 160.103C389.852 160.088 389.974 160.105 390.069 160.141L390.56 158.83C390.241 158.71 389.896 158.675 389.563 158.712L389.718 160.103ZM388.993 165.757C389.619 165.444 389.619 165.444 389.619 165.444C389.619 165.444 389.619 165.444 389.619 165.444C389.619 165.444 389.619 165.444 389.619 165.444C389.619 165.444 389.619 165.444 389.619 165.444C389.619 165.444 389.619 165.444 389.619 165.444C389.619 165.444 389.619 165.444 389.618 165.443C389.618 165.442 389.617 165.439 389.615 165.436C389.612 165.43 389.607 165.421 389.602 165.409C389.59 165.385 389.574 165.352 389.557 165.315C389.519 165.232 389.488 165.159 389.476 165.121L388.147 165.564C388.187 165.682 388.246 165.816 388.286 165.902C388.308 165.949 388.328 165.99 388.342 166.02C388.349 166.035 388.355 166.047 388.359 166.055C388.362 166.06 388.363 166.063 388.364 166.066C388.365 166.067 388.366 166.068 388.366 166.069C388.366 166.069 388.366 166.07 388.366 166.07C388.367 166.07 388.367 166.07 388.367 166.07C388.367 166.07 388.367 166.07 388.367 166.07C388.367 166.07 388.367 166.07 388.367 166.07C388.367 166.07 388.367 166.07 388.993 165.757ZM389.489 165.167C386.764 154.632 384.09 145.545 381.363 137.389L380.035 137.833C382.751 145.953 385.416 155.008 388.134 165.518L389.489 165.167ZM381.363 137.389C367.645 96.4435 345.832 63.4525 318.28 41.9939L317.42 43.0985C344.708 64.3517 366.385 97.0872 380.036 137.833L381.363 137.389ZM318.28 41.9938C290.125 20.0839 254.871 6.84144 219.043 4.70786L218.959 6.10539C254.507 8.22226 289.49 21.3637 317.42 43.0986L318.28 41.9938ZM219.042 4.70785C172.937 1.97435 129.093 21.8592 100.208 37.0019L100.858 38.2419C129.716 23.1131 173.265 3.39625 218.96 6.1054L219.042 4.70785ZM100.208 37.002C78.4106 48.433 61.4173 60.8922 48.2368 75.0886L49.2628 76.0412C62.3107 61.9876 79.1655 49.618 100.858 38.2418L100.208 37.002ZM48.2367 75.0887C36.4944 87.7424 26.8631 102.373 19.576 118.638L20.8537 119.211C28.0803 103.08 37.6278 88.5791 49.2629 76.0411L48.2367 75.0887ZM19.5759 118.639C4.55843 152.187 0.761756 191.009 8.87908 227.979L10.2465 227.679C2.19141 190.992 5.96262 152.477 20.8537 119.211L19.5759 118.639ZM8.87912 227.98C17.878 268.917 40.8135 307.977 71.7957 335.11L72.718 334.056C41.9651 307.125 19.1824 268.33 10.2465 227.679L8.87912 227.98ZM71.7956 335.11C104.957 364.155 148.631 372.933 182.834 377.367L183.014 375.979C148.847 371.549 105.543 362.807 72.7181 334.056L71.7956 335.11ZM182.834 377.367C206.937 380.484 227.694 380.358 246.235 376.999L245.986 375.621C227.62 378.949 207.013 379.082 183.014 375.979L182.834 377.367ZM246.236 376.999C265.267 373.536 283.696 366.533 300.975 356.15L300.254 354.95C283.115 365.249 264.845 372.19 245.985 375.621L246.236 376.999ZM300.975 356.15C333.45 336.634 359.621 306.22 374.606 270.553L373.315 270.011C358.443 305.409 332.469 335.59 300.254 354.95L300.975 356.15ZM374.606 270.554C388.053 238.613 393.225 202.47 389.69 165.716L388.296 165.85C391.811 202.39 386.667 238.298 373.316 270.01L374.606 270.554ZM390.879 159.555C390.489 159.213 390.019 159.138 389.623 159.178L389.762 160.571C389.824 160.564 389.868 160.569 389.897 160.577C389.922 160.584 389.941 160.593 389.957 160.608L390.879 159.555ZM389.611 159.179C389.264 159.22 388.885 159.366 388.599 159.67C388.296 159.993 388.157 160.433 388.221 160.924L389.609 160.742C389.601 160.682 389.609 160.652 389.611 160.644C389.613 160.636 389.616 160.633 389.62 160.629C389.632 160.615 389.68 160.58 389.774 160.569L389.611 159.179ZM388.22 160.912C388.401 162.521 388.582 164.095 388.737 165.695L390.13 165.56C389.974 163.947 389.792 162.359 389.611 160.754L388.22 160.912ZM388.846 166.008C389.32 166.741 390.187 166.958 390.881 166.803L390.577 165.437C390.339 165.49 390.117 165.396 390.021 165.247L388.846 166.008ZM390.867 166.807C391.051 166.77 391.671 166.605 391.977 165.993L390.725 165.367C390.725 165.367 390.724 165.369 390.719 165.374C390.713 165.379 390.702 165.388 390.685 165.398C390.668 165.408 390.648 165.416 390.629 165.423C390.609 165.43 390.595 165.433 390.592 165.434L390.867 166.807ZM392.047 165.6C391.995 165.147 391.943 164.693 391.891 164.239C391.839 163.786 391.788 163.332 391.736 162.879L390.345 163.038C390.397 163.491 390.449 163.945 390.5 164.398C390.552 164.852 390.604 165.305 390.656 165.759L392.047 165.6ZM391.728 162.828C391.537 161.819 391.344 160.937 391.159 159.929L389.782 160.182C389.959 161.143 390.181 162.179 390.353 163.088L391.728 162.828Z" fill="#F3F0EB" mask="url(#path-1-outside-1_2844_20750)"/>
<circle cx="202" cy="190" r="177" fill="#F3F0EB"/>
</svg>
