<svg width="121" height="147" viewBox="0 0 121 147" fill="none" xmlns="http://www.w3.org/2000/svg">
<path d="M57.9137 38.9797C57.9245 38.8613 57.7419 38.8716 57.736 38.9712C57.1202 53.1739 63.7262 62.9739 72.3605 67.6659C74.568 68.8625 57.9524 58.1204 57.895 38.9746L57.9137 38.9797Z" fill="#F3F0EB"/>
<path d="M67.376 50.4309C63.2264 43.776 62.0131 35.9063 62.1367 28.2033C62.2464 21.2457 63.3167 14.2092 63.4014 13.4224C63.5186 12.2799 63.8215 10.5002 63.0143 9.5279C62.0549 8.37181 60.0664 9.78747 59.0447 10.2548C57.5476 10.9352 56.0966 11.6688 54.7094 12.5416C47.5475 17.0051 48.9667 17.7008 48.9747 21.5918C49.0456 58.9201 31.7424 55.5403 19.8127 67.721C12.9184 74.7699 8.83387 84.0125 9.45924 93.9883C10.6737 113.849 27.2596 126.368 37.1207 126.599C38.9084 126.647 40.5673 127.652 42.292 128.25C40.5443 129.124 39.7822 128.671 38.5641 129.125C37.6898 129.41 37.1974 130.226 37.3102 130.946C37.4064 131.499 37.7236 131.586 37.705 131.581C37.7236 131.586 37.4781 131.377 37.5538 130.932C37.8874 128.573 40.9024 131.208 44.3606 128.679C45.2162 128.774 46.115 128.779 46.9902 128.798C47.054 128.937 46.9763 129.158 46.881 129.294C46.0497 130.644 43.1905 129.794 42.4974 132.074C42.3274 132.574 42.4088 133.184 42.8301 133.563C43.3143 133.778 43.7672 133.498 43.8311 133.252C43.6837 133.434 43.2849 133.507 43.0344 133.316C42.7693 132.797 43.1183 131.84 44.3246 131.586C45.0947 131.393 48.6132 131.555 48.553 128.864C49.4183 128.921 50.0588 128.997 51.1324 129.253C51.5163 129.622 51.2166 130.39 50.9954 130.855C50.0058 132.891 50.6804 133.989 51.5015 134.216C52.36 134.453 52.6067 133.812 52.6067 133.812C52.6067 133.812 52.4642 133.975 52.1646 133.973C51.5792 133.994 51.1324 133.405 51.5137 132.477C51.8371 131.695 52.7459 130.893 52.7471 129.658C53.8531 129.943 54.9739 130.171 56.2007 130.146C56.774 131.863 58.6206 132.069 55.8177 134.233C56.413 134.174 57.1556 133.934 57.6999 133.456C58.9968 132.315 57.953 130.791 57.6349 130.015C59.2302 129.726 60.0544 129.326 61.9365 129.319L62.5366 129.626C62.5366 129.626 62.6004 129.766 62.623 129.833C63.2154 129.632 62.7414 131.607 62.7757 132.244C62.8009 133.608 64.1798 134.536 65.3243 133.981C65.3243 133.981 65.1367 134.01 64.8243 133.904C62.4503 133.188 64.9703 131.19 64.1142 129.252C64.6623 129.221 65.2105 129.19 65.7586 129.159C65.9589 129.619 66.3105 129.959 66.719 130.234C68.4515 131.341 71.0185 130.085 71.7038 131.833C71.8265 132.131 71.7724 132.338 71.791 132.344C71.791 132.344 72.3934 131.335 71.1 130.31C70.0619 129.456 68.4155 129.71 67.5395 129.003C83.2388 127.321 96.4007 117.709 100.468 101.535C107.316 74.4413 75.7812 63.8712 67.376 50.4309ZM53.1273 15.1632C53.8936 14.5241 54.6874 13.9331 55.5087 13.3902C56.613 12.6823 57.7772 12.0518 58.9727 11.5312C59.6034 11.2597 60.41 10.7735 61.0897 10.6979C61.3147 10.679 61.4502 10.6962 61.5337 10.7597C61.7429 10.8782 61.5798 11.1978 61.1829 11.4933C58.2846 13.792 54.9691 15.0033 51.6044 16.4036C52.1172 16.2009 52.6596 15.4999 53.09 15.1529L53.1273 15.1632ZM77.0844 124.529C94.4194 113.638 97.8148 89.7432 80.876 73.967C80.8436 73.9378 80.7915 73.9842 80.8239 74.0134C89.6811 82.7175 92.2633 96.4743 87.9366 107.878C83.6385 119.249 75.5231 122.457 72.9274 124.515C71.6698 125.505 70.7356 126.097 69.0656 126.365C68.3996 126.465 64.3399 126.154 64.1306 126.421C69.2293 119.585 74.1378 102.407 66.8863 82.3787C60.4358 64.5765 59.4106 63.4427 59.6628 64.2415C61.6201 70.2506 75.0478 100.755 64.1405 121.846C62.9268 124.205 61.6263 128.281 57.3525 127.871L57.2858 127.589C57.0981 127.619 56.9331 127.715 56.7867 127.816C46.034 126.245 41.6615 115.295 39.9518 104.412C37.3399 87.7713 43.8257 71.7583 49.6316 56.5906C49.6512 56.515 49.5442 56.4652 49.5009 56.5545C42.2372 72.2514 34.9516 89.3398 38.1861 107.125C39.4967 114.313 42.6146 122.242 48.1223 126.599C47.0968 126.619 46.1145 126.551 45.1705 126.412L44.6363 126.082C44.6363 126.082 44.5223 126.212 44.479 126.302C32.0567 123.844 14.4162 96.6937 28.4181 69.55C28.4613 69.4607 28.3405 69.3868 28.2786 69.471C15.2501 88.336 22.4591 113.68 36.74 124.833C20.1208 120.285 8.43059 103.325 12.1732 85.7851C16.4184 65.8521 32.293 61.7282 38.2035 57.385C49.1598 49.3308 51.756 32.1224 50.661 18.4926C52.8977 18.1988 55.1553 16.9789 57.2154 15.8261C56.6587 18.8118 56.6354 21.8233 56.8826 23.4106C57.1375 21.3543 57.4269 18.7809 58.2951 15.2127C58.6252 15.0203 58.9415 14.8038 59.2765 14.5925C58.462 19.8768 58.4843 25.2504 58.8746 28.133C58.9836 23.8692 59.474 18.6776 60.3631 13.7988C61.1245 13.1785 61.5558 13.1356 62.0579 12.2817C52.8932 67.274 90.7888 58.6977 98.3709 89.0663C102.006 103.62 92.0302 119.054 77.0884 124.59L77.0844 124.529Z" fill="#F3F0EB"/>
<path d="M50.8125 48.4632C50.7412 48.8902 50.7155 49.0658 50.7155 49.0658C54.2336 42.1557 55.882 26.3677 54.6641 22.7036C53.3529 34.118 55.7485 21.5602 50.8125 48.4632Z" fill="#F3F0EB"/>
<path d="M52.1394 125.027C40.3152 108.797 42.5252 99.3795 41.7666 95.2197C39.7494 107.973 46.366 120.455 52.1394 125.027Z" fill="#F3F0EB"/>
<path d="M26.7334 99.4111C26.616 106.242 32.1673 116.642 36.6315 119.616C36.6315 119.616 36.5442 119.491 36.342 119.192C27.8487 107.574 27.859 101.463 26.7521 99.4163L26.7334 99.4111Z" fill="#F3F0EB"/>
<path d="M15.3135 100.839C15.1658 107.475 21.2897 116.652 26.6049 118.646C24.4313 116.326 19.9305 113.889 15.9596 102.657C15.8419 102.341 15.4832 101.109 15.3321 100.845L15.3135 100.839Z" fill="#F3F0EB"/>
<path d="M65.6953 98.1328C65.577 105.753 66.1774 109.004 61.9521 121.788C61.8532 122.167 61.8086 122.337 61.8086 122.337C66.0296 116.352 67.8091 102.835 65.6953 98.1328Z" fill="#F3F0EB"/>
<path d="M71.0661 123.193C82.0451 117.907 87.1741 105.371 87.0982 101.274C80.6995 117.455 73.7966 120.56 71.0661 123.193Z" fill="#F3F0EB"/>
<path d="M90.7215 112.834C93.0859 111.395 96.764 103.763 96.1941 101.942C96.0648 102.13 90.8558 112.242 90.7215 112.834Z" fill="#F3F0EB"/>
<path d="M51.7822 54.0245C51.7822 54.0245 46.4846 71.8002 46.4737 71.919C49.2021 68.5862 52.5099 56.6405 51.7822 54.0245Z" fill="#F3F0EB"/>
<path d="M56.6057 55.1237C56.3906 53.9495 56.249 53.647 56.249 53.647C55.3394 57.4499 57.6463 67.5929 59.9796 70.3245C59.9226 70.0047 59.6268 68.9096 59.5325 68.5796C56.9294 58.8818 57.3199 58.7666 56.6057 55.1237Z" fill="#F3F0EB"/>
<path d="M57.6609 119.021C58.1017 114.172 57.6892 84.9452 56.7979 81.0479C56.3244 86.2531 56.7718 113.805 57.6609 119.021Z" fill="#F3F0EB"/>
<path d="M37.5194 68.3273C38.8985 67.0435 44.2059 57.9343 44.1885 56.3064C42.7522 57.6557 37.7516 66.2812 37.5194 68.3273Z" fill="#F3F0EB"/>
<path d="M74.4634 66.4297C74.4634 66.4297 71.3937 63.4198 70.1088 61.9131C69.7589 61.4932 66.7433 57.5079 66.4375 57.3022C66.8652 60.4923 71.843 65.9893 74.4634 66.4297Z" fill="#F3F0EB"/>
<path d="M71.623 82.1118C76.5206 101.761 72.6308 108.826 71.3178 115.403C78.0551 101.575 74.1259 86.0678 71.623 82.1118Z" fill="#F3F0EB"/>
<path d="M37.6574 108.988C33.9827 87.7268 37.4696 88.525 37.7439 79.3082C33.3392 89.9639 34.8698 103.35 37.6574 108.988Z" fill="#F3F0EB"/>
</svg>
