<svg width="54" height="53" viewBox="0 0 54 53" fill="none" xmlns="http://www.w3.org/2000/svg">
<g clip-path="url(#clip0_2694_7735)">
<path d="M29.8062 16.8561C29.8817 16.8139 29.9429 16.7781 30.0041 16.7423C30.8351 16.1838 31.7363 15.7826 32.705 15.5141C33.2089 15.3755 33.7319 15.2798 34.2532 15.219C34.6618 15.1743 35.0687 15.1645 35.4781 15.1793C36.0767 15.1956 36.6721 15.2819 37.2619 15.4135C37.6578 15.4943 38.0379 15.6165 38.4099 15.7593C38.9784 15.9775 39.5207 16.2331 40.0391 16.5507C40.7524 16.9787 41.391 17.5085 41.9565 18.1051C42.5451 18.7342 43.036 19.4326 43.4435 20.1938C43.7729 20.8184 44.0205 21.4708 44.1903 22.1408C44.3942 22.9069 44.4957 23.693 44.4882 24.4847C44.4806 24.9679 44.4587 25.4576 44.3707 25.9338C44.3113 26.243 44.2519 26.5522 44.1821 26.8575C44.0561 27.4021 43.872 27.9125 43.6323 28.4134C43.4965 28.7052 43.3505 28.9931 43.1837 29.273C43.0392 29.5258 42.8573 29.7525 42.7065 29.991C42.338 30.5492 41.8717 31.0225 41.3824 31.4632C40.9073 31.8975 40.3654 32.2587 39.8339 32.6238C39.2944 33.0097 38.7446 33.3916 38.2052 33.7774C35.4729 35.7051 32.7445 37.6225 30.0018 39.5462C29.1549 40.1461 28.2976 40.742 27.4507 41.3418C27.2369 41.497 27.0105 41.6235 26.761 41.7175C26.3088 41.8759 25.8549 41.9152 25.3931 41.8209C24.7229 41.6822 24.1917 41.336 23.8035 40.7718C21.1017 36.936 18.3999 33.1001 15.6981 29.2642C15.2995 28.6961 14.8866 28.1344 14.488 27.5663C14.0266 26.9148 13.6692 26.2084 13.3977 25.4638C13.045 24.4982 12.8583 23.5016 12.8338 22.4842C12.8216 22.0526 12.8341 21.6186 12.9022 21.1941C12.9362 20.9818 12.9639 20.7553 12.9979 20.543C13.0589 20.1988 13.1366 19.8729 13.2429 19.5342C13.396 19.0119 13.5968 18.5197 13.8429 18.0331C14.0152 17.7079 14.2081 17.3906 14.4011 17.0733C14.6464 16.6813 14.9355 16.3298 15.2453 15.9862C15.6544 15.5385 16.1032 15.1415 16.5895 14.7708C17.0066 14.4566 17.4571 14.1789 17.9124 13.9505C18.8087 13.5 19.7584 13.1886 20.7535 13.037C21.0817 12.9851 21.4123 12.9578 21.739 12.9409C22.0268 12.9328 22.3066 12.9454 22.6007 12.9515C23.1579 12.952 23.7064 13.0677 24.2486 13.1691C24.4711 13.2071 24.6739 13.2968 24.9029 13.3491C25.2598 13.4387 25.5969 13.58 25.934 13.7212C26.5526 13.9943 27.1267 14.3214 27.673 14.7209C28.3752 15.2395 28.9964 15.8455 29.5302 16.5248C29.6201 16.6305 29.6957 16.7425 29.7879 16.8728L29.8062 16.8561Z" fill="white" stroke="#C2B59B" stroke-width="4.75" stroke-linejoin="round"/>
</g>
<defs>
<clipPath id="clip0_2694_7735">
<rect width="41.2764" height="40.1694" fill="white" transform="translate(14.8535 0.313965) rotate(21.0012)"/>
</clipPath>
</defs>
</svg>
