<svg width="80" height="91" viewBox="0 0 80 91" fill="none" xmlns="http://www.w3.org/2000/svg">
<g clip-path="url(#clip0_2694_7841)">
<path d="M42.0761 14.806C42.2511 14.7154 42.3896 14.6283 42.5281 14.5413C44.5402 13.3151 46.6644 12.4824 48.9662 11.9631C50.1535 11.6999 51.3844 11.5059 52.5896 11.4248C53.5363 11.3322 54.4972 11.3852 55.4582 11.4382C56.8632 11.5213 58.2496 11.79 59.5739 12.1751C60.4798 12.4173 61.3565 12.7359 62.2367 13.0909C63.5388 13.6252 64.7823 14.3122 65.9602 15.0792C67.5742 16.1712 69.0204 17.4266 70.2659 18.8854C71.5914 20.4099 72.6726 22.0686 73.5133 23.8979C74.2091 25.3737 74.7264 26.9038 75.0688 28.5245C75.4654 30.3237 75.6071 32.1478 75.5339 34.0298C75.4623 35.1763 75.3871 36.2865 75.0899 37.3816C74.9027 38.0984 74.7519 38.8116 74.5647 39.5283C74.2089 40.7762 73.7367 41.962 73.1118 43.0892C72.7719 43.7473 72.3955 44.4091 71.9791 45.038C71.6285 45.5869 71.2014 46.1066 70.778 46.6627C69.8724 47.9276 68.7235 48.959 67.5346 49.9576C66.3785 50.9161 65.0954 51.7034 63.8159 52.527C62.5035 53.3906 61.1876 54.2178 59.908 55.0414C53.3718 59.2466 46.7992 63.4554 40.2629 67.6606C38.2215 68.9632 36.1801 70.2657 34.1423 71.6046C33.6246 71.9494 33.0998 72.2213 32.4951 72.4275C31.4241 72.7528 30.361 72.7833 29.3059 72.5189C27.7596 72.1188 26.5746 71.279 25.7074 69.9302C19.8079 60.7292 13.9083 51.5283 7.97228 42.3308C7.10511 40.982 6.19797 39.6004 5.33081 38.2516C4.33303 36.695 3.57945 35.0043 3.00436 33.2593C2.33587 30.9353 1.99863 28.6156 2.02196 26.2239C2.03501 25.2301 2.11731 24.1928 2.31598 23.2176C2.41532 22.73 2.51109 22.206 2.61042 21.7184C2.79049 20.9288 3.01054 20.1721 3.26699 19.4118C3.66632 18.2332 4.17844 17.0802 4.80692 15.9895C5.249 15.2478 5.73105 14.5389 6.20953 13.7937C6.81942 12.8885 7.51637 12.1219 8.28615 11.3481C9.28944 10.331 10.3798 9.45234 11.5501 8.6394C12.549 7.95351 13.6315 7.36972 14.7211 6.85876C16.8274 5.84396 19.0821 5.219 21.4125 4.991C22.1771 4.91619 22.9417 4.84138 23.7171 4.8758C24.3796 4.8845 25.0457 4.92961 25.7118 4.97472C27.004 5.03209 28.2847 5.34791 29.5255 5.63088C30.0531 5.76306 30.515 5.97519 31.0061 6.11094C31.8392 6.36027 32.6102 6.72596 33.3812 7.09164C34.8068 7.76089 36.1046 8.62644 37.3402 9.60835C38.9356 10.8859 40.2904 12.334 41.4809 13.982C41.655 14.2591 41.8256 14.4997 42.0397 14.8096L42.0761 14.806Z" fill="#069457"/>
</g>
<defs>
<clipPath id="clip0_2694_7841">
<rect width="72.7683" height="68.2683" fill="white" transform="translate(0 7.08569) rotate(-5.58794)"/>
</clipPath>
</defs>
</svg>
