<svg width="63" height="62" viewBox="0 0 63 62" fill="none" xmlns="http://www.w3.org/2000/svg">
<g clip-path="url(#clip0_2694_7763)">
<path d="M34.9177 17.1263C35.0215 17.0683 35.1056 17.019 35.1898 16.9698C36.3327 16.2017 37.572 15.6499 38.9043 15.2807C39.5973 15.09 40.3165 14.9584 41.0335 14.8749C41.5954 14.8133 42.1551 14.7998 42.718 14.8202C43.5412 14.8427 44.36 14.9613 45.1713 15.1423C45.7157 15.2534 46.2384 15.4214 46.7501 15.6179C47.5319 15.918 48.2776 16.2695 48.9906 16.7063C49.9716 17.2949 50.8498 18.0235 51.6276 18.8439C52.4371 19.7092 53.1122 20.6697 53.6725 21.7165C54.1256 22.5755 54.4662 23.4727 54.6996 24.3941C54.9801 25.4477 55.1196 26.5288 55.1094 27.6176C55.0989 28.2822 55.0687 28.9556 54.9478 29.6105C54.8661 30.0358 54.7843 30.461 54.6884 30.8809C54.5151 31.6298 54.2619 32.3318 53.9322 33.0207C53.7455 33.422 53.5446 33.8178 53.3153 34.2027C53.1166 34.5505 52.8665 34.8622 52.659 35.1903C52.1522 35.958 51.511 36.6088 50.838 37.2149C50.1846 37.8121 49.4394 38.3089 48.7084 38.8111C47.9665 39.3418 47.2104 39.867 46.4685 40.3976C42.7108 43.0487 38.9586 45.6856 35.1867 48.3312C34.0219 49.1562 32.8429 49.9757 31.6782 50.8007C31.3843 51.014 31.0728 51.188 30.7296 51.3172C30.1078 51.5352 29.4836 51.5891 28.8484 51.4595C27.9268 51.2687 27.1962 50.7926 26.6623 50.0168C22.9466 44.7414 19.2309 39.466 15.5152 34.1907C14.9671 33.4094 14.3992 32.6369 13.8511 31.8556C13.2165 30.9597 12.725 29.9882 12.3516 28.9641C11.8665 27.6362 11.6098 26.2656 11.5761 24.8664C11.5594 24.2728 11.5765 23.6759 11.6701 23.0921C11.7169 22.8002 11.755 22.4887 11.8018 22.1968C11.8857 21.7234 11.9925 21.2751 12.1387 20.8093C12.3493 20.091 12.6254 19.4142 12.9638 18.7449C13.2008 18.2977 13.4661 17.8614 13.7315 17.425C14.0689 16.8859 14.4665 16.4025 14.8926 15.9299C15.4551 15.3141 16.0724 14.7683 16.7411 14.2584C17.3147 13.8263 17.9343 13.4444 18.5605 13.1302C19.7932 12.5107 21.0992 12.0825 22.4677 11.8739C22.9191 11.8026 23.3739 11.7651 23.8231 11.7419C24.2189 11.7307 24.6037 11.7479 25.0081 11.7564C25.7744 11.757 26.5288 11.9162 27.2744 12.0556C27.5805 12.1079 27.8594 12.2312 28.1742 12.3032C28.6651 12.4264 29.1288 12.6207 29.5924 12.815C30.4431 13.1905 31.2326 13.6404 31.984 14.1897C32.9497 14.903 33.804 15.7365 34.5381 16.6707C34.6617 16.816 34.7656 16.97 34.8925 17.1492L34.9177 17.1263Z" fill="white" stroke="#069457" stroke-width="6.09034" stroke-linejoin="round"/>
</g>
<defs>
<clipPath id="clip0_2694_7763">
<rect width="49.5601" height="46.0125" fill="white" transform="translate(16.5479 0.745117) rotate(21.0012)"/>
</clipPath>
</defs>
</svg>
