<svg width="17" height="16" viewBox="0 0 17 16" fill="none" xmlns="http://www.w3.org/2000/svg">
<path d="M8.5077 2.23764C8.5077 2.23764 8.57169 2.18164 8.59569 2.15764C8.96369 1.80564 9.3877 1.52564 9.8437 1.30164C10.0837 1.18964 10.3397 1.09364 10.5957 1.02164C10.7957 0.96564 11.0037 0.92564 11.2117 0.893639C11.5157 0.84564 11.8197 0.845639 12.1317 0.853638C12.3317 0.861639 12.5397 0.885639 12.7397 0.925639C13.0437 0.981638 13.3397 1.06164 13.6277 1.18164C14.0197 1.33364 14.3877 1.54164 14.7237 1.79764C15.0757 2.06164 15.3877 2.36564 15.6517 2.71764C15.8677 2.99764 16.0517 3.30964 16.1957 3.62964C16.3637 3.99764 16.4837 4.38164 16.5477 4.78164C16.5877 5.02964 16.6197 5.26964 16.6117 5.51764C16.6117 5.67764 16.6117 5.83764 16.5957 5.99764C16.5797 6.27764 16.5317 6.55764 16.4517 6.82964C16.4117 6.98964 16.3557 7.14164 16.2997 7.30164C16.2517 7.43764 16.1797 7.56564 16.1237 7.70164C15.9877 8.01364 15.7957 8.29364 15.5877 8.55764C15.3877 8.82164 15.1477 9.04564 14.9157 9.27764C14.6757 9.51764 14.4357 9.75764 14.1957 9.99764C12.9877 11.2056 11.7877 12.4056 10.5797 13.6136C10.2037 13.9896 9.8277 14.3656 9.4517 14.7336C9.3557 14.8296 9.2597 14.9176 9.1397 14.9816C8.9317 15.1016 8.6997 15.1576 8.4597 15.1496C8.1157 15.1416 7.8197 15.0056 7.5717 14.7656C5.8837 13.0776 4.1877 11.3816 2.4997 9.69364C2.2517 9.44564 1.9957 9.19764 1.7477 8.94164C1.4597 8.65364 1.21969 8.33364 1.01969 7.98164C0.755695 7.52564 0.579695 7.04564 0.475695 6.53364C0.435695 6.31764 0.403695 6.10164 0.395695 5.87764C0.395695 5.76564 0.395695 5.65364 0.387695 5.54164C0.387695 5.36564 0.403695 5.18964 0.419695 5.01364C0.451695 4.74164 0.507695 4.46964 0.587695 4.20564C0.643695 4.02964 0.715695 3.85364 0.787695 3.67764C0.875695 3.46164 0.987695 3.25364 1.11569 3.06164C1.28369 2.79764 1.47569 2.55764 1.68369 2.33364C1.86769 2.14164 2.06769 1.96564 2.27569 1.80564C2.68369 1.50164 3.1317 1.26164 3.6197 1.10164C3.7797 1.04564 3.93969 1.00564 4.10769 0.96564C4.25169 0.93364 4.39569 0.91764 4.53969 0.893639C4.81969 0.84564 5.10769 0.853639 5.38769 0.861639C5.49969 0.861639 5.6117 0.88564 5.7317 0.893639C5.9157 0.90964 6.0997 0.949639 6.2837 0.989639C6.6197 1.06964 6.9397 1.18964 7.2437 1.34164C7.6437 1.54164 8.00369 1.78964 8.33169 2.08564C8.3797 2.13364 8.4357 2.18164 8.49169 2.23764L8.5077 2.23764Z" fill="white"/>
</svg>
