<svg width="117" height="118" viewBox="0 0 117 118" fill="none" xmlns="http://www.w3.org/2000/svg">
<path d="M0.83018 102.289C1.00716 102.369 1.20022 102.257 1.36111 102.16C3.80658 100.648 6.17161 98.7654 8.23096 96.7544C15.2778 89.8523 19.2839 80.1991 20.7962 70.5942C23.4186 53.9264 16.6936 49.9364 16.0339 47.1692C15.9374 46.7669 15.857 46.3808 15.7765 45.9786C15.8248 45.4959 15.5513 44.4823 15.3421 43.4044C24.4161 51.4487 26.1376 51.5613 29.8219 54.6986C30.4333 58.0129 36.2091 62.019 39.6521 62.4534C39.7325 62.8234 39.6521 62.6786 39.7808 63.0165C38.1237 63.1774 36.4665 63.7244 34.8899 64.738C18.7368 75.0347 25.1884 99.6021 38.0915 109.609C44.897 114.886 53.794 112.553 57.7357 102.595C63.7529 111.556 74.114 120.276 85.5852 116.656C85.7139 116.608 85.8748 116.543 85.8909 116.399C85.907 116.27 85.7943 116.157 85.6978 116.061C82.3675 113.229 79.5198 109.867 76.8169 106.408C71.1376 99.1194 67.0993 91.1555 64.3964 82.355C63.4794 79.3786 62.6428 76.354 61.3879 73.4902C60.7765 72.0905 60.0525 70.7229 59.2159 69.4519C58.7654 68.7601 56.9635 65.655 56.1108 65.5906C57.5266 65.6872 65.8605 65.8159 66.134 65.108C66.2627 65.2045 66.3753 65.3011 66.5041 65.3976C61.597 71.9618 65.6996 82.0172 69.5609 88.0826C74.3553 95.5799 82.5123 100.197 90.9266 102.514C129.459 113.133 114.802 62.9038 86.0196 59.4609C85.9391 59.4287 85.8587 59.3965 85.7782 59.3643C96.8955 57.5785 108.351 52.9128 116.411 44.8685C116.765 44.5145 116.427 44.0158 116.041 43.8549C107.916 40.4924 98.0378 39.6558 79.0693 45.2546C78.9406 45.0776 78.7797 44.9007 78.6832 44.7559C78.651 44.6915 78.6027 44.6593 78.5384 44.6432C72.5051 36.5828 56.9152 27.9432 42.3872 33.4455C44.897 25.8356 45.9106 17.5499 44.5591 9.60215C44.1408 7.15668 43.2077 4.72729 43.1755 2.23355C43.1755 1.3165 42.725 0.479889 41.7758 1.01081C41.2127 1.3165 40.6174 1.83134 40.0865 2.21746C39.1534 2.90927 38.365 3.76197 37.7215 4.69512C36.2252 6.86708 35.4047 9.44127 34.7611 11.9672C33.0879 18.5635 32.4766 25.369 30.7068 31.9332C28.0522 41.7151 24.5448 45.5925 24.2553 46.3647C24.3357 46.1556 21.6006 44.2249 21.3754 44.048C15.7444 39.4949 12.2692 35.6979 7.21738 27.4606C5.94637 25.4012 4.93278 22.7948 3.50089 23.551C1.89202 24.3876 1.15195 25.916 2.13336 27.5571C4.03182 30.7587 2.50339 29.9382 10.6764 39.334C11.2878 40.0258 12.4944 41.7151 12.9127 45.319C13.0415 46.413 12.591 47.0083 12.0118 47.877C11.2395 49.0193 10.8051 50.5478 10.4512 51.867C9.66284 54.8595 9.46978 57.9968 9.30889 61.0697C8.92277 68.5188 8.40793 75.8713 6.46121 83.1112C5.57633 86.4094 4.22488 89.5306 2.88953 92.6518C1.61852 95.5799 1.20021 98.4276 0.685376 101.581C0.63711 101.838 0.637115 102.176 0.878444 102.273L0.83018 102.289ZM39.9578 36.5828C39.9578 36.5828 39.9417 36.5828 39.9256 36.5828V36.6311C39.1051 38.5939 37.818 41.0233 36.3378 42.7448C34.0532 45.4155 31.2538 46.7348 28.1326 47.1852C40.6013 37.1781 40.8266 19.4162 41.1001 8.5403C39.9256 20.6068 38.7029 38.8191 25.3171 47.3622C25.2849 47.3622 25.2688 47.3622 25.2367 47.3622C25.1884 47.3139 25.1562 47.2818 25.1079 47.2335C25.1884 47.2013 25.2688 47.137 25.3493 47.0565C36.8205 34.5396 31.0286 10.4549 41.9045 2.08875C41.9045 2.08875 43.7869 12.7073 43.8834 15.7641C44.0765 21.9582 42.6607 30.2439 39.9578 36.5667V36.5828ZM77.4282 45.7694C77.3156 45.512 60.5512 51.4809 58.685 52.044C54.9685 53.138 51.2037 54.039 47.3746 54.5699C38.9603 55.7122 34.9703 53.8781 31.4469 51.7544C31.3825 51.5613 31.3021 51.3683 31.2216 51.1591C32.927 50.0651 34.3589 49.2929 35.3725 48.7619C36.4183 48.2149 37.0136 47.9092 37.0136 47.9092C37.0136 47.9092 36.3378 47.8771 35.1312 48.0862C34.1015 48.2632 32.6535 48.6654 31.0447 49.5342C31.0768 49.325 31.1251 49.132 31.1895 48.9389C34.7129 46.6704 37.9467 45.5925 40.1991 44.9811C41.3575 44.6754 42.2745 44.4984 42.902 44.3858C43.5295 44.2732 43.8512 44.2249 43.8512 44.2249C43.8512 44.2249 43.5134 44.2088 42.8859 44.1606C42.2424 44.1606 41.2931 44.1445 40.0704 44.2732C38.8638 44.4019 37.3514 44.6754 35.646 45.2063C36.6435 44.3375 37.5123 43.34 38.2846 42.246C41.0518 40.9911 43.449 40.3476 45.1383 39.9614C46.0393 39.7523 46.7472 39.6397 47.2138 39.5431C47.6964 39.4627 47.9377 39.4144 47.9377 39.4144C47.9377 39.4144 47.6803 39.3822 47.1977 39.3179C46.715 39.2696 45.991 39.2214 45.0418 39.2374C43.6582 39.2696 41.7758 39.4788 39.5877 40.1545C39.9739 39.4627 40.3278 38.7226 40.6818 37.9664C46.7794 36.0197 52.0243 36.1162 55.5155 36.4702C57.3013 36.6633 58.6689 36.9368 59.602 37.1298C60.5191 37.339 61.0017 37.4516 61.0017 37.4516C61.0017 37.4516 60.5512 37.2585 59.6664 36.9207C58.7654 36.5989 57.43 36.1484 55.6281 35.7623C53.8262 35.3923 51.5738 35.0866 48.9031 35.1348C46.6507 35.167 44.1247 35.4727 41.4218 36.1806C41.5023 35.9715 41.5827 35.7784 41.6632 35.5692C57.2853 28.5707 75.0793 40.2028 77.4282 45.7855V45.7694ZM43.1594 61.0376C42.9181 60.201 42.8859 59.5091 42.8377 58.7852C43.2238 58.8817 43.6099 58.9621 43.996 59.0426C44.6557 59.1874 45.3314 59.3804 46.0071 59.4448C45.6532 60.2653 45.444 61.1019 45.2831 61.7937C44.5752 61.5685 43.8673 61.3272 43.1594 61.0536V61.0376ZM45.0096 63.483C45.0096 63.483 45.0096 63.6278 45.0096 63.6922C44.6878 63.5796 44.3821 63.4991 44.0604 63.4026C44.0282 63.3061 43.996 63.2095 43.9638 63.113C44.3178 63.2417 44.6878 63.3704 45.0257 63.483H45.0096ZM46.715 60.5549C47.0368 62.3086 47.5999 63.8692 48.2595 65.1884C47.5999 64.8023 46.9242 64.4484 46.2324 64.1588C46.4415 62.6143 46.1197 63.3543 46.715 59.9596C46.715 60.1527 46.7311 60.3457 46.7633 60.5388H46.715V60.5549ZM82.8984 58.6725C81.6595 58.5116 80.4046 58.5116 79.1497 58.6404C81.3378 58.2864 83.2845 57.8842 84.9416 57.4981C87.5319 56.8867 89.4947 56.2753 90.814 55.8409C92.1172 55.3904 92.809 55.1491 92.809 55.1491C92.809 55.1491 92.1011 55.31 90.7657 55.6157C89.4143 55.9053 87.4193 56.3397 84.7968 56.7741C82.464 57.1602 79.6324 57.5463 76.3664 57.8198C88.1272 56.034 98.7779 52.2371 109.219 46.5417C109.219 46.4934 109.187 46.4291 109.203 46.3808C89.2534 56.034 68.676 59.9757 46.0554 56.2753C69.2391 53.8138 92.2298 36.3415 114.786 44.7237C105.905 53.0576 94.9327 57.1763 82.8984 58.6725ZM47.8251 57.7555C51.6542 58.3508 55.8212 58.2864 59.5377 59.4287C59.7146 59.477 59.6664 59.7183 59.4894 59.7183C55.6442 59.4287 51.4612 59.3161 47.7447 58.2703C47.4229 58.1738 47.5034 57.7072 47.8412 57.7555H47.8251ZM64.2838 60.024C64.7021 60.0562 65.1526 60.0722 65.4422 60.1044C66.1662 60.1849 66.9063 60.1688 67.6302 60.201C69.4644 60.2653 71.2985 60.3136 73.1326 60.3136C72.0224 60.8284 71.025 61.7133 69.947 62.1799C68.9173 62.6303 67.8072 61.9546 66.9063 61.5363C65.7318 60.9732 64.5573 60.4101 63.3828 59.847C63.5759 59.9435 63.9138 59.9918 64.2838 60.024ZM64.316 62.566C63.5276 62.1477 62.7232 61.6007 61.9027 61.0858C62.0314 61.118 62.1601 61.1502 62.2888 61.1663C63.962 62.2442 65.7479 62.8556 67.6463 63.3543C68.5151 63.5796 69.0782 63.8853 69.9792 63.5152C70.7193 63.2095 71.395 62.6303 72.0868 62.2925C75.2563 60.7319 78.7958 59.9757 82.3192 60.201C87.6928 60.5549 93.1147 63.3061 97.5551 66.2181C101.256 68.6475 104.602 71.6561 107.224 75.2278C111.118 80.5048 113.885 87.5999 112.276 94.2124C110.909 99.8916 106.098 103.125 100.338 102.772C72.4407 101.066 60.9535 76.5631 67.5659 66.2503C67.6302 66.2985 67.6946 66.3468 67.7429 66.379C67.2602 67.2639 67.9198 68.5349 71.1537 63.2578C71.7168 62.3407 68.6921 65.0115 67.952 66.025C67.9038 65.9607 67.8555 65.9124 67.8072 65.8481C68.0486 65.3493 67.759 64.8506 67.2602 64.3679C66.3753 63.5474 64.8147 62.8395 64.2999 62.566H64.316ZM54.0032 63.6922C53.4079 63.2256 52.7965 62.7751 52.1369 62.3729C53.1987 62.566 54.1319 62.5821 54.8719 62.5338C55.6442 62.4855 56.2395 62.3568 56.6256 62.2603C57.0117 62.1477 57.2048 62.0833 57.2048 62.0833C57.2048 62.0833 56.9957 62.0672 56.6095 62.0351C56.2073 62.0029 55.6442 61.9385 54.9041 61.8098C53.601 61.5846 51.7668 61.118 49.7719 60.0401C51.3003 60.2653 52.8287 60.4423 54.3571 60.6193C56.2234 60.8284 58.1379 61.1984 60.0364 61.2145C61.2913 61.7455 62.5462 62.4534 64.2195 63.6761C60.8087 64.0301 57.3818 64.0461 53.9871 63.6761L54.0032 63.6922ZM58.3954 100.809C58.878 99.3285 59.2642 97.768 59.5377 96.1752C60.7282 98.3793 61.951 100.053 62.9163 101.227C63.592 102.048 64.1712 102.643 64.5573 103.045C64.9595 103.431 65.1687 103.624 65.1687 103.624C65.1687 103.624 64.9917 103.399 64.6539 102.948C64.3321 102.498 63.8494 101.838 63.2541 100.953C62.2888 99.4894 61.0178 97.3979 59.7629 94.695C59.8755 93.8906 59.9721 93.0701 60.0203 92.2495C65.6031 104.059 68.5956 106.987 78.9728 114.339C68.5795 105.603 65.6835 101.967 60.2616 89.1123L60.1973 89.1444C60.2777 88.3078 60.2938 87.4551 60.2295 86.6185C60.8569 88.0182 61.4683 89.1766 61.9831 90.0776C62.8841 91.6703 63.4794 92.4587 63.4794 92.4587C63.4794 92.4587 63.0932 91.5416 62.3853 89.8845C61.7579 88.3883 60.9052 86.2806 59.972 83.626C59.9399 83.3686 59.8916 83.1112 59.8433 82.8377C61.5487 85.3958 62.691 86.7472 62.691 86.7472C62.691 86.7472 61.6131 84.1891 59.2159 80.1831C57.7357 75.0669 54.6145 69.6933 49.8684 66.2664C49.3375 64.9632 48.9352 61.3432 47.7286 60.5388C49.5466 61.7455 51.5255 63.0004 53.0861 64.5127C54.6789 66.0572 56.0786 67.7948 57.2692 69.6772C59.6503 73.4258 61.2109 77.6089 62.5623 81.8241C64.2516 87.069 66.1179 92.2174 68.7565 97.044C70.5101 100.23 72.5212 103.27 74.7414 106.15C76.0607 107.872 77.4443 109.545 78.8923 111.154C79.4715 111.797 83.0753 116.431 83.7672 116.27C75.1758 118.297 62.9645 108.66 58.3471 100.793L58.3954 100.809ZM54.8719 73.6028C55.9338 75.453 56.7543 77.3675 57.2692 79.443C58.2828 83.5295 58.2345 87.8091 57.9127 91.976C57.5266 96.7705 56.883 102.578 53.8745 106.536C45.1061 118.024 33.7958 104.348 29.8219 95.9499C27.3764 90.7694 26.379 84.8488 27.3925 79.1695C28.4222 73.3615 31.8169 67.1191 37.8019 65.285C44.35 63.29 51.7025 68.0361 54.888 73.6189L54.8719 73.6028ZM32.6696 56.4523C33.4419 56.7419 38.1398 58.4473 39.0246 58.3829C38.9603 58.7369 39.2338 59.9918 39.2016 60.3779C37.4479 60.1688 33.8441 58.4795 32.6696 56.4523ZM24.8344 49.8238C27.4408 51.3361 29.8219 53.0737 32.6374 54.2482C35.3564 55.3904 38.2846 55.9696 41.2288 56.1466C42.2745 56.211 43.3525 56.1466 44.3822 56.3075C44.5109 56.3236 44.527 56.5167 44.3983 56.5649C43.7386 56.7902 42.9985 56.9189 42.2263 56.9671C41.9045 58.5116 41.3575 62.9682 42.4354 63.113C41.9689 63.0486 41.5023 63.0165 41.0357 63.0165C40.8909 62.2442 40.3278 58.4151 40.1508 57.2567C40.183 57.4337 37.6088 56.7258 37.4158 56.6775C36.5792 56.4684 35.7747 56.404 34.9542 56.1144C33.2488 55.5192 31.6239 54.7147 30.1276 53.6851C29.0658 53.138 28.0361 52.5267 27.0547 51.8349C26.5881 51.5131 26.0894 51.2074 25.655 50.8695C25.4136 50.6926 25.2045 50.2743 25.0114 50.0168C24.9471 49.9364 24.8827 49.856 24.8184 49.8238H24.8344ZM1.65069 100.857C2.35859 97.8001 3.08258 94.518 4.53056 91.7186C5.49588 89.8684 6.07508 87.6965 6.68645 85.7176C7.78048 82.2263 8.601 78.6546 9.14801 75.0347C9.5824 72.2031 11.1108 52.8967 11.143 52.7358C12.5266 46.4612 14.232 47.3461 14.232 47.3461C17.0636 64.6736 12.8967 80.8749 4.69146 96.7222C5.31892 95.4995 20.0722 71.286 15.1652 47.3139C15.1652 47.2979 13.9746 45.1259 13.3311 41.522C12.9449 39.3501 4.98104 31.1449 2.9217 27.2192C2.50339 26.4309 2.24598 25.7391 3.13086 25.0955C5.14194 23.6315 5.60851 27.7823 7.24955 30.2117C14.4251 40.798 18.8173 43.0505 23.4669 47.5714C23.3382 47.8288 23.1934 48.0701 23.0647 48.3275C22.5016 47.9736 22.1155 47.5392 21.6006 47.137C21.3271 46.9278 19.8309 46.1073 19.7987 45.8016C14.2964 41.6668 13.8137 40.3637 14.9077 45.1902C15.2295 46.6382 15.31 47.8449 15.9857 49.1641C16.4844 50.1295 16.8223 51.2074 17.1602 52.2371C17.9163 54.4251 18.576 56.6775 18.8656 58.9782C21.9385 83.3525 5.28673 99.3929 1.61852 100.841L1.65069 100.857Z" fill="#F3F0EB"/>
<path d="M81.4345 92.9572C83.172 94.0994 85.1831 95.2256 87.4999 96.2392C89.8166 97.2528 91.9725 97.9929 93.9353 98.4916C95.8982 98.9904 97.684 99.3604 99.2446 99.4891C102.382 99.7948 104.65 99.1835 106.114 98.3951C107.595 97.6068 108.319 96.7702 108.737 96.2875C108.946 96.0301 109.075 95.8531 109.155 95.7405C109.236 95.6279 109.268 95.5796 109.268 95.5796C109.268 95.5796 109.236 95.66 109.171 95.8209C109.107 95.9979 108.994 96.2553 108.785 96.5932C108.383 97.2689 107.579 98.3468 105.905 99.3122C105.069 99.7787 104.023 100.213 102.752 100.438C101.481 100.68 100.017 100.744 98.3919 100.599C97.5875 100.519 96.7187 100.422 95.8338 100.245C94.9489 100.068 93.9997 99.9074 93.0344 99.6339C91.0877 99.1513 88.98 98.4273 86.7437 97.4459C84.3626 96.384 82.3032 95.2096 80.5496 93.9868C79.6486 93.4076 78.8764 92.7641 78.1041 92.1849C77.364 91.5735 76.6722 90.9943 76.0448 90.4151C73.551 88.0823 71.9261 86.039 70.832 84.4302C69.738 82.8213 69.1266 81.6951 68.7727 80.9711C68.4187 80.2471 68.29 79.9575 68.29 79.9575C68.29 79.9575 68.4992 80.2149 68.9658 80.8746C69.4323 81.5342 70.1885 82.58 71.4273 84.0601C72.6501 85.5403 74.3876 87.4387 76.9136 89.6107C78.2006 90.6726 79.6647 91.8309 81.4184 92.9572H81.4345Z" fill="#F3F0EB"/>
<path d="M106.082 78.832C105.888 78.5424 105.695 78.2046 105.438 77.8667C105.197 77.5288 104.923 77.1749 104.634 76.8049C104.103 76.0165 103.346 75.2282 102.574 74.295C100.917 72.5092 98.7451 70.4338 95.7043 68.4066C92.4544 66.2346 89.5102 64.9958 87.0969 64.1753C84.6675 63.3869 82.753 62.9204 81.2889 62.6951C79.8409 62.4055 78.8434 62.3251 78.2321 62.2285C77.6207 62.1481 77.3633 62.0837 77.3633 62.0837C77.3633 62.0837 77.6207 62.0516 78.2481 62.0033C78.5699 61.9872 78.9721 61.955 79.5031 61.9389C80.034 61.9068 80.6614 61.9711 81.4176 62.0033C82.9299 62.0837 84.9571 62.3733 87.5313 63.0812C90.0894 63.8052 93.2106 65.0601 96.6053 67.3286C99.9839 69.6132 102.252 71.9944 103.845 73.9893C104.231 74.5042 104.585 74.9868 104.923 75.4212C105.229 75.8878 105.502 76.3383 105.76 76.7405C106.291 77.5449 106.629 78.285 106.934 78.8964C107.079 79.2021 107.208 79.4917 107.336 79.733C107.449 79.9904 107.529 80.2317 107.61 80.4409C107.755 80.8592 107.867 81.1971 107.948 81.4384C108.109 81.9371 108.125 82.1141 108.125 82.1141C108.125 82.1141 107.98 81.905 107.658 81.374C107.336 80.8431 106.886 79.9904 106.082 78.8159V78.832Z" fill="#F3F0EB"/>
<path d="M81.5468 87.8898C82.2547 88.4368 83.2361 89.1608 84.5232 90.0296C85.8264 90.8984 87.4675 91.912 89.6073 92.9255C93.9029 94.9366 96.638 95.5802 98.1825 96.0789C98.9548 96.3363 99.4535 96.4651 99.7592 96.5777C100.065 96.6903 100.161 96.7546 100.161 96.7546C100.161 96.7546 100.001 96.7707 99.6305 96.7868C99.2605 96.7868 98.6491 96.8029 97.7803 96.7064C96.0427 96.5294 93.0824 96.1111 88.9315 94.1322C86.7113 93.0703 85.0542 91.9441 83.7993 90.9306C82.5443 89.917 81.6755 89.0643 81.0642 88.3725C80.4528 87.6967 80.0989 87.1819 79.8897 86.8601C79.6806 86.5384 79.6162 86.3936 79.6162 86.3936C79.6162 86.3936 79.7449 86.474 80.0667 86.6992C80.3724 86.9406 80.855 87.3106 81.579 87.8576L81.5468 87.8898Z" fill="#F3F0EB"/>
<path d="M32.0261 73.1683C31.8009 73.828 31.4791 74.5841 31.2539 75.5495C30.7068 77.4318 30.1598 80.0221 30.1277 83.3846C30.1759 85.0739 30.2242 86.9563 30.6425 88.9996C31.0286 91.0428 31.6239 93.2792 32.6858 95.5798C33.7959 98.0414 35.1473 100.085 36.547 101.774C37.9628 103.463 39.4108 104.815 40.8749 105.764C42.3229 106.713 43.7708 107.244 45.074 107.421C46.3611 107.582 47.5195 107.373 48.4526 107.051C50.3189 106.375 51.236 105.265 51.6865 104.573C51.9117 104.219 52.0404 103.946 52.1048 103.753C52.1852 103.576 52.2174 103.495 52.2174 103.495C52.2174 103.495 52.2013 103.576 52.1691 103.769C52.1369 103.962 52.0565 104.268 51.8795 104.67C51.5256 105.458 50.689 106.794 48.6779 107.711C47.6804 108.145 46.4094 108.483 44.897 108.354C43.4169 108.242 41.7598 107.695 40.1509 106.697C38.5259 105.716 36.9493 104.284 35.4208 102.53C33.9246 100.744 32.4766 98.5723 31.3343 95.966C30.192 93.3596 29.5324 90.8659 29.2267 88.6134C29.1784 88.3239 29.1463 88.0503 29.098 87.7768C29.0819 87.5033 29.0497 87.2298 29.0336 86.9563C29.0015 86.4254 28.9371 85.8945 28.921 85.3957C28.9371 84.3821 28.8727 83.4329 28.9854 82.548C29.2589 78.9924 30.0633 76.4504 30.7712 74.6968C31.1413 73.8119 31.5113 73.1362 31.7848 72.5731C32.0905 72.0261 32.364 71.6238 32.5571 71.3342C32.9593 70.739 33.1041 70.5459 33.1041 70.5459C33.1041 70.5459 32.9593 70.8677 32.6375 71.656C32.4766 72.0421 32.2192 72.5248 32.01 73.1844L32.0261 73.1683Z" fill="#F3F0EB"/>
<path d="M44.8326 68.2771C44.3017 67.9714 43.8673 67.714 43.4812 67.5531C43.1111 67.3601 42.8215 67.2313 42.6124 67.1348C42.178 66.9417 42.0332 66.8452 42.0332 66.8452C42.0332 66.8452 42.2745 66.8774 42.8376 66.9739C43.4007 67.0705 44.3017 67.3118 45.5566 67.8749C46.7954 68.4541 48.3721 69.4355 50.0614 71.1248C51.7025 72.8302 53.4561 75.2757 54.6145 78.6865C55.8212 82.3225 55.9821 85.4598 55.9499 87.9213C55.9016 90.399 55.6442 92.2653 55.4029 93.6489C55.1615 95.0325 54.9363 95.9335 54.7915 96.5127C54.6306 97.0758 54.5502 97.301 54.5502 97.301C54.5502 97.301 54.5502 97.0597 54.5663 96.4644C54.5984 95.8691 54.6467 94.936 54.7111 93.5363C54.7593 92.1366 54.8559 90.2703 54.7593 87.857C54.6467 85.4437 54.4054 82.4351 53.2309 79.0082C52.0403 75.5974 50.3349 73.2002 48.8065 71.5431C47.2781 69.8699 45.8623 68.9207 44.8165 68.2771H44.8326Z" fill="#F3F0EB"/>
<path d="M45.7817 104.655C46.1517 104.751 46.2965 104.815 46.2965 104.815C46.2965 104.815 46.1356 104.848 45.7495 104.864C45.3634 104.864 44.7198 104.864 43.7867 104.606C42.8696 104.349 41.6791 103.802 40.3759 102.74C39.0727 101.694 37.7052 100.134 36.3377 98.0582C34.9701 95.9828 34.1174 94.1969 33.5221 92.7651C32.943 91.3171 32.6212 90.207 32.4281 89.4025C32.2351 88.582 32.1707 88.0511 32.1546 87.7293C32.1385 87.4075 32.1546 87.2949 32.1546 87.2949C32.1546 87.2949 32.235 87.4397 32.3959 87.7776C32.5568 88.1154 32.8142 88.6625 33.1843 89.4508C33.9565 91.0114 35.0988 93.6499 37.5604 97.3825C40.1668 101.389 42.4835 103.207 44.0602 103.963C44.8325 104.365 45.4116 104.526 45.7817 104.638V104.655Z" fill="#F3F0EB"/>
<path d="M84.5712 53.4284C82.3671 54.0076 78.7149 54.9407 72.8426 55.7451C66.568 56.5657 62.6102 56.5818 60.2452 56.5818C59.0546 56.5818 58.2663 56.5335 57.7836 56.5013C57.3009 56.4691 57.0918 56.453 57.0918 56.453C57.0918 56.453 57.3009 56.453 57.7836 56.4048C58.2824 56.3726 59.0868 56.3243 60.2613 56.26C62.6424 56.0991 66.6002 55.9221 72.8587 55.0855C79.1172 54.2167 82.7532 53.4284 84.8608 53.0423C86.9684 52.624 87.5315 52.5757 87.5315 52.5757C87.5315 52.5757 87.3385 52.64 86.8719 52.7848C86.4053 52.9296 85.6652 53.1549 84.5712 53.4606V53.4284Z" fill="#F3F0EB"/>
</svg>
