<svg width="62" height="33" viewBox="0 0 62 33" fill="none" xmlns="http://www.w3.org/2000/svg">
<path d="M26.4204 16.966C27.9398 16.3833 28.363 15.9771 28.3822 14.5998C28.3822 13.3637 27.3628 10.662 26.9397 9.28464C25.5164 4.65818 22.1314 2.55685 17.4 1.02058C12.3224 -0.639301 7.3217 4.35799 3.82123 6.77717C-0.179305 9.56718 0.916994 13.505 2.16716 17.5311C2.20563 17.6723 2.45567 17.6193 2.4172 17.4781C0.859303 12.4808 3.03266 8.64895 7.24476 5.57641C9.55276 3.88122 11.6492 1.70925 14.8035 1.53267C17.1884 1.40906 17.4961 2.38026 20.208 3.61634C22.8045 4.79945 23.4777 5.73533 24.5932 8.50768C24.8048 9.01977 27.132 15.2178 25.8049 15.9418C25.0741 16.3479 25.6895 17.2662 26.4396 16.966" fill="#F3F0EB"/>
<path d="M1.62885 16.2943C0.628715 12.8862 -0.00599295 9.24864 3.72528 6.65287C4.32151 6.22907 4.97546 5.73464 5.66786 5.2049C9.01446 2.64445 13.1688 -0.534039 17.4579 0.860964C21.5353 2.20299 25.5167 4.12774 27.0938 9.23098C27.19 9.53117 27.3053 9.91965 27.4592 10.3258C27.9593 11.7914 28.5555 13.6102 28.5555 14.5991C28.5555 16.0647 28.0362 16.5062 26.4975 17.1066C26.0167 17.3008 25.5744 17.0712 25.4013 16.7534C25.2474 16.4532 25.2859 16.0471 25.7282 15.7999C26.7476 15.2348 25.132 10.2022 24.4588 8.54231C23.3433 5.80528 22.6894 4.88705 20.1506 3.7216C19.2274 3.2978 18.5734 2.90932 18.0541 2.59147C16.9963 1.95578 16.3616 1.56729 14.8421 1.65559C12.3418 1.79685 10.4954 3.24483 8.68748 4.65749C8.26435 4.993 7.82199 5.34616 7.37963 5.66401C2.82133 8.98376 1.24417 12.7803 2.55204 17.2302C2.55204 17.3008 2.5905 17.3538 2.60974 17.4244C2.6482 17.5657 2.57127 17.7069 2.39817 17.7423C2.2443 17.7776 2.0712 17.7069 2.03273 17.548C1.8981 17.1242 1.76347 16.7004 1.64807 16.2766M27.7862 12.3742C27.5939 11.7031 27.3438 10.9968 27.1515 10.3964C27.0169 9.99028 26.8822 9.6018 26.7861 9.30161C25.2474 4.33964 21.343 2.43255 17.3617 1.12584C13.2458 -0.21619 9.16832 2.90932 5.89865 5.4168C5.20625 5.94654 4.5523 6.44097 3.95607 6.86477C0.417131 9.31927 0.994144 12.8156 1.95581 16.1177C1.20571 12.0386 2.91748 8.54231 7.18728 5.4168C7.62965 5.09895 8.072 4.74578 8.49514 4.41027C10.3415 2.9623 12.2264 1.479 14.8421 1.33774C16.477 1.24945 17.1886 1.67324 18.2657 2.3266C18.8234 2.66211 19.4389 3.03293 20.3237 3.43907C22.9779 4.65749 23.651 5.59338 24.805 8.4187C24.8243 8.48933 27.4592 15.1995 25.9398 16.0471C25.6705 16.206 25.6513 16.4356 25.7474 16.5945C25.8436 16.7887 26.1129 16.93 26.4206 16.8064C27.8824 16.2413 28.267 15.8881 28.267 14.5814C28.267 14.0517 28.0747 13.2394 27.8246 12.3742" fill="#F3F0EB"/>
<path d="M25.5932 16.3646C24.2084 17.1946 22.0158 18.5542 20.9964 19.4548C20.7464 19.6844 20.2848 19.8256 20.0155 20.0729C19.6309 20.4084 19.9194 20.9558 19.6117 21.3266C17.7653 23.5162 17.3998 23.94 14.4763 23.9753C10.4373 24.0283 6.41758 21.2913 4.55194 18.0422C2.47474 14.3692 3.16712 10.7846 4.64809 7.07638C4.97505 6.2641 3.64797 5.76967 3.16714 6.476C-1.56426 13.3804 2.89786 22.5627 11.3221 24.2226C14.6302 24.8759 17.6306 24.8406 20.2463 22.6156C20.6695 22.2448 20.8041 22.0682 21.1119 21.7504C22.4967 20.373 22.3235 20.9028 23.5737 19.9669C25.2085 18.7308 26.0741 18.5542 25.9202 16.5589C25.9202 16.4176 25.7471 16.2763 25.574 16.3646" fill="#F3F0EB"/>
<path d="M1.5322 15.6936C0.589771 12.5152 1.10909 9.19541 3.05165 6.38774C3.35939 5.94629 3.93637 5.89331 4.35951 6.08755C4.72494 6.26413 5.01345 6.63496 4.82112 7.12939C3.53248 10.3432 2.53236 14.1221 4.70572 17.9892C6.66752 21.4326 10.7642 23.8871 14.4762 23.8518C17.3228 23.8164 17.6497 23.428 19.4769 21.256C19.5923 21.1147 19.6115 20.9381 19.6308 20.7262C19.6308 20.479 19.6692 20.1965 19.9193 19.9846C20.0731 19.8433 20.2655 19.7374 20.4578 19.6491C20.6309 19.5608 20.7848 19.4725 20.9002 19.3666C21.8619 18.5013 23.939 17.1946 25.5162 16.2587C25.6316 16.1881 25.747 16.1881 25.8816 16.2411C26.0163 16.294 26.1124 16.4176 26.1124 16.5589C26.247 18.2894 25.6123 18.7309 24.4583 19.5431C24.2275 19.7021 23.9775 19.8787 23.7082 20.0906C23.1889 20.479 22.9197 20.6203 22.6697 20.7439C22.3235 20.9205 22.0734 21.0441 21.2656 21.8564C21.1502 21.9623 21.0733 22.0506 20.9963 22.1389C20.8232 22.3155 20.6694 22.4744 20.4001 22.7216C17.5343 25.1761 14.207 24.9466 11.3412 24.3639C7.26375 23.5692 3.82098 20.9028 2.16691 17.2652C1.93611 16.7531 1.72455 16.2234 1.57068 15.6936M4.57108 6.68793C4.53261 6.52901 4.39798 6.42306 4.24411 6.35242C3.95561 6.22882 3.57095 6.24648 3.37862 6.54667C1.18602 9.74281 0.859048 13.5923 2.47465 17.1416C4.09025 20.6909 7.43684 23.2867 11.4181 24.0637C14.207 24.6111 17.4189 24.8583 20.1885 22.4921C20.4578 22.2625 20.6117 22.1036 20.7655 21.927C20.8425 21.8387 20.9387 21.7328 21.0541 21.6268C21.9003 20.7792 22.1888 20.638 22.5543 20.4614C22.7851 20.3378 23.0543 20.1965 23.5351 19.8257C23.8236 19.6138 24.0737 19.4372 24.3045 19.2783C25.4392 18.4837 25.9586 18.1305 25.8239 16.5589C25.8239 16.5412 25.8047 16.4883 25.7662 16.4883H25.747C23.5159 17.8303 21.9196 18.8898 21.1695 19.5608C21.0348 19.6844 20.8425 19.7904 20.6501 19.8787C20.477 19.9669 20.3039 20.0552 20.1693 20.1788C20.0154 20.3201 19.9962 20.4967 19.977 20.7262C19.977 20.9558 19.9577 21.203 19.7654 21.4149C17.8998 23.6222 17.5151 24.0813 14.4955 24.1343C10.6681 24.1873 6.4367 21.6621 4.43643 18.1128C2.20536 14.1574 3.22473 10.2902 4.5326 7.02344C4.57107 6.89983 4.59032 6.79388 4.55185 6.70559" fill="#F3F0EB"/>
<path d="M25.7294 16.4539C26.5372 15.2178 25.9409 13.9818 25.0562 12.8869C24.3446 12.0217 23.3637 11.386 22.6905 10.4854C21.5173 8.93149 22.3443 8.96681 23.1906 7.85434C23.306 7.71307 23.306 7.4482 23.1906 7.30693C22.9405 6.95376 22.6905 6.63592 22.4212 6.30041C22.3828 6.54763 22.3443 6.79484 22.3058 7.04206C23.1906 6.35338 23.0175 6.54762 23.556 5.6294C23.7676 5.27623 23.3637 4.94072 22.9982 5.09965C21.9596 5.5411 22.1904 5.39984 21.3634 6.15914C21.0941 6.40636 21.1134 6.77718 21.3634 7.0244C21.6519 7.34225 21.9404 7.64244 22.2481 7.94263C22.2481 7.67775 22.2481 7.43054 22.2481 7.16566C21.8058 7.55415 21.2865 7.83668 20.7287 8.03092C20.5171 8.11921 20.3633 8.38408 20.3633 8.59598C20.421 11.9864 24.71 12.9046 24.9408 16.242C24.96 16.5952 25.4793 16.8071 25.7101 16.4539" fill="#F3F0EB"/>
<path d="M20.3629 9.6381C20.2667 9.32025 20.209 8.96708 20.209 8.59626C20.209 8.31373 20.4205 7.99588 20.6706 7.88993C20.9783 7.78398 21.286 7.64271 21.5553 7.48379C21.4399 7.36018 21.3245 7.23657 21.2283 7.13063C20.9206 6.79512 20.9398 6.35366 21.2476 6.05347L21.4976 5.80626C21.9784 5.3648 21.9977 5.34714 22.6516 5.06461L22.9016 4.95866C23.1324 4.85271 23.4209 4.90568 23.594 5.08227C23.7671 5.25885 23.7864 5.48841 23.671 5.70031L23.5171 5.94752C23.2671 6.38898 23.1901 6.49493 22.9209 6.70683C23.0555 6.86575 23.1709 7.04233 23.2863 7.20126C23.4209 7.3955 23.4209 7.71335 23.2863 7.92525C23.0747 8.19012 22.8824 8.40202 22.6901 8.5786C22.1515 9.10835 21.9592 9.32025 22.767 10.3974C23.1132 10.8389 23.5556 11.245 23.9787 11.6158C24.3826 11.9866 24.8057 12.3575 25.1519 12.7813C25.8828 13.6995 26.7675 15.0945 25.8251 16.5248C25.6905 16.7191 25.4597 16.825 25.2289 16.772C24.9789 16.7191 24.7673 16.5072 24.7673 16.2599C24.6519 14.6707 23.6133 13.6642 22.517 12.6047C21.613 11.7394 20.709 10.8565 20.3436 9.6381M21.7669 7.71335C21.4591 7.90759 21.1322 8.06651 20.786 8.17246C20.6513 8.22544 20.5167 8.43734 20.5167 8.59626C20.5167 10.2738 21.613 11.298 22.7478 12.3928C23.8441 13.4523 24.9981 14.5294 25.0942 16.2423C25.0942 16.3659 25.2096 16.4542 25.325 16.4895C25.3827 16.4895 25.4981 16.4895 25.5751 16.3836C26.2098 15.4124 25.9982 14.3352 24.9019 12.9755C24.575 12.5694 24.171 12.1985 23.7671 11.8454C23.3248 11.4569 22.8824 11.0508 22.517 10.574C21.5938 9.35557 21.8438 9.0024 22.4593 8.38436C22.6324 8.20778 22.8247 8.01354 23.017 7.76632C23.094 7.67803 23.094 7.48379 23.017 7.3955C22.9016 7.23657 22.7862 7.07765 22.6708 6.93638C22.6708 6.93638 22.6516 6.95404 22.6324 6.9717L22.4016 7.16594V7.20126L22.3823 8.33139L22.1131 8.06651C21.9977 7.96056 21.8823 7.85461 21.7669 7.73101M23.4209 5.40011C23.4209 5.40011 23.3825 5.32948 23.3633 5.31182C23.3056 5.25885 23.1902 5.20587 23.0363 5.25885L22.7862 5.3648C22.3759 5.54138 22.0233 5.76505 21.7284 6.03581L21.4591 6.28303C21.2668 6.45961 21.2668 6.74214 21.4591 6.95404C21.5745 7.07765 21.69 7.20126 21.8054 7.32487C21.9015 7.25423 21.9977 7.1836 22.0938 7.09531V7.02467C22.1515 6.77746 22.19 6.53024 22.2285 6.28303L22.2862 5.92986L22.517 6.21239C22.5939 6.30069 22.6708 6.38898 22.7285 6.47727C22.9401 6.30069 22.9978 6.19474 23.2286 5.82391L23.3825 5.5767C23.3825 5.5767 23.4209 5.43543 23.4209 5.40011ZM22.0746 7.51911C22.0746 7.51911 22.0554 7.51911 22.0361 7.55442C22.0361 7.55442 22.0554 7.57208 22.0746 7.58974V7.53676V7.51911Z" fill="#F3F0EB"/>
<path d="M21.8238 6.38778C19.9197 6.17588 18.0541 4.69258 16.0923 5.29296C15.2652 5.54018 14.7844 6.03461 14.3035 6.68797C13.2072 8.17126 12.3802 9.56626 11.5916 11.2085C11.5339 11.3321 11.6878 11.4734 11.8032 11.3674C12.6687 10.6787 13.4188 10.1137 14.1497 9.30139C15.169 8.17126 16.1115 6.58202 17.9002 6.98816C19.3427 7.32366 20.439 8.10063 21.9777 7.90639C22.9778 7.78278 22.6701 6.47607 21.8046 6.38778" fill="#F3F0EB"/>
<path d="M11.4199 11.3503C11.4199 11.3503 11.4199 11.209 11.4392 11.1384C12.2662 9.42555 13.1125 8.03055 14.1703 6.60023C14.6704 5.92921 15.1704 5.41712 16.0359 5.15225C17.3053 4.74611 18.5363 5.20522 19.7287 5.64668C20.4211 5.8939 21.1328 6.15877 21.8252 6.24706C22.4214 6.3177 22.7676 6.81213 22.7676 7.27124C22.7676 7.69504 22.4791 8.01289 21.9983 8.06586C20.9212 8.18947 20.0749 7.88928 19.1902 7.57143C18.7671 7.41251 18.3247 7.25358 17.8631 7.14763C16.4398 6.81213 15.5935 7.85396 14.7473 8.86048C14.5934 9.05473 14.4396 9.23131 14.2857 9.40789C13.6895 10.0789 13.074 10.5733 12.4008 11.1031C12.247 11.2267 12.0931 11.3503 11.92 11.4916C11.8046 11.5799 11.6507 11.5975 11.5353 11.5092C11.4776 11.4739 11.4392 11.4209 11.4199 11.3503ZM21.7867 6.54725C21.0558 6.45896 20.3057 6.19409 19.5941 5.92921C18.4016 5.48776 17.2861 5.08162 16.1321 5.45244C15.3628 5.69966 14.9012 6.14111 14.4396 6.79447C13.4202 8.18947 12.5932 9.54916 11.7854 11.209C11.92 11.1031 12.0546 10.9971 12.1893 10.8912C12.8432 10.3614 13.4587 9.86701 14.0357 9.23131C14.1895 9.05473 14.3434 8.87814 14.4973 8.70156C15.3628 7.67738 16.3244 6.51194 17.9593 6.88276C18.4593 6.98871 18.9017 7.16529 19.344 7.32422C20.1903 7.62441 20.9981 7.9246 21.9983 7.80099C22.4406 7.74802 22.4791 7.44782 22.4791 7.30656C22.4791 6.98871 22.2291 6.61789 21.8252 6.58257" fill="#F3F0EB"/>
<path d="M7.95629 11.5086C6.91769 11.2965 5.70601 11.0314 4.66741 11.2435C4.47507 11.2789 4.49431 11.5086 4.66741 11.5793C5.64831 11.9151 6.89847 11.7914 7.93707 11.7207C8.05247 11.7207 8.11018 11.544 7.97554 11.5086" fill="#F3F0EB"/>
<path d="M4.37988 11.4917C4.37988 11.4917 4.37988 11.421 4.37988 11.3857C4.37988 11.2443 4.49528 11.1382 4.64915 11.1029C5.68775 10.8908 6.86099 11.1206 7.89959 11.3326H8.01498L7.97654 11.5094L8.01498 11.368C8.14962 11.4033 8.24578 11.4917 8.22655 11.6154C8.22655 11.7568 8.11115 11.8629 7.95729 11.8629H7.84189C6.84176 11.9512 5.61083 12.0573 4.62993 11.7215C4.51453 11.6861 4.4376 11.5978 4.39913 11.4917M7.6111 11.5801C6.66867 11.3857 5.61084 11.1912 4.70688 11.3857V11.421C5.57238 11.7038 6.6302 11.6508 7.6111 11.5801Z" fill="#F3F0EB"/>
<path d="M8.95786 11.9851C11.2659 11.6319 11.8813 14.6691 12.7468 16.0465C13.4008 17.053 14.2086 18.0065 15.2087 18.7129C16.9205 19.9313 19.6708 20.3727 21.498 19.225C21.7288 19.0837 21.6134 18.7305 21.3057 18.7835C16.6512 19.7724 14.8625 16.5056 13.093 13.2388C12.2083 11.5966 10.6119 10.2546 8.65012 11.3317C8.26546 11.5436 8.49627 12.0557 8.93864 11.9851" fill="#F3F0EB"/>
<path d="M8.34169 11.7565C8.28399 11.5446 8.38014 11.315 8.5917 11.1914C9.32257 10.7853 10.0342 10.6793 10.7459 10.8736C11.7075 11.1208 12.5923 11.9507 13.2654 13.1691C14.9772 16.33 16.7466 19.5967 21.3049 18.6255C21.4973 18.5726 21.6896 18.6609 21.7666 18.8374C21.8435 19.014 21.7665 19.2259 21.6127 19.3319C19.6124 20.5856 16.7851 20.0029 15.1311 18.8198C14.1886 18.1488 13.3423 17.2305 12.6115 16.1004C12.3999 15.7649 12.1884 15.3234 11.9768 14.8643C11.3421 13.4693 10.6112 11.8801 8.97636 12.1273C8.7071 12.1626 8.43785 12.039 8.34169 11.7918C8.34169 11.7918 8.34169 11.7565 8.34169 11.7388M21.478 18.961C21.478 18.9257 21.4396 18.9081 21.3819 18.9257C16.5736 19.9322 14.7464 16.5595 12.9769 13.3104C12.6115 12.6394 11.8229 11.4916 10.6689 11.1738C10.0534 11.0148 9.41875 11.1031 8.78405 11.4739C8.63018 11.5446 8.68787 11.6682 8.68787 11.7035C8.70711 11.7741 8.80327 11.8624 8.95714 11.8448C10.842 11.5446 11.6498 13.3281 12.3038 14.7584C12.5153 15.2175 12.7076 15.6413 12.9192 15.9591C13.6308 17.054 14.4579 17.9369 15.3618 18.5902C16.9197 19.7027 19.5932 20.2678 21.4588 19.0847C21.5165 19.0493 21.5165 18.9964 21.4973 18.961" fill="#F3F0EB"/>
<path d="M10.2265 23.8698C11.7651 24.9469 13.7654 24.3819 15.1887 23.34C16.3427 22.4924 18.2852 20.5854 17.6505 19.1197C17.5928 18.9784 17.4005 18.9255 17.2466 18.9608C16.0349 19.208 15.7272 20.5147 15.054 21.3447C13.9192 22.775 12.3421 23.34 10.438 23.1988C9.99565 23.1635 9.93795 23.6755 10.2265 23.8874" fill="#F3F0EB"/>
<path d="M9.89888 23.6743C9.86042 23.5507 9.86041 23.4271 9.91811 23.3212C9.99504 23.1269 10.2066 23.0033 10.4374 23.021C12.3415 23.1623 13.8417 22.5619 14.9188 21.2375C15.1111 21.0079 15.265 20.7254 15.4381 20.4429C15.842 19.7366 16.2844 18.9772 17.2076 18.8007C17.4191 18.7653 17.6884 18.836 17.7845 19.0479C17.8038 19.1185 17.8423 19.1715 17.8615 19.2421C18.3039 20.7431 16.4767 22.5619 15.2842 23.4448C13.8802 24.469 11.7838 25.1576 10.1105 23.9745C10.0143 23.9039 9.93735 23.798 9.89888 23.6743ZM17.5345 19.3128C17.5345 19.3128 17.4961 19.2068 17.4768 19.1538C17.4576 19.1009 17.3422 19.0655 17.2653 19.0832C16.4959 19.2421 16.1112 19.8955 15.7073 20.5841C15.5535 20.8667 15.3804 21.1492 15.1688 21.4141C14.034 22.8444 12.4377 23.4801 10.3989 23.3212C10.3028 23.3212 10.2451 23.3388 10.2066 23.4271C10.1681 23.5154 10.2066 23.6567 10.3028 23.7273C11.8222 24.7868 13.7455 24.1511 15.0534 23.1976C16.1112 22.4206 17.9192 20.6548 17.5153 19.3128" fill="#F3F0EB"/>
<path d="M16.6314 18.9968C13.708 17.6194 9.59204 11.0859 5.5915 13.6286C5.49533 13.6993 5.53382 13.8582 5.66845 13.8229C10.823 12.11 11.977 18.7319 16.593 19.0497C16.6122 19.0497 16.6314 19.0144 16.593 18.9968" fill="#F3F0EB"/>
<path d="M5.39911 13.8037C5.36064 13.6978 5.39913 13.5742 5.51453 13.5035C8.3803 11.6847 11.2076 14.2452 13.7079 16.5231C14.785 17.512 15.8236 18.4478 16.7083 18.8716L16.8237 18.9246L16.766 19.1895H16.5929C14.4773 19.0659 13.0924 17.6532 11.7461 16.3112C10.0728 14.6337 8.4957 13.0621 5.7261 13.9803C5.59146 14.0156 5.47604 13.9803 5.39911 13.8744C5.39911 13.8567 5.39912 13.839 5.37988 13.8214M15.9582 18.8187C15.1889 18.3242 14.3426 17.5473 13.4579 16.7526C11.1499 14.669 8.55338 12.3028 6.03381 13.5742C8.76494 12.8678 10.3998 14.51 11.9962 16.0993C13.1502 17.2647 14.3426 18.4478 15.9774 18.801" fill="#F3F0EB"/>
<path d="M7.84031 22.2631C8.99431 24.5411 15.1874 23.6935 15.1105 21.0094C15.1105 20.7445 14.822 20.6033 14.572 20.7092C13.5334 21.1683 12.9372 22.0336 11.7255 22.2808C10.3791 22.5633 9.5136 21.9806 8.28267 21.751C7.93647 21.6804 7.68644 21.9629 7.84031 22.2631Z" fill="#F3F0EB"/>
<path d="M7.64951 22.2455C7.61104 22.0866 7.64949 21.9276 7.74565 21.804C7.88029 21.6451 8.09186 21.5745 8.32266 21.6098C8.72656 21.6804 9.092 21.7864 9.4382 21.8923C10.1883 22.1219 10.823 22.3161 11.6885 22.1395C12.3617 21.9983 12.8425 21.6628 13.3426 21.2919C13.6888 21.0447 14.0542 20.7799 14.4966 20.5856C14.6697 20.515 14.862 20.515 15.0159 20.6033C15.1697 20.6916 15.2467 20.8505 15.2659 21.0094C15.3044 22.4221 13.8042 23.252 12.3617 23.5699C10.5537 23.9583 8.36112 23.6582 7.68796 22.3338C7.68796 22.2985 7.66874 22.2632 7.64951 22.2455ZM14.9389 20.9741C14.9389 20.9741 14.9005 20.9035 14.862 20.8682C14.8043 20.8328 14.7274 20.8328 14.6504 20.8682C14.2465 21.0447 13.8811 21.292 13.5541 21.5392C13.0541 21.91 12.5155 22.2808 11.7847 22.4397C10.823 22.634 10.1114 22.4221 9.34202 22.1925C8.99582 22.0866 8.64963 21.9806 8.26496 21.91C8.16879 21.8923 8.07262 21.91 8.01492 21.9806C7.95722 22.0513 7.95722 22.1219 8.01492 22.2102C8.61115 23.3933 10.6884 23.6405 12.3232 23.2873C13.6311 23.0048 14.9966 22.2632 14.9774 21.0271C14.9774 21.0094 14.9774 20.9918 14.9774 20.9741" fill="#F3F0EB"/>
<path d="M24.978 16.0106C23.3047 13.9799 20.7851 12.5848 18.9387 10.6954C18.8618 10.6071 18.7079 10.7307 18.8041 10.819C20.5351 12.7614 22.3046 15.1276 24.9588 16.0812C24.9973 16.0812 25.0165 16.0459 24.9972 16.0106" fill="#F3F0EB"/>
<path d="M18.6122 10.838C18.5929 10.7497 18.6122 10.6437 18.7083 10.5908C18.8237 10.5025 18.9776 10.5201 19.0738 10.6084C19.8816 11.4384 20.824 12.18 21.7472 12.8863C22.9397 13.8046 24.1706 14.7758 25.113 15.9236C25.1707 15.9765 25.1707 16.0825 25.113 16.1531C25.0553 16.2237 24.9592 16.2414 24.8822 16.2237C22.5358 15.3762 20.8432 13.4337 19.343 11.7032C19.1122 11.4384 18.8814 11.1735 18.6699 10.9263C18.6506 10.891 18.6314 10.8733 18.6122 10.838ZM24.5553 15.7646C23.6705 14.7934 22.5935 13.9458 21.5356 13.1159C20.9394 12.6568 20.3239 12.18 19.7469 11.6679C21.151 13.2748 22.5935 14.8994 24.5553 15.7646Z" fill="#F3F0EB"/>
<path d="M18.5339 4.44543C16.5529 3.15637 13.1486 3.56251 12.437 5.94638C12.3408 6.24657 12.7255 6.44081 12.9755 6.24657C14.4949 5.08112 16.3414 4.19821 18.3609 4.79859C18.5917 4.86923 18.7263 4.56903 18.5339 4.44543Z" fill="#F3F0EB"/>
<path d="M12.2848 6.15818C12.2848 6.15818 12.2656 5.99926 12.2848 5.91096C12.5733 4.9221 13.3619 4.1628 14.4582 3.80963C15.8238 3.36817 17.4586 3.56242 18.6319 4.32172C18.7857 4.42767 18.8242 4.62191 18.7473 4.78084C18.6703 4.93976 18.4972 4.99274 18.3049 4.93976C16.6701 4.44533 14.9583 4.9221 13.0734 6.37008C12.9003 6.51135 12.6503 6.51135 12.458 6.4054C12.3618 6.35242 12.2849 6.24647 12.2656 6.15818M18.4588 4.60425C18.4588 4.60425 18.4588 4.5866 18.4395 4.56894C17.3817 3.88026 15.8238 3.68602 14.5736 4.09216C13.5735 4.42767 12.8619 5.09868 12.5926 5.99926C12.5734 6.08755 12.6118 6.14052 12.6503 6.15818C12.708 6.1935 12.8042 6.1935 12.8619 6.15818C14.8429 4.63957 16.6508 4.1628 18.4011 4.67489C18.4203 4.67489 18.4395 4.67489 18.4395 4.67489C18.4395 4.67489 18.4395 4.63957 18.4395 4.62191" fill="#F3F0EB"/>
<path d="M5.01353 8.22438C6.14829 9.81362 8.43707 9.4428 9.74494 8.25969C9.47567 8.27735 9.22563 8.31267 8.95637 8.34798C9.97573 9.019 10.8605 9.2309 12.0722 9.4428C12.3222 9.47811 12.5338 9.17792 12.2645 9.03666C11.3605 8.57754 10.4566 7.90653 9.62954 7.34146C9.39874 7.18254 9.0333 7.25317 8.84097 7.42976C8.01394 8.15374 6.84071 7.8359 5.93675 7.42976C5.39821 7.2002 4.62888 7.67697 5.03278 8.24204" fill="#F3F0EB"/>
<path d="M4.76414 8.0831C4.70644 7.8712 4.76411 7.67696 4.91798 7.50037C5.18725 7.21784 5.64887 7.12955 5.99507 7.27082C6.78364 7.60632 7.93764 7.97715 8.7262 7.27082C8.957 7.05892 9.41858 6.97062 9.72632 7.18252C9.91865 7.32379 10.1302 7.46506 10.3418 7.60632C10.9957 8.06544 11.6689 8.52455 12.3613 8.87772C12.5344 8.96601 12.5921 9.14259 12.5536 9.30151C12.4767 9.4781 12.2651 9.60171 12.0728 9.56639C10.9765 9.38981 10.1879 9.19557 9.38013 8.75411C8.6108 9.24854 7.70683 9.49576 6.86057 9.40747C6.05277 9.31917 5.36035 8.94835 4.91798 8.29499C4.86028 8.22436 4.82182 8.15373 4.80259 8.06544M12.2651 9.16025C12.2651 9.16025 12.2651 9.14259 12.2267 9.12493C11.5343 8.77177 10.8419 8.295 10.1687 7.81822C9.95714 7.67696 9.76479 7.53569 9.55322 7.39442C9.39936 7.28847 9.11085 7.34145 8.97622 7.46506C8.05302 8.27734 6.76438 7.88885 5.87965 7.50037C5.66808 7.41208 5.34114 7.46506 5.18728 7.64164C5.11034 7.72993 5.03341 7.88885 5.18728 8.0831C5.59118 8.64816 6.18741 8.98367 6.89904 9.0543C7.62991 9.12493 8.39922 8.93069 9.07239 8.52455C9.01469 8.48924 8.95701 8.45392 8.88007 8.40094L8.53386 8.17139L10.2264 7.9948L9.88019 8.29499C9.88019 8.29499 9.72633 8.4186 9.64939 8.48923C10.3803 8.86006 11.1111 9.03664 12.1113 9.21322C12.169 9.21322 12.2267 9.17791 12.2267 9.14259C12.2267 9.14259 12.2267 9.14259 12.2267 9.12493" fill="#F3F0EB"/>
<path d="M22.2664 18.5541C18.5736 17.6712 16.4195 15.2344 13.6499 13.0624C13.5153 12.9565 13.2653 13.0448 13.323 13.239C14.3231 16.7 18.5929 18.4835 22.0934 19.0839C22.4588 19.1545 22.6511 18.6424 22.2664 18.5541Z" fill="#F3F0EB"/>
<path d="M13.1682 13.3278C13.1682 13.3278 13.1682 13.3102 13.1682 13.2925C13.1297 13.1513 13.1682 13.01 13.322 12.9394C13.4567 12.8687 13.649 12.8687 13.7836 12.9747C14.3799 13.4515 14.9761 13.9282 15.5146 14.405C17.5534 16.1179 19.4575 17.7424 22.3232 18.4311C22.5733 18.4841 22.6887 18.696 22.6502 18.9079C22.5925 19.1198 22.3809 19.314 22.0924 19.261C20.323 18.9608 14.4568 17.6365 13.2066 13.3455M22.2655 18.7313C19.3228 18.0249 17.3803 16.3827 15.3223 14.6346C14.7645 14.1578 14.1875 13.681 13.5913 13.2219C13.5721 13.2042 13.5336 13.2219 13.5144 13.2219C13.5144 13.2219 13.5144 13.2572 13.5144 13.2749C14.7261 17.4069 20.4191 18.6783 22.1501 18.9785C22.2655 18.9961 22.3232 18.9255 22.3425 18.8549C22.3617 18.7489 22.2848 18.7313 22.2463 18.7313H22.2655Z" fill="#F3F0EB"/>
<path d="M22.0748 7.57098C19.4013 6.77636 16.2278 8.31263 14.1699 9.77827C13.9968 9.90187 14.1698 10.1667 14.3622 10.1138C15.6893 9.67232 17.0741 9.38978 18.4397 9.05428C19.6706 8.75409 20.9785 8.73643 22.1517 8.27731C22.4979 8.13605 22.3825 7.67693 22.0748 7.57098Z" fill="#F3F0EB"/>
<path d="M13.9587 9.98945C13.9202 9.86584 13.9587 9.72458 14.0741 9.65394C15.4589 8.68274 19.0171 6.51077 22.1329 7.429C22.3637 7.49963 22.5368 7.71153 22.5368 7.94109C22.5368 8.15299 22.4406 8.32957 22.229 8.40021C21.4982 8.68274 20.7096 8.80634 19.9403 8.92995C19.4594 9.00058 18.9594 9.07122 18.4978 9.19483C18.1323 9.28312 17.7669 9.37141 17.4015 9.4597C16.4206 9.68926 15.4012 9.93647 14.4203 10.2543C14.2472 10.3073 14.0741 10.2543 13.9779 10.0777C13.9779 10.0424 13.9395 10.0248 13.9395 9.98945M22.0175 7.71153C19.0555 6.82862 15.6128 8.94761 14.2664 9.8835C14.2664 9.8835 14.2664 9.90116 14.2664 9.91882C14.2664 9.93647 14.2857 9.95413 14.3049 9.95413C15.305 9.61862 16.3244 9.38907 17.3245 9.15951C17.69 9.07122 18.0554 8.98293 18.4208 8.89464C18.9017 8.77103 19.4017 8.70039 19.8826 8.62976C20.6327 8.52381 21.402 8.4002 22.0944 8.11767C22.1906 8.08236 22.2098 7.99406 22.1906 7.94109C22.1906 7.83514 22.1136 7.72919 22.0175 7.69387" fill="#F3F0EB"/>
<path d="M36.7703 24.1184C35.1354 22.176 36.9626 18.2206 38.2512 16.1193C39.636 13.8413 41.5209 12.8348 44.0597 11.7577C45.6561 11.0867 47.1755 10.3627 49.0988 10.4686C53.1378 10.6982 55.215 12.5699 57.196 15.4659C58.677 17.6379 59.7541 22.176 58.4847 24.8248C56.6191 28.7096 52.4839 29.7161 48.4449 30.2106C45.4253 30.5814 42.521 30.705 40.0976 28.8332C38.3282 27.4559 37.7127 25.3898 35.9048 23.9772C35.6355 23.7653 35.2508 23.9772 35.2508 24.2774C35.2124 32.4178 43.9828 33.389 50.7529 32.0823C54.5996 31.3407 58.6963 30.1752 60.2349 26.5023C61.5813 23.3062 61.5236 18.4148 59.0809 15.6955C55.4074 11.5634 51.3876 8.7381 45.7138 9.92121C44.5982 10.5746 43.4827 11.2103 42.3672 11.8636C41.5594 12.0579 40.7516 12.2344 39.9438 12.4287C39.0206 12.7818 38.8667 12.7465 38.0974 13.3646C36.9626 14.3005 36.1356 17.0551 35.5778 18.0263C34.193 20.4102 34.0391 22.5115 36.2317 24.5952C36.5202 24.8778 37.0395 24.454 36.7895 24.1538" fill="#F3F0EB"/>
<path d="M35.4234 26.9251C35.1926 26.1128 35.058 25.2299 35.0772 24.2587C35.0772 24.0821 35.1734 23.9056 35.3465 23.8173C34.0386 22.1221 34.0964 20.2503 35.4427 17.9194C35.6158 17.6369 35.8081 17.1601 36.0389 16.6304C36.5582 15.4119 37.1929 13.8933 38.0007 13.24C38.6354 12.7102 38.8854 12.6219 39.424 12.4277C39.5586 12.3747 39.7125 12.3217 39.9048 12.2511C40.7318 12.0569 41.5204 11.8803 42.3282 11.686C43.4438 11.0503 44.5401 10.397 45.6556 9.76129H45.6748L45.6941 9.74363C51.9064 8.47223 56.0031 11.9686 59.2151 15.5709C61.677 18.3255 61.7539 23.3052 60.3883 26.5366C58.8496 30.2096 54.8684 31.428 50.7909 32.2226C45.5017 33.2468 40.7126 32.6287 37.9815 30.5804C36.7313 29.6445 35.885 28.4261 35.4619 26.9428M35.5581 24.0821C35.5581 24.0821 35.4234 24.1881 35.4234 24.294C35.4234 26.9428 36.3466 28.9735 38.193 30.3685C40.8472 32.3639 45.5402 32.9642 50.7332 31.9577C54.7145 31.1984 58.6188 29.9977 60.0998 26.466C61.4077 23.3228 61.35 18.4845 58.9651 15.8004C55.83 12.2864 51.8102 8.84306 45.7902 10.0791C44.6747 10.7148 43.5784 11.3682 42.4628 12.0039H42.4436L42.4244 12.0215C41.6166 12.2158 40.8088 12.3924 40.001 12.5866C39.8279 12.6572 39.674 12.7102 39.5394 12.7455C39.0008 12.9398 38.8085 13.0104 38.2123 13.4872C37.4622 14.1052 36.8467 15.5885 36.3274 16.7716C36.0966 17.319 35.8851 17.7958 35.712 18.096C34.4041 20.3916 34.3656 22.1221 35.6735 23.7643C35.7889 23.7643 35.9043 23.8173 36.0197 23.8879C36.2505 24.0645 36.462 24.2587 36.6351 24.453C36.6736 24.4 36.7313 24.3294 36.6351 24.2411C34.731 21.9985 37.2891 17.425 38.1161 16.0653C39.5779 13.6638 41.655 12.6396 44.0015 11.6331L44.3285 11.4918C45.8479 10.8384 47.2712 10.2381 49.1176 10.344C53.2528 10.5736 55.3876 12.5336 57.3302 15.4119C58.7727 17.5309 59.9459 22.1574 58.6381 24.9121C56.734 28.8675 52.6181 29.874 48.4637 30.3861C45.5594 30.7393 42.5205 30.9335 40.001 28.9735C39.097 28.2671 38.4816 27.3842 37.8853 26.5366C37.4814 25.9539 37.0775 25.3712 36.5774 24.8238C36.4043 24.8591 36.2505 24.8238 36.1158 24.7002C35.9043 24.5059 35.712 24.294 35.5389 24.0998M37.0006 24.2234C37.0583 24.4 36.9813 24.5589 36.8467 24.6825C37.3468 25.2299 37.7507 25.8126 38.1546 26.3777C38.7701 27.2606 39.3278 28.0729 40.1933 28.7616C42.6167 30.6333 45.5786 30.4568 48.4059 30.1036C52.4642 29.6092 56.484 28.6203 58.3111 24.8061C59.5998 22.1397 58.4265 17.6369 57.0225 15.5885C55.0799 12.7102 53.0604 10.8914 49.0599 10.6619C47.3097 10.5559 45.9248 11.1563 44.4439 11.792L44.1169 11.9333C41.8281 12.9045 39.8087 13.911 38.3854 16.2419C36.7506 18.9259 35.4812 22.4046 36.8852 24.0821C36.9237 24.1351 36.9621 24.1881 36.9814 24.2411" fill="#F3F0EB"/>
<path d="M37.2312 25.7065C38.2506 26.3422 39.1546 25.9891 39.77 25.0179C40.1355 24.4528 40.097 23.923 40.1739 23.2874C40.2701 22.4574 40.1355 21.6275 40.8471 20.8505C41.1741 20.4797 41.9241 20.3031 42.3665 20.0912C44.8861 18.8198 45.7324 15.7473 43.7706 13.6636C43.6744 13.5576 43.5398 13.5047 43.4051 13.54C41.7511 13.9991 39.9239 14.3523 38.1929 14.4229C37.3081 14.4582 37.4236 15.606 38.2698 15.659C39.6739 16.7891 39.9623 18.0075 39.1545 19.2966C38.9814 19.738 39.2507 20.1618 39.7892 20.1795C42.7512 20.2678 42.1742 24.029 44.713 24.8943C45.9439 25.3181 47.1172 24.8589 47.6172 23.7111C48.0596 22.7046 47.5403 21.91 48.5789 20.9918C49.0213 20.6033 49.4636 20.7092 49.8098 20.1089C50.5215 18.8198 49.2521 17.5484 48.3289 16.7185C48.0788 16.4889 47.6557 16.5596 47.4441 16.7715C46.367 17.8486 44.6553 14.211 44.7515 13.6989C44.7515 13.593 45.4054 12.7807 45.4631 12.5158C45.5208 12.3039 45.1746 12.198 45.0592 12.3922C44.6553 12.7454 44.2706 13.0809 43.8667 13.434C43.7321 13.5047 43.7321 13.6813 43.7898 13.8049C44.6745 15.2705 44.0783 17.107 46.0401 17.9192C46.9825 18.3077 47.6749 18.1665 48.4058 17.5484C48.1173 17.5661 47.8096 17.5837 47.5211 17.6014C48.9443 19.0847 47.8673 19.5968 47.1556 20.7622C46.4632 21.8923 46.4055 24.6647 44.4053 22.7753C43.4821 21.91 43.5013 20.568 42.5012 19.7027C41.6934 19.0141 40.8471 18.9081 39.77 18.9611C39.9816 19.2613 40.1932 19.5438 40.4047 19.844C41.2702 17.6897 41.5587 14.6348 38.2698 14.4406C38.3468 14.8467 38.4429 15.2352 38.5198 15.6413C39.3661 15.4118 43.0204 13.9991 43.6936 14.4406C44.8284 15.1822 44.136 17.3365 43.559 18.1488C42.9435 18.9964 41.8472 19.173 40.9625 19.6497C40.1931 20.0559 39.5777 20.3737 39.1738 21.133C38.6737 22.0689 39.1161 25.0708 37.462 25.0708C37.0581 25.0708 37.0389 25.5476 37.3274 25.7242" fill="#F3F0EB"/>
<path d="M36.9047 25.5308C36.8855 25.4425 36.8855 25.3365 36.9047 25.2306C36.9624 25.0363 37.1547 24.9127 37.3855 24.9127C38.3472 24.9127 38.5011 23.6413 38.6357 22.5112C38.7126 21.9285 38.7703 21.3811 38.9434 21.0632C39.0973 20.763 39.3088 20.5158 39.5396 20.3216C39.3473 20.2686 39.1935 20.1627 39.0781 20.0214C38.9242 19.8271 38.8857 19.5446 39.0011 19.2797C39.7704 18.0437 39.5204 16.9135 38.2126 15.8364C37.6933 15.7834 37.424 15.3773 37.4432 15.0064C37.4432 14.7063 37.6356 14.4061 38.0202 14.3354V14.3001H38.2126C39.7705 14.2471 41.5399 13.9469 43.3671 13.4349C43.4633 13.3995 43.5594 13.3995 43.6364 13.4349C43.6556 13.3995 43.6941 13.3819 43.7325 13.3642C44.1172 13.0287 44.5019 12.6932 44.8865 12.3577C44.9827 12.2164 45.175 12.1635 45.3481 12.2164C45.5405 12.2694 45.6366 12.4283 45.5789 12.6049C45.5405 12.7638 45.3481 13.0464 45.0981 13.4349C45.0019 13.5761 44.8865 13.7527 44.8673 13.788C44.7904 14.0882 45.8097 16.4014 46.7329 16.8076C46.9445 16.8959 47.1176 16.8782 47.2715 16.7193C47.4253 16.578 47.6561 16.4721 47.8677 16.4721C48.0793 16.4721 48.2716 16.5427 48.4062 16.6663C49.1563 17.3373 50.7335 18.7677 49.9257 20.2333C49.6949 20.6394 49.4256 20.763 49.1371 20.8866C48.9832 20.9573 48.8101 21.0279 48.6755 21.1692C48.0792 21.6989 48.0216 22.1757 47.9831 22.7231C47.9639 23.0763 47.9254 23.4294 47.7523 23.8356C47.233 25.0363 45.9444 25.5484 44.6365 25.0893C43.4056 24.6655 42.8863 23.6237 42.3862 22.6172C42.04 21.9285 41.713 21.2751 41.1553 20.8513C41.0783 20.9043 41.0206 20.9396 40.9821 20.9926C40.4628 21.54 40.4244 22.1404 40.3859 22.7761C40.3859 22.9703 40.3667 23.1469 40.3282 23.3411C40.3282 23.4648 40.309 23.5884 40.2898 23.6943C40.2513 24.1711 40.1936 24.6302 39.8859 25.107C39.5204 25.6897 39.0588 26.0429 38.5395 26.1488C38.0779 26.2548 37.5971 26.1488 37.1163 25.8486C37.0009 25.778 36.9047 25.6544 36.8662 25.5308M39.9436 20.3746C39.6551 20.5865 39.405 20.8513 39.1935 21.2045C39.0396 21.487 38.9819 21.9991 38.9242 22.5642C38.7896 23.7473 38.6164 25.2306 37.347 25.2306C37.2509 25.2306 37.2124 25.2659 37.1932 25.3365C37.174 25.4248 37.1932 25.5484 37.2893 25.6014C37.6932 25.8486 38.0971 25.9369 38.4626 25.8663C38.8857 25.778 39.2704 25.4601 39.5974 24.9657C39.8666 24.5419 39.9051 24.1358 39.9436 23.6767C39.9436 23.553 39.9628 23.4294 39.982 23.3058C40.0013 23.1292 40.0205 22.935 40.0397 22.7584C40.0782 22.1051 40.1166 21.4164 40.7129 20.7984C40.7513 20.7454 40.809 20.7101 40.8667 20.6571C40.6167 20.5158 40.309 20.4099 39.9436 20.3746ZM38.0394 14.6356C37.7509 14.7063 37.7317 14.9358 37.7317 15.0241C37.7317 15.2537 37.9048 15.5185 38.2318 15.5538C38.1741 15.2537 38.0971 14.9535 38.0394 14.6533M39.5012 19.0149C39.4435 19.1561 39.3666 19.2797 39.2896 19.421C39.2319 19.5623 39.2512 19.7389 39.3473 19.8625C39.4435 19.9861 39.5974 20.0567 39.7897 20.0744C39.8089 20.0744 39.8474 20.0744 39.8859 20.0744C39.982 20.0037 40.059 19.9508 40.1551 19.8978L39.5204 19.0149H39.5012ZM40.0397 15.3243C39.8282 15.3949 39.6166 15.4656 39.4435 15.5185C39.0973 15.6421 38.8088 15.7304 38.5972 15.8011C39.6743 16.7723 40.0013 17.7965 39.5781 18.8736H39.6935C39.982 18.8559 40.2513 18.8559 40.5013 18.8736C40.8667 17.5139 40.7898 16.3485 40.2705 15.6245C40.1936 15.5185 40.1167 15.4302 40.0397 15.342M38.3857 14.6709C38.4434 14.9535 38.5011 15.236 38.5588 15.5009C38.7511 15.4479 39.0204 15.3596 39.3281 15.2537C39.4627 15.2007 39.6166 15.1654 39.7512 15.1124C39.3858 14.8652 38.9434 14.7239 38.3857 14.6709ZM40.4052 19.1738C40.2705 19.1738 40.1359 19.1738 39.982 19.1738L40.2705 19.5623C40.309 19.4387 40.3667 19.2974 40.4052 19.1738ZM40.4052 20.1273V20.1803C40.6744 20.2509 40.9437 20.3569 41.1553 20.5158C41.3668 20.4099 41.5976 20.3216 41.8092 20.2333C41.9823 20.1627 42.1554 20.1097 42.29 20.039C42.3285 20.0214 42.367 20.0037 42.4054 19.9861C42.367 19.9508 42.3477 19.9331 42.3092 19.8978C42.1169 19.7389 41.9054 19.5976 41.713 19.4916C41.463 19.5976 41.1937 19.7035 40.9437 19.8271L40.8667 19.8625C40.7129 19.9508 40.559 20.039 40.4052 20.1097M40.7321 19.1915C40.6744 19.368 40.636 19.527 40.5783 19.6682C40.6167 19.6506 40.6552 19.6153 40.7129 19.5976L40.7898 19.5623C40.9629 19.474 41.136 19.3857 41.3091 19.3151C41.1168 19.2621 40.9437 19.2268 40.7514 19.1915M43.5402 13.7527C43.5402 13.7527 43.4633 13.7527 43.444 13.7527C42.0208 14.1588 40.636 14.4237 39.3473 14.565C39.6358 14.6709 39.9051 14.8122 40.1167 14.9888C41.79 14.4414 43.2325 14.0706 43.6941 14.3707C43.7518 14.4061 43.8094 14.459 43.8671 14.512C43.7902 14.3178 43.7133 14.1235 43.5979 13.9469C43.5594 13.894 43.5594 13.8233 43.5402 13.7704M40.9244 16.2425C41.1745 17.1254 41.0399 18.132 40.8283 18.9266C41.136 18.9619 41.4438 19.0502 41.7323 19.1738C42.367 18.9266 42.9439 18.6794 43.3286 18.1496C43.8671 17.408 44.5788 15.342 43.5017 14.6533C43.1555 14.4237 41.5976 14.8652 40.3667 15.2713C40.4244 15.342 40.5013 15.4126 40.5398 15.5009C40.7129 15.7304 40.8283 15.9953 40.9052 16.2778M42.617 20.2509C42.617 20.2509 42.5016 20.3216 42.4439 20.3392C42.29 20.4099 42.1169 20.4805 41.9438 20.5511C41.7899 20.6218 41.6169 20.6747 41.4438 20.763C42.0015 21.2398 42.3285 21.9108 42.6747 22.5818C43.1555 23.5354 43.6556 24.5066 44.7519 24.8951C45.9059 25.2836 46.9829 24.8598 47.4445 23.8003C47.5984 23.4471 47.6369 23.0939 47.6561 22.7761C47.6946 22.211 47.7523 21.646 48.4447 21.0279C48.637 20.8513 48.8294 20.7807 49.0025 20.6924C49.2525 20.5865 49.4448 20.4982 49.6371 20.1803C50.1372 19.2621 49.5795 18.3615 48.7717 17.5316L48.4639 17.7964C48.3101 17.9377 48.1562 18.0437 47.9831 18.132C48.6563 19.0855 48.1947 19.6506 47.6946 20.3216C47.5407 20.5335 47.3676 20.7277 47.233 20.9749C47.0599 21.2398 46.9253 21.6459 46.7906 22.0168C46.5406 22.7761 46.2713 23.553 45.6559 23.6767C45.252 23.7649 44.7711 23.553 44.2134 23.0056C43.7518 22.5642 43.521 22.0168 43.2902 21.487C43.0978 21.0456 42.9247 20.6218 42.617 20.2686M44.3288 16.3838C44.2326 17.1431 43.9056 17.9024 43.5787 18.3615C43.194 18.8913 42.6362 19.1738 42.0592 19.4034C42.2131 19.4916 42.367 19.5976 42.5016 19.7212C42.5593 19.7742 42.5978 19.8095 42.6555 19.8625C43.6556 19.2268 44.3672 18.2379 44.5788 17.1431C44.5788 17.1254 44.5788 17.1078 44.5788 17.0901C44.4634 16.8606 44.3672 16.631 44.2903 16.3838M44.8288 17.4609C44.5403 18.5381 43.8479 19.474 42.8478 20.1097C43.1747 20.4982 43.3478 20.9573 43.5402 21.3811C43.771 21.9108 43.9826 22.4053 44.4057 22.7937C44.8865 23.2529 45.2712 23.4471 45.5405 23.3765C45.9636 23.2882 46.1944 22.5818 46.4252 21.9108C46.5598 21.5223 46.6945 21.1162 46.8868 20.816C47.0407 20.5688 47.2138 20.3392 47.3676 20.1273C47.8485 19.4916 48.1947 19.0502 47.6369 18.2732C47.0791 18.5028 46.5021 18.4675 45.8482 18.1849C45.3866 17.9907 45.0596 17.7435 44.8096 17.4433M44.2134 14.7945C44.2903 15.0594 44.348 15.3243 44.4057 15.5715C44.4634 15.854 44.5403 16.1542 44.6173 16.4014C44.6173 15.8364 44.4826 15.289 44.2134 14.7945ZM45.175 12.6049C45.175 12.6049 45.175 12.6049 45.1558 12.5873C45.1558 12.5873 45.1173 12.5873 45.0981 12.6049L45.0596 12.6402C44.6557 12.9934 44.271 13.3289 43.8671 13.6821H43.8287C44.7134 14.6533 45.0789 15.8187 44.9058 17.0371C45.1366 17.3903 45.4635 17.6905 45.9828 17.9201C46.5406 18.1496 46.9829 18.1849 47.4445 18.026C47.3868 17.973 47.3292 17.9024 47.2715 17.8318L47.0599 17.6022L48.6947 17.4963C48.5216 17.3197 48.3293 17.1254 48.137 16.9665C48.0408 16.8782 47.9254 16.8606 47.8485 16.8606C47.7138 16.8606 47.5792 16.9135 47.483 17.0018C47.2138 17.2667 46.906 17.3197 46.5598 17.1608C45.5212 16.7016 44.4249 14.2648 44.5018 13.8057C44.5018 13.735 44.5595 13.6468 44.7711 13.3466C44.9442 13.0994 45.175 12.7462 45.2135 12.6049C45.2135 12.6049 45.2135 12.6049 45.2135 12.5873M47.7908 17.8494H47.7523C47.7523 17.8494 47.7523 17.8494 47.7523 17.8671C47.7523 17.8671 47.7715 17.8671 47.7908 17.8494Z" fill="#F3F0EB"/>
<path d="M46.1744 12.1102C46.9053 13.0814 48.0015 13.3286 49.2517 13.3109C50.6557 13.2933 51.5597 12.8518 52.3483 11.7923C52.4444 11.6687 52.3483 11.4568 52.156 11.5098C51.3482 11.757 50.3673 11.8983 49.5018 11.9689C48.5209 12.0396 47.5015 11.7747 46.5206 11.6334C46.2513 11.5981 46.0013 11.863 46.1744 12.0925" fill="#F3F0EB"/>
<path d="M45.9646 12.0576C45.9261 11.9516 45.9646 11.828 46.0223 11.7221C46.1377 11.5632 46.33 11.4749 46.5416 11.4925C46.8301 11.5279 47.0993 11.5808 47.3878 11.6338C48.0802 11.7574 48.7919 11.881 49.465 11.828C50.1959 11.7751 51.2345 11.6515 52.0808 11.3689C52.2154 11.316 52.3692 11.3689 52.4654 11.4749C52.5616 11.5808 52.5616 11.7574 52.4654 11.881C51.6384 12.9935 50.696 13.4526 49.2342 13.4703C48.2726 13.4703 46.907 13.3643 46.0223 12.1989C45.9838 12.1635 45.9645 12.1106 45.9453 12.0576M52.1961 11.6691C51.3114 11.9516 50.2344 12.0753 49.4843 12.1459C48.7534 12.1989 48.0225 12.0753 47.3109 11.9516C47.0224 11.8987 46.7531 11.8457 46.4838 11.8104C46.4069 11.8104 46.33 11.8457 46.2915 11.8987C46.2723 11.934 46.2531 11.987 46.2915 12.0399C46.907 12.8522 47.811 13.2054 49.2342 13.1877C50.5806 13.1701 51.4268 12.7463 52.1961 11.7221V11.6868" fill="#F3F0EB"/>
<path d="M51.7725 11.2621C49.0413 14.4936 54.6575 15.5531 55.4845 17.9899C55.8692 17.6014 56.2346 17.213 56.6193 16.8245C54.9267 16.5773 53.5227 16.2771 51.7725 16.4713C50.5992 16.6126 48.5028 16.7009 47.7912 17.6368C47.695 17.7604 47.695 17.9546 47.8681 18.0252C48.849 18.4667 50.0992 17.8663 51.1185 17.7427C52.5418 17.5661 54.619 17.4249 55.773 18.3784C56.3692 18.8728 57.4847 18.4314 57.3886 17.6544C57.2347 16.3477 56.3692 15.5178 55.2152 14.7761C54.4074 14.264 51.7725 12.8337 52.3302 11.5976C52.4649 11.2798 52.0225 10.9443 51.7725 11.2445" fill="#F3F0EB"/>
<path d="M47.56 17.9193C47.5215 17.7957 47.56 17.6721 47.6369 17.5485C48.2909 16.6833 49.9834 16.5067 51.2336 16.3831C51.4259 16.3831 51.599 16.3478 51.7529 16.3301C52.4837 16.2418 53.1761 16.2418 53.8493 16.2948C53.6185 16.1182 53.3877 15.9416 53.1569 15.765C51.5221 14.5643 49.8295 13.3105 51.6567 11.1562C51.8106 10.9796 52.0606 10.9267 52.2722 11.0503C52.4645 11.1562 52.6184 11.4034 52.503 11.6683C52.0606 12.6395 54.0416 13.8756 55.0033 14.4583C55.1379 14.529 55.2341 14.5996 55.3303 14.6526C56.3304 15.3059 57.3882 16.1535 57.5613 17.6368C57.619 18.0429 57.3883 18.4138 56.9651 18.608C56.5227 18.8199 56.0035 18.7669 55.6765 18.4844C54.5802 17.5838 52.5799 17.7074 51.1566 17.884C50.8681 17.9193 50.5412 17.99 50.2142 18.0783C49.4064 18.2725 48.5601 18.4844 47.81 18.1489C47.6946 18.0959 47.6177 18.0076 47.5792 17.9017M54.2724 16.6126C53.4839 16.5243 52.6953 16.5067 51.8106 16.6126C51.6567 16.6303 51.4836 16.6479 51.2913 16.6656C50.118 16.7892 48.5024 16.9481 47.9447 17.7074C47.9254 17.7428 47.9062 17.7957 47.9254 17.831C47.9254 17.831 47.9255 17.8664 47.9832 17.884C48.6179 18.1666 49.3872 17.9723 50.1565 17.7957C50.5027 17.7074 50.8297 17.6368 51.1374 17.5838C52.503 17.4072 54.1186 17.319 55.311 17.884C55.1187 17.4249 54.7533 17.0188 54.2917 16.6303M51.9452 11.3505C50.3296 13.2576 51.7529 14.3171 53.4069 15.5355C53.7724 15.8003 54.1186 16.0652 54.4455 16.3478C54.9648 16.4007 55.4649 16.489 55.9842 16.5597C56.215 16.595 56.4458 16.6303 56.6766 16.6656L56.9651 16.7009L55.6572 18.0606C55.6572 18.0606 55.8303 18.1842 55.9073 18.2548C56.1765 18.4844 56.5612 18.4491 56.8305 18.3255C57.119 18.1842 57.2921 17.937 57.2536 17.6545C57.0998 16.2948 56.1573 15.5178 55.1572 14.8821C55.061 14.8291 54.9648 14.7585 54.8302 14.6879C53.7147 14.0169 51.6567 12.7455 52.2145 11.527C52.2529 11.4388 52.2145 11.3328 52.1183 11.2975C52.0414 11.2622 51.9837 11.2798 51.926 11.3328M56.3112 16.9128C56.1765 16.8952 56.0419 16.8775 55.9073 16.8422C55.5226 16.7892 55.1764 16.7186 54.811 16.6833C55.1187 17.0011 55.388 17.319 55.5611 17.6898L56.3112 16.9128Z" fill="#F3F0EB"/>
<path d="M60.35 21.2049C60.2538 20.4809 60.2346 19.8452 59.7538 19.2448C59.2729 18.6268 58.6767 18.4325 57.9074 18.2913C57.5804 18.2383 57.388 18.6091 57.6188 18.821C58.0035 19.1742 58.3305 19.6333 58.696 20.0394C59.0614 20.4632 59.5038 20.834 59.6576 21.3461C59.773 21.6993 60.4077 21.5933 60.35 21.2225" fill="#F3F0EB"/>
<path d="M57.3687 18.6963C57.3302 18.5903 57.3494 18.4667 57.4071 18.3608C57.5033 18.1842 57.7148 18.0959 57.9264 18.1312C58.7342 18.2725 59.3881 18.502 59.8882 19.1554C60.3306 19.7205 60.3883 20.3032 60.4844 20.9212L60.5229 21.1861C60.5614 21.4333 60.3883 21.6275 60.119 21.6805C59.8882 21.7335 59.5997 21.6275 59.5228 21.3627C59.4074 20.9742 59.1188 20.674 58.8303 20.3562L58.5996 20.1089C58.4842 19.9677 58.3688 19.8264 58.2534 19.6851C58.0226 19.4203 57.7918 19.1201 57.5417 18.9082C57.484 18.8552 57.4263 18.7669 57.4071 18.6963M60.0421 20.0383C59.9651 19.7911 59.8497 19.5439 59.6766 19.3143C59.2343 18.7492 58.6765 18.555 57.9264 18.4137C57.8302 18.3961 57.7725 18.4491 57.7533 18.4844C57.734 18.5373 57.7149 18.6256 57.7918 18.6786C58.0611 18.9258 58.2918 19.2084 58.5419 19.4909C58.6573 19.6322 58.7726 19.7734 58.888 19.897C58.965 19.9853 59.0419 20.0736 59.1188 20.1443C59.4266 20.4798 59.7536 20.8153 59.8882 21.2744C59.9267 21.398 60.0998 21.3803 60.119 21.3803C60.1382 21.3803 60.2921 21.345 60.2728 21.2214L60.2344 20.9565C60.1959 20.6387 60.1574 20.3385 60.0805 20.056" fill="#F3F0EB"/>
<path d="M48.5401 21.116C49.2709 21.6987 49.9826 21.787 50.925 21.6104C51.4058 21.5221 51.8097 21.3632 52.2521 21.169C53.4638 20.6569 54.637 20.7981 55.4256 21.8576C56.0411 22.7052 57.1566 24.9302 56.0218 25.6365C55.3679 26.0426 54.3293 26.2369 53.5984 26.5371C52.906 26.8373 52.3867 27.1728 51.8674 27.6849C51.502 28.038 51.9444 28.7267 52.4637 28.5148C53.6369 28.038 54.6178 27.2964 55.791 26.8196C56.3488 26.5901 57.1566 26.4488 57.4836 25.9014C58.0798 24.9302 57.1181 23.3762 56.6565 22.5287C56.0411 21.4162 55.2333 20.445 53.8677 20.1095C53.233 19.9505 52.4829 19.9152 51.829 19.9859C50.8289 20.0918 49.9441 20.6569 48.9055 20.445C48.5016 20.3567 48.2516 20.8511 48.5593 21.0983" fill="#F3F0EB"/>
<path d="M48.2702 20.9929C48.2317 20.8693 48.251 20.728 48.3279 20.5868C48.4433 20.3749 48.6934 20.2689 48.9434 20.3219C49.5589 20.4455 50.1166 20.2866 50.7129 20.1276C51.0591 20.0217 51.4437 19.9157 51.8091 19.8804C52.5208 19.7921 53.2901 19.8451 53.9248 20.004C55.502 20.4102 56.329 21.6286 56.8098 22.5115L56.906 22.6881C57.4061 23.571 58.2331 25.0543 57.6176 26.0255C57.3291 26.5023 56.7329 26.6965 56.2136 26.8731C56.079 26.9261 55.9443 26.9614 55.8289 27.0144C55.2327 27.2439 54.6749 27.5618 54.1364 27.862C53.6171 28.1445 53.0785 28.4623 52.5208 28.6919C52.2323 28.8155 51.9053 28.7272 51.713 28.4623C51.5014 28.1975 51.5014 27.8443 51.7322 27.6147C52.2708 27.085 52.79 26.7495 53.5209 26.4316C53.8094 26.308 54.1556 26.2021 54.5018 26.0961C55.0019 25.9372 55.5404 25.7783 55.9251 25.5311C56.8867 24.9307 55.9828 22.9 55.2904 21.9641C54.6172 21.0282 53.5594 20.7987 52.3284 21.3284C51.9053 21.505 51.4822 21.6816 50.9629 21.7699C49.8858 21.9641 49.1549 21.8228 48.4433 21.2401C48.3664 21.1695 48.3087 21.0812 48.2702 20.9929ZM57.406 24.4892C57.2329 23.8888 56.8867 23.2708 56.6175 22.8117L56.5213 22.6351C55.7904 21.2931 54.9634 20.5691 53.8286 20.2866C53.2324 20.1453 52.5208 20.0923 51.8476 20.163C51.5014 20.1983 51.136 20.3042 50.809 20.4102C50.1935 20.5868 49.5588 20.7633 48.8664 20.6221C48.7126 20.5868 48.6356 20.7104 48.6164 20.7457C48.5779 20.8163 48.5587 20.9399 48.6549 21.0282C49.2896 21.5403 49.9243 21.6639 50.9052 21.4873C51.386 21.399 51.7899 21.2401 52.1938 21.0635C53.5594 20.4808 54.7903 20.7633 55.5596 21.8052C56.252 22.7764 57.3291 25.019 56.1174 25.7959C55.6943 26.0608 55.1558 26.2374 54.6172 26.3963C54.271 26.5023 53.9633 26.5906 53.6748 26.7142C52.9824 27.0144 52.5016 27.3322 52.0015 27.8266C51.8668 27.9679 51.9245 28.1621 52.0015 28.2858C52.0399 28.3387 52.1938 28.4977 52.4054 28.4094C52.9631 28.1798 53.4824 27.8796 53.9825 27.5971C54.5403 27.2792 55.098 26.9614 55.7135 26.7142C55.8481 26.6612 55.9828 26.6082 56.1174 26.5729C56.5983 26.414 57.0983 26.2374 57.3483 25.8489C57.5791 25.4781 57.5407 24.9837 57.406 24.4892Z" fill="#F3F0EB"/>
<path d="M46.0015 25.6532C47.3479 26.1476 48.8288 26.7126 49.7713 27.7545C50.1752 28.1783 50.4252 28.9906 51.0599 29.1495C51.4638 29.2378 51.81 29.0435 51.9447 28.6904C52.3101 27.6662 50.5791 26.3065 49.8098 25.7944C48.6365 25.0351 47.4633 24.6996 46.0593 24.9821C45.7323 25.0528 45.6938 25.5472 46.0015 25.6532Z" fill="#F3F0EB"/>
<path d="M45.6365 25.4781C45.6365 25.4781 45.6172 25.3545 45.6365 25.2839C45.6557 25.0543 45.8096 24.8778 46.0211 24.8424C47.3867 24.5776 48.6176 24.8424 49.9063 25.6724C50.1755 25.849 52.5605 27.4559 52.0989 28.7449C51.945 29.204 51.5219 29.4159 51.0218 29.31C50.5217 29.1864 50.2332 28.7449 49.9832 28.3388C49.8678 28.1622 49.7524 27.9856 49.637 27.862C48.733 26.8908 47.3675 26.3257 45.925 25.796C45.7711 25.743 45.6749 25.6194 45.6365 25.4781ZM51.7911 28.1092C51.5603 27.3146 50.4448 26.3964 49.7139 25.9196C48.483 25.1073 47.3675 24.8778 46.0981 25.125C46.0019 25.1426 45.9634 25.2309 45.9634 25.3016C45.9634 25.3898 45.9827 25.4781 46.0788 25.5135C47.5598 26.0609 48.9638 26.6259 49.9255 27.6501C50.0601 27.7914 50.1755 27.9856 50.2909 28.1622C50.5217 28.533 50.7718 28.9038 51.1372 28.9921C51.4449 29.0628 51.7142 28.9215 51.8104 28.6213C51.8681 28.4624 51.8681 28.2681 51.8104 28.0916" fill="#F3F0EB"/>
<path d="M37.9997 28.832C40.3846 31.1452 44.6929 29.0616 45.2314 26.2715C45.2699 26.095 45.0199 25.9714 44.8852 26.1126C43.2312 27.9314 40.9232 28.0727 38.519 27.8608C37.9228 27.8078 37.5766 28.3905 37.9997 28.8143" fill="#F3F0EB"/>
<path d="M37.6745 28.6037C37.636 28.4447 37.6553 28.2858 37.7322 28.1269C37.8668 27.862 38.1938 27.7031 38.54 27.7384C40.7903 27.9326 43.0983 27.8443 44.7716 26.0432C44.8678 25.9196 45.0409 25.9019 45.1947 25.9549C45.3486 26.0255 45.4448 26.1668 45.4063 26.3257C45.1178 27.8797 43.6368 29.31 41.8289 29.8221C40.3287 30.2459 38.8862 29.928 37.9053 28.9568C37.8091 28.8509 37.7322 28.7449 37.6937 28.6213M45.0986 26.2551L45.0793 26.2374C43.2906 28.1799 40.7711 28.2505 38.54 28.0562C38.2707 28.0386 38.1169 28.1622 38.0592 28.2858C37.9822 28.4447 38.0207 28.6213 38.1746 28.7626C39.0785 29.6455 40.3864 29.928 41.7712 29.5395C43.4637 29.0628 44.8485 27.7384 45.1178 26.2904" fill="#F3F0EB"/>
<path d="M48.0223 24.5234C48.6762 24.8942 49.3686 25.2474 49.9649 25.6712C50.5419 26.0597 51.0227 26.5188 51.7535 26.6777C52.0228 26.7307 52.2152 26.5365 52.2152 26.3069C52.2921 24.6117 49.7148 23.6229 48.1954 23.6935C47.6953 23.7288 47.6184 24.2939 48.003 24.5058" fill="#F3F0EB"/>
<path d="M47.6179 24.2942C47.5987 24.1882 47.5987 24.0823 47.6179 23.994C47.6949 23.7468 47.9064 23.5879 48.1757 23.5702C49.1566 23.5172 50.6953 23.9057 51.6185 24.7533C52.1185 25.2124 52.3878 25.7598 52.3686 26.3425C52.3686 26.5191 52.2724 26.678 52.1378 26.7663C52.0224 26.8546 51.8685 26.8899 51.7146 26.8546C51.0992 26.7134 50.6376 26.3779 50.1952 26.0423C50.099 25.9717 49.9836 25.8834 49.8682 25.8128C49.3682 25.4596 48.7912 25.1594 48.2526 24.8592L47.9257 24.6827C47.7718 24.5944 47.6564 24.4708 47.6179 24.3118M51.9839 25.8481C51.8877 25.5479 51.6954 25.2477 51.3877 24.9829C50.5414 24.2059 49.0989 23.8527 48.1949 23.888C48.0026 23.888 47.9449 24.0293 47.9257 24.0823C47.8872 24.1882 47.9257 24.3472 48.0795 24.4178L48.3873 24.5944C48.945 24.8946 49.522 25.2124 50.0413 25.5656C50.1567 25.6539 50.2721 25.7245 50.3683 25.8128C50.8107 26.1306 51.2146 26.4308 51.7531 26.5544C51.8108 26.5544 51.8685 26.5544 51.907 26.5191C51.9647 26.4838 52.0031 26.3955 52.0031 26.3249C52.0031 26.166 52.0031 25.9894 51.9454 25.8304" fill="#F3F0EB"/>
<path d="M41.7326 20.392C42.2903 20.8688 42.8673 21.2749 43.5789 21.5398C44.1367 21.734 44.8868 22.2108 45.4831 21.9989C45.6754 21.9283 45.7908 21.734 45.7331 21.5575C45.56 20.9924 44.6945 20.7099 44.1944 20.4097C43.5405 20.0388 42.8481 19.8446 42.098 19.7033C41.6748 19.6327 41.4248 20.1095 41.7326 20.392Z" fill="#F3F0EB"/>
<path d="M41.4429 20.2336C41.4044 20.11 41.4236 19.9687 41.4813 19.8275C41.5967 19.6156 41.8468 19.492 42.116 19.545C43.0008 19.6862 43.6739 19.9158 44.2702 20.2689C44.3856 20.3396 44.501 20.3925 44.6548 20.4632C45.1741 20.7104 45.7319 20.9929 45.8858 21.4874C45.9627 21.7522 45.8281 22.0171 45.5396 22.1054C45.0203 22.282 44.424 22.0348 43.9047 21.8052C43.7701 21.7522 43.6355 21.6816 43.5008 21.6463C42.8469 21.4167 42.2507 21.0282 41.5967 20.4808C41.5198 20.4102 41.4621 20.3219 41.4236 20.2336M45.5588 21.5756C45.4434 21.2048 44.9241 20.9576 44.4817 20.7281C44.3471 20.6574 44.1932 20.5868 44.0778 20.5162C43.5201 20.1983 42.8854 19.9864 42.0391 19.8451C41.866 19.8098 41.7891 19.9334 41.7698 19.9687C41.7314 20.057 41.7121 20.1806 41.8275 20.2689C42.443 20.7987 43.0008 21.1519 43.6355 21.3814C43.7701 21.4344 43.9047 21.4874 44.0586 21.558C44.5202 21.7522 45.0203 21.9818 45.4242 21.8582C45.5396 21.8229 45.5973 21.7169 45.578 21.5933" fill="#F3F0EB"/>
<path d="M41.1348 19.191C41.2694 18.8202 41.481 18.4317 41.5195 18.0432C41.5579 17.6017 41.5194 17.1426 41.5387 16.7012C41.5387 16.3127 40.9425 16.3127 40.8271 16.6482C40.6924 17.0543 40.5193 17.4605 40.4231 17.8666C40.327 18.2551 40.3847 18.6612 40.4039 19.0497C40.4039 19.3852 41.0001 19.5265 41.1348 19.191Z" fill="#F3F0EB"/>
<path d="M40.2508 19.1739C40.2508 19.1739 40.2508 19.1033 40.2508 19.068C40.2508 18.9797 40.2508 18.8914 40.2508 18.8031C40.2508 18.4852 40.2124 18.1674 40.2893 17.8496C40.3662 17.567 40.4624 17.2845 40.5586 17.0196C40.597 16.8783 40.6547 16.7547 40.6932 16.6135C40.7701 16.3486 41.0779 16.225 41.3087 16.2603C41.5587 16.2956 41.7125 16.4545 41.7125 16.7018C41.7125 16.843 41.7125 16.9843 41.7125 17.1256C41.7125 17.4258 41.7126 17.7436 41.6933 18.0438C41.6549 18.3616 41.5394 18.6618 41.4048 18.962C41.3663 19.0503 41.3279 19.1386 41.2894 19.2269C41.2125 19.4388 40.9817 19.5447 40.7317 19.5094C40.5201 19.4741 40.3085 19.3505 40.2508 19.1386M41.3664 16.6135C41.3664 16.6135 41.3279 16.5428 41.251 16.5252C41.1548 16.5252 41.0202 16.5605 41.0009 16.6664C40.9625 16.8077 40.9047 16.9313 40.8663 17.0726C40.7701 17.3375 40.674 17.6023 40.6163 17.8672C40.5393 18.1321 40.5586 18.4499 40.5778 18.7501C40.5778 18.8384 40.5778 18.9267 40.5778 19.015C40.5778 19.1033 40.6932 19.1916 40.7894 19.1916C40.8471 19.1916 40.9432 19.1916 40.9817 19.1033C41.0201 19.015 41.0586 18.9267 41.0971 18.8208C41.2125 18.5382 41.3279 18.2557 41.3471 17.9732C41.3856 17.6906 41.3664 17.3728 41.3664 17.0902C41.3664 16.949 41.3664 16.7901 41.3664 16.6488C41.3664 16.6488 41.3664 16.6135 41.3664 16.5958" fill="#F3F0EB"/>
<path d="M37.5791 15.376C37.3098 16.7181 37.6753 18.0601 37.6368 19.4021C37.6176 20.7088 37.0598 22.0685 37.3483 23.3399C37.4252 23.6931 37.9253 23.6224 38.0792 23.3929C38.8293 22.351 38.7139 20.8148 38.81 19.5964C38.9447 18.1837 39.2139 16.6827 38.6562 15.3054C38.4638 14.8463 37.656 14.8286 37.5599 15.3584" fill="#F3F0EB"/>
<path d="M37.2126 23.3938C37.2126 23.3938 37.2126 23.3761 37.2126 23.3584C37.0202 22.5462 37.1741 21.6986 37.3087 20.8686C37.3857 20.3742 37.4818 19.8621 37.501 19.3677C37.501 18.8556 37.4626 18.3435 37.4241 17.8314C37.3472 17.0015 37.2703 16.1539 37.4241 15.3239C37.4818 15.0237 37.7319 14.8295 38.0588 14.7942C38.405 14.7589 38.732 14.9531 38.8474 15.2356C39.3475 16.4541 39.2128 17.7255 39.0782 18.9615C39.059 19.1734 39.0397 19.3677 39.0205 19.5796C39.0013 19.8444 38.982 20.1093 38.9628 20.3918C38.9051 21.416 38.8474 22.5815 38.2511 23.4467C38.1165 23.6233 37.8472 23.7469 37.5972 23.6939C37.4049 23.6586 37.2703 23.5527 37.2126 23.3761M37.7511 15.3769C37.5972 16.1892 37.6741 17.0191 37.7511 17.8137C37.7895 18.3258 37.8472 18.8556 37.828 19.3677C37.828 19.8798 37.7319 20.3919 37.6357 20.9039C37.5011 21.6986 37.3472 22.5285 37.5203 23.2878C37.5203 23.3584 37.578 23.3761 37.6357 23.3938C37.7511 23.4114 37.8857 23.3584 37.9434 23.2701C38.5012 22.4932 38.5589 21.416 38.5974 20.3742C38.5974 20.0917 38.6166 19.8091 38.6551 19.5443C38.6743 19.35 38.6935 19.1381 38.7128 18.9262C38.8282 17.7078 39.0012 16.4717 38.5012 15.3239C38.4242 15.1297 38.2127 15.0591 38.0588 15.0767C37.9819 15.0767 37.7703 15.1297 37.7319 15.3592" fill="#F3F0EB"/>
<path d="M40.6556 20.1273C40.2901 21.1868 40.3479 22.1404 40.194 23.2175C40.0594 24.2594 39.4054 25.1423 38.3284 25.5661C38.0206 25.6897 37.9052 26.1488 38.2707 26.2901C39.6362 26.8375 40.7518 25.9192 41.2711 24.7715C41.9635 23.2528 41.3672 21.7342 41.4057 20.1803C41.4057 19.7565 40.771 19.7742 40.6363 20.1273" fill="#F3F0EB"/>
<path d="M37.9053 26.1136C37.9053 26.1136 37.9053 26.0253 37.9053 25.9723C37.9053 25.7428 38.0591 25.5132 38.2899 25.4249C39.2708 25.0364 39.9248 24.2242 40.0402 23.2C40.0786 22.8645 40.1171 22.5466 40.1363 22.2464C40.194 21.5224 40.2517 20.8338 40.5018 20.0745C40.5979 19.7919 40.9249 19.6683 41.1749 19.7036C41.425 19.739 41.5788 19.9332 41.5788 20.1804C41.5788 20.6748 41.6173 21.1869 41.675 21.6814C41.7904 22.7055 41.9058 23.765 41.425 24.8069C41.0595 25.6192 40.4633 26.2195 39.8094 26.4668C39.2901 26.661 38.7708 26.6433 38.213 26.4138C38.0591 26.3431 37.9437 26.2372 37.9053 26.0959M40.8095 20.1628C40.5595 20.8867 40.5018 21.5578 40.4441 22.2641C40.4248 22.5819 40.3864 22.8998 40.3479 23.2353C40.2133 24.3654 39.5016 25.266 38.3861 25.7074C38.2707 25.7428 38.1938 25.8664 38.1938 25.9723C38.1938 26.0606 38.2322 26.1136 38.3284 26.1489C38.79 26.3431 39.2516 26.3431 39.6747 26.1842C40.2517 25.9723 40.771 25.4249 41.1172 24.7009C41.5596 23.7297 41.4442 22.7585 41.3288 21.7167C41.2711 21.2046 41.2134 20.6925 41.2326 20.1628C41.2326 20.0745 41.1942 20.0215 41.098 20.0038C40.9826 20.0038 40.8287 20.0391 40.7903 20.1628" fill="#F3F0EB"/>
<path d="M45.3668 12.2166C43.1357 14.883 47.0401 18.7325 49.9828 16.5605C50.1943 16.4016 50.0405 16.1014 49.7712 16.172C48.6941 16.4369 47.2324 16.2956 46.4246 15.5363C45.5783 14.7417 45.5783 13.4703 45.9245 12.4814C46.0207 12.1989 45.5591 11.987 45.3668 12.2166Z" fill="#F3F0EB"/>
<path d="M44.6555 14.7594C44.4054 13.9295 44.5208 12.976 45.2325 12.1284C45.3671 11.9694 45.6171 11.9165 45.8479 12.0224C46.0595 12.1284 46.1557 12.3226 46.098 12.5168C45.7902 13.4174 45.7325 14.6535 46.5596 15.4128C47.3289 16.1368 48.7522 16.2604 49.7331 16.0132C49.9254 15.9602 50.1177 16.0308 50.2139 16.2074C50.2908 16.384 50.2524 16.5606 50.0985 16.6842C48.5406 17.832 46.7711 17.3552 45.6941 16.384C45.2132 15.9602 44.8478 15.3951 44.6555 14.7594ZM45.5017 12.3049C44.367 13.6646 44.9247 15.2539 45.9249 16.1544C46.8288 16.9667 48.406 17.5318 49.8869 16.4193C49.9446 16.384 49.9254 16.331 49.9062 16.3134C49.9062 16.278 49.8485 16.278 49.81 16.278C48.7137 16.5606 47.1558 16.4017 46.3095 15.607C45.3863 14.7594 45.4248 13.3998 45.771 12.4109C45.7902 12.3403 45.7133 12.2873 45.6941 12.2696C45.6556 12.252 45.5402 12.2343 45.5017 12.2873" fill="#F3F0EB"/>
<path d="M45.0781 11.051C44.1934 11.3688 43.5202 11.8809 43.0586 12.6226C42.9048 12.8698 43.3087 13.117 43.501 12.9051C43.9818 12.3577 44.5973 11.9516 45.3282 11.722C45.809 11.5807 45.5397 10.8921 45.0781 11.051Z" fill="#F3F0EB"/>
<path d="M42.8669 12.8341C42.8477 12.7458 42.8669 12.6398 42.9054 12.5515C43.3862 11.7746 44.0786 11.2448 45.021 10.9093C45.2134 10.8387 45.3865 10.874 45.5404 10.9799C45.6942 11.1035 45.7712 11.3154 45.7519 11.5097C45.7135 11.6863 45.5788 11.8099 45.3865 11.8805C44.7133 12.0924 44.1171 12.4632 43.6362 13.0106C43.5016 13.1696 43.2516 13.2049 43.0592 13.0813C42.9631 13.0283 42.9054 12.94 42.8861 12.8517M45.425 11.3508C45.425 11.3508 45.3865 11.2625 45.348 11.2272C45.2903 11.1918 45.2326 11.1742 45.1749 11.2095C44.3094 11.5097 43.6747 12.0041 43.2324 12.7281C43.1939 12.7811 43.2516 12.8164 43.2708 12.8341C43.29 12.8341 43.3478 12.887 43.4055 12.8341C43.9248 12.2513 44.5594 11.8275 45.3095 11.598C45.3865 11.5803 45.425 11.5273 45.4442 11.4567C45.4442 11.4214 45.4442 11.3861 45.4442 11.3508" fill="#F3F0EB"/>
</svg>
