<?xml version="1.0" encoding="UTF-8"?><svg id="Layer_2" xmlns="http://www.w3.org/2000/svg" viewBox="0 0 158 48"><defs><style>.cls-1{fill:#02503a;}.cls-2{fill:#ee3426;}.cls-3{fill:#fff;}</style></defs><g id="Layer_1-2"><g><path class="cls-3" d="m133.97,0H24.04C10.79,0,0,10.77,0,24s10.79,24,24.04,24h109.93c13.25,0,24.03-10.77,24.03-24S147.22,0,133.97,0Z"/><path class="cls-1" d="m7.19,37.42c11.02-4.19,33.77-9.61,68.58-10.67,3.85-.15,7.71-.23,11.59-.23h68.48c.1-.83.16-1.67.16-2.52,0-12.15-9.86-22-22.03-22H24.04C11.87,2.01,2.01,11.86,2.01,24c0,5.11,1.76,9.82,4.7,13.55.16-.05.32-.09.48-.13Z"/><path class="cls-2" d="m151.82,28.33h-58.97c-48.56,0-74.37,8-83.36,12.12,3.89,3.45,8.99,5.55,14.6,5.55h109.93c10.67,0,19.55-7.6,21.57-17.66h-3.77Z"/><path class="cls-3" d="m138.18,8.56c.3,0,.48-.19.48-.5s-.18-.49-.47-.49h-.43v.98h.42Zm-1.19-.98h-.29v-.56h1.66c.65,0,1.09.41,1.09,1.05,0,.51-.35.79-.59.85v.02s.12.03.21.18l.29.54c.06.11.13.11.2.11h.1v.55h-.43c-.24,0-.37-.05-.47-.24l-.44-.83c-.07-.14-.17-.14-.3-.14h-.25v1.22h-.77v-2.74h.01Zm1.13,3.69c1.39,0,2.46-1.14,2.46-2.58s-1.07-2.57-2.46-2.57-2.42,1.14-2.42,2.57,1.06,2.58,2.42,2.58Zm0-5.89c1.81,0,3.25,1.47,3.25,3.3s-1.45,3.31-3.25,3.31-3.23-1.48-3.23-3.31,1.45-3.3,3.23-3.3Z"/><path class="cls-3" d="m25.48,19.12s1.77,2.03,4.17,2.03c1.31,0,2.48-.7,2.48-2.03,0-2.93-8.1-2.69-8.1-8.04,0-2.78,2.42-4.84,5.74-4.84,2.01,0,5.11.95,5.11,3.39v1.6h-2.86v-.78c0-.8-1.13-1.33-2.27-1.33-1.46,0-2.52.75-2.52,1.84,0,2.93,8.09,2.35,8.09,7.99,0,2.74-2.11,5.06-5.72,5.06-3.81,0-5.91-2.66-5.91-2.66l1.8-2.22Z"/><path class="cls-3" d="m42.71,21.62c1.65,0,2.81-1.74,2.81-3.24v-.29h-.53c-1.6,0-4.14.22-4.14,1.94,0,.82.6,1.6,1.86,1.6Zm2.37-5.64h.39v-.1c0-1.77-.7-2.42-2.27-2.42-.56,0-1.65.14-1.65.83v.66h-2.86v-1.31c0-2.3,3.25-2.54,4.53-2.54,4.12,0,5.34,2.15,5.34,4.92v4.6c0,.34.2.53.53.53h.97v2.59h-2.76c-1.14,0-1.57-.63-1.57-1.35,0-.32.02-.53.02-.53h-.05s-.94,2.18-3.73,2.18c-2.2,0-4.22-1.38-4.22-3.85,0-3.89,5.33-4.2,7.35-4.2Z"/><path class="cls-3" d="m53.25,14.52c0-.37-.19-.53-.54-.53h-.97v-2.61h2.81c1.09,0,1.65.46,1.65,1.5v.73c0,.46-.05.78-.05.78h.05c.56-1.77,2.04-3.17,3.93-3.17.26,0,.56.05.56.05v3.02s-.31-.05-.75-.05c-1.31,0-2.81.75-3.37,2.59-.17.61-.27,1.29-.27,2.01v4.89h-3.06v-9.19Z"/><path class="cls-3" d="m70.14,21.42c1.7,0,3.13-1.38,3.13-3.83s-1.26-3.87-3.08-3.87c-1.6,0-3.1,1.16-3.1,3.9,0,1.92,1.02,3.81,3.05,3.81Zm-6.03-6.9c0-.37-.2-.53-.54-.53h-.97v-2.61h2.74c1.14,0,1.55.51,1.55,1.19v.48h.05s1.04-1.96,3.93-1.96c3.34,0,5.5,2.64,5.5,6.46s-2.42,6.46-5.67,6.46c-2.45,0-3.54-1.62-3.54-1.62h-.05s.05.43.05,1.06v5.11h-3.05v-14.03Z"/><path class="cls-3" d="m82.8,6.53v2.83h-2.67v-2.83h2.67Zm-2.81,7.99c0-.37-.2-.53-.54-.53h-.97v-2.61h2.93c1.14,0,1.62.51,1.62,1.65v7.57c0,.34.2.53.54.53h.97v2.59h-2.94c-1.14,0-1.62-.48-1.62-1.65v-7.55Z"/><path class="cls-3" d="m87.86,14.52c0-.37-.19-.53-.53-.53h-.97v-2.61h2.84c1.09,0,1.63.51,1.63,1.38v.37c0,.26-.05.53-.05.53h.05c.53-1.04,1.87-2.57,4.37-2.57,2.74,0,4.31,1.43,4.31,4.69v4.82c0,.34.19.53.54.53h.97v2.59h-2.93c-1.17,0-1.65-.48-1.65-1.65v-5.66c0-1.5-.39-2.52-1.94-2.52-1.65,0-2.88,1.04-3.32,2.52-.17.51-.24,1.06-.24,1.65v5.66h-3.06v-9.19Z"/><path class="cls-3" d="m109.7,21.4c2.01,0,3.68-1.55,3.68-3.85s-1.68-3.85-3.68-3.85-3.66,1.58-3.66,3.85,1.67,3.85,3.66,3.85Zm0-10.32c3.78,0,6.79,2.69,6.79,6.47s-3.01,6.46-6.79,6.46-6.76-2.66-6.76-6.46,3-6.47,6.76-6.47Z"/><path class="cls-3" d="m119.17,6.22h2.77l-1.82,5.3h-2.08l1.13-5.3Z"/><path class="cls-3" d="m124.65,19.8s1.57,1.82,3.69,1.82c.94,0,1.67-.39,1.67-1.21,0-1.74-6.52-1.72-6.52-5.71,0-2.47,2.23-3.61,4.8-3.61,1.67,0,4.34.56,4.34,2.57v1.28h-2.71v-.6c0-.58-.87-.87-1.55-.87-1.09,0-1.84.39-1.84,1.11,0,1.94,6.57,1.55,6.57,5.66,0,2.32-2.06,3.77-4.75,3.77-3.4,0-5.14-2.2-5.14-2.2l1.45-2Z"/><path class="cls-3" d="m77.65,35.18h1.15c.77,0,1.23.49,1.23,1.3s-.47,1.32-1.25,1.32h-1.12v-2.62h0Zm1.4-1.5h-3.81c-.06,0-.11.04-.11.1v1.3c0,.06.05.1.11.1h.66v6.9c0,.06.05.11.11.11h1.53c.06,0,.11-.05.11-.11v-2.76h1.4c1.62,0,2.75-1.17,2.75-2.84s-1.13-2.8-2.75-2.8Z"/><path class="cls-3" d="m86.66,33.68h-3.12c-.06,0-.11.04-.11.1v1.3c0,.06.05.1.11.1h.73v5.5h-.73c-.06,0-.11.05-.11.11v1.3c0,.06.05.11.11.11h3.12c.06,0,.1-.05.1-.11v-1.3c0-.06-.04-.11-.1-.11h-.73v-5.49h.73c.06,0,.1-.05.1-.1v-1.3c0-.06-.04-.11-.1-.11Z"/><path class="cls-3" d="m94.92,39.92h-1.38c-.06,0-.1.05-.1.11v.5c0,.11-.05.15-.15.15h-2.27c-.16,0-.29,0-.39,0,.12-.13.29-.33.48-.59l3.74-5.29s.02-.04.02-.06v-.96c0-.06-.04-.11-.1-.11h-5.4c-.61,0-.9.29-.9.9v1.26c0,.06.05.11.11.11h1.39c.06,0,.1-.05.1-.11v-.5c0-.11.05-.15.15-.15h2.01c.16,0,.29,0,.39-.01-.12.13-.29.33-.48.59l-3.73,5.28s-.02.04-.02.06v.97c0,.06.04.11.11.11h5.64c.63,0,.91-.28.91-.9v-1.26c0-.05-.05-.1-.11-.1Z"/><path class="cls-3" d="m102.96,39.92h-1.38c-.06,0-.11.05-.11.11v.5c0,.11-.05.15-.15.15h-2.27c-.15,0-.29,0-.39,0,.12-.13.29-.33.48-.59l3.73-5.29s.02-.04.02-.06v-.96c0-.06-.05-.11-.11-.11h-5.4c-.61,0-.9.29-.9.9v1.26c0,.06.05.11.11.11h1.39c.06,0,.11-.05.11-.11v-.5c0-.11.05-.15.15-.15h2.01c.16,0,.29,0,.39-.01-.12.13-.29.33-.48.59l-3.73,5.28s-.02.04-.02.06v.97c0,.06.05.11.11.11h5.65c.62,0,.9-.28.9-.9v-1.26c0-.05-.04-.1-.1-.1Z"/><path class="cls-3" d="m110.9,39.92h-1.39c-.06,0-.11.05-.11.11v.5c0,.11-.05.15-.15.15h-1.92c-.11,0-.15-.05-.15-.15v-1.87h2.59c.06,0,.1-.05.1-.11v-1.3c0-.06-.05-.11-.1-.11h-2.59v-1.96h1.77c.11,0,.15.05.15.15v.5c0,.06.04.11.1.11h1.39c.06,0,.11-.05.11-.11v-1.26c0-.6-.3-.9-.9-.9h-5.02c-.06,0-.11.05-.11.11v1.3c0,.06.05.1.11.1h.66v6.1c0,.62.28.9.9.9h3.77c.61,0,.9-.29.9-.9v-1.26c0-.06-.04-.11-.1-.11Z"/><path class="cls-3" d="m115.11,35.18h1.13c.7,0,1.1.43,1.1,1.18s-.41,1.21-1.12,1.21h-1.11v-2.39Zm4.48,5.5h-.15c-.26,0-.4-.03-.49-.21l-.81-1.6c-.08-.17-.2-.29-.29-.36.5-.22,1.27-.92,1.27-2.22,0-1.58-1.06-2.6-2.69-2.6h-3.72c-.06,0-.11.04-.11.1v1.3c0,.06.05.1.11.1h.66v6.9c0,.06.04.11.1.11h1.54c.06,0,.1-.05.1-.11v-3h.67c.42,0,.55.06.69.33l1.06,2.1c.3.58.63.68,1.26.68h.81c.06,0,.11-.05.11-.11v-1.3c0-.05-.05-.1-.11-.1Z"/><path class="cls-3" d="m124.43,33.68h-3.12c-.06,0-.1.04-.1.1v1.3c0,.06.04.1.1.1h.73v5.5h-.73c-.06,0-.1.05-.1.11v1.3c0,.06.04.11.1.11h3.12c.06,0,.1-.05.1-.11v-1.3c0-.06-.04-.11-.1-.11h-.73v-5.49h.73c.06,0,.1-.05.1-.1v-1.3c0-.06-.04-.11-.1-.11Z"/><path class="cls-3" d="m129.99,35.78c.07.26.16.61.24.87l.67,1.94h-1.81l.67-1.94c.09-.26.18-.6.24-.87Zm3.82,4.9h-.19c-.16,0-.21-.03-.26-.19l-2.46-6.74s-.05-.07-.1-.07h-1.61s-.08.03-.1.07l-2.47,6.75c-.05.16-.1.19-.26.19h-.19c-.06,0-.1.05-.1.11v1.3c0,.06.05.11.1.11h.93c.63,0,.86-.17,1.07-.75l.49-1.38h2.67l.49,1.38c.21.57.46.75,1.09.75h.91c.06,0,.11-.05.11-.11v-1.3c-.01-.06-.06-.11-.12-.11Z"/></g></g></svg>