<svg width="174" height="168" viewBox="0 0 174 168" fill="none" xmlns="http://www.w3.org/2000/svg">
<path d="M152.283 115.965C152.659 112.33 152.301 107.96 150.958 103.788C155.149 131.312 134.107 151.458 106.869 144.707C98.2556 142.218 93.2594 137.293 92.0596 136.415C111.991 158.048 148.809 147.876 152.283 115.965Z" fill="#F3F0EB"/>
<path d="M157.764 86.65C159.071 87.0798 165.446 86.0769 166.503 85.0204C165.249 84.6085 158.498 85.6292 157.764 86.65Z" fill="#F3F0EB"/>
<path d="M72.9892 101.44C69.8553 101.673 66.6857 101.691 66.1484 101.941C68.9241 103.302 77.9138 102.568 80.2597 100.616C80.0985 100.616 74.78 101.297 72.9892 101.44Z" fill="#F3F0EB"/>
<path d="M120.14 95.8896C120.14 95.8896 115.269 97.5372 112.35 98.146C109.198 98.7549 107.3 98.8623 106.207 99.0235C105.652 99.0951 105.312 99.1489 105.097 99.2026C104.882 99.2563 104.811 99.2921 104.811 99.2921C108.714 100.671 117.74 98.6654 120.14 95.9076V95.8896Z" fill="#F3F0EB"/>
<path d="M99.6898 102.801C99.6898 102.801 99.9942 102.927 100.585 102.372C102.34 100.455 99.7077 97.1605 96.1082 98.3424C95.5173 98.5573 95.374 98.7184 95.374 98.7184C96.1441 99.0229 97.899 98.8259 99.1705 99.6676C101.122 100.993 99.6898 102.801 99.6898 102.801Z" fill="#F3F0EB"/>
<path d="M123.666 98.1463C123.97 98.3612 124.364 98.4866 124.776 98.4149C125.618 98.2896 125.618 97.6628 125.618 97.6628C125.618 97.627 125.385 97.9672 124.776 97.8419C124.454 97.7703 124.257 97.5912 124.131 97.3942C123.845 96.8749 124.149 96.069 124.848 95.6034C125.027 95.496 125.206 95.3885 125.385 95.299C126.083 94.9587 126.853 94.7618 127.534 94.3857C127.785 94.2424 128.017 94.0992 128.232 93.8843C128.77 93.3471 128.716 93.0605 128.716 93.0784C128.483 93.1859 128.25 93.2933 128.035 93.365C127.319 93.6336 126.728 93.7589 126.173 93.8843C125.51 94.0275 124.884 94.2066 124.167 94.6901C123.164 95.3885 122.806 96.5704 123.147 97.4479C123.254 97.7344 123.451 97.9672 123.684 98.1284L123.666 98.1463Z" fill="#F3F0EB"/>
<path d="M127.912 105.792C128.091 105.971 128.288 106.15 128.556 106.329C129.344 106.866 130.329 106.992 131.225 106.902C132.478 106.777 133.606 106.24 133.857 105.846C133.392 105.792 132.675 105.899 131.905 105.935C130.974 105.971 129.935 105.935 129.147 105.362C128.932 105.219 128.771 105.04 128.61 104.879C128.001 104.162 127.894 103.249 128.61 102.461C129.129 101.96 129.488 101.906 129.47 101.888C128.18 101.154 125.906 103.786 127.894 105.792H127.912Z" fill="#F3F0EB"/>
<path d="M130.238 113.708C129.987 113.511 129.719 113.296 129.432 113.063C129.146 112.813 128.788 112.544 128.519 112.24C128.215 111.917 128.089 111.613 128.107 111.434C128.107 111.255 128.233 111.093 128.43 110.95C128.823 110.7 129.271 110.717 129.629 110.771C129.987 110.825 130.238 110.861 130.417 110.896C130.578 110.914 130.668 110.896 130.668 110.896C130.184 110.216 129.504 109.929 128.877 109.929C127.731 109.912 126.728 110.789 127.086 111.989C127.194 112.311 127.373 112.669 127.713 113.027C129.307 114.675 131.689 115.427 132.19 115.248C132.19 115.248 131.993 115.033 131.402 114.585C131.098 114.353 130.722 114.066 130.22 113.69L130.238 113.708Z" fill="#F3F0EB"/>
<path d="M126.532 117.576C126.317 117.2 126.156 116.895 126.084 116.645C125.941 116.107 126.03 115.875 126.299 115.678C126.836 115.319 127.123 115.695 127.123 115.678C127.123 115.678 127.141 115.606 127.051 115.427C126.944 115.266 126.604 115.033 126.102 115.158C125.869 115.212 125.565 115.355 125.35 115.695C125.153 116.036 125.099 116.448 125.171 116.877C125.332 117.755 125.798 118.471 126.317 119.42C128.466 123.199 129.379 123.521 129.379 123.521C129.379 123.521 129.254 122.303 127.284 118.847C127.015 118.382 126.783 117.97 126.55 117.594L126.532 117.576Z" fill="#F3F0EB"/>
<path d="M120.157 126.17C120.354 126.923 120.515 127.12 120.515 127.12C120.515 127.12 120.623 126.833 120.712 126.009C120.766 125.597 120.802 125.06 120.82 124.344C120.82 123.986 120.82 123.592 120.82 123.162C120.82 122.732 120.784 122.213 120.82 121.747C120.82 121.246 120.927 120.816 121.088 120.601C121.231 120.386 121.428 120.297 121.679 120.315C122.198 120.332 122.592 120.673 122.861 120.941C123.13 121.228 123.309 121.461 123.434 121.604C123.559 121.747 123.631 121.783 123.631 121.783C123.631 121.783 123.631 121.711 123.595 121.514C123.559 121.335 123.524 121.031 123.327 120.619C123.13 120.225 122.754 119.545 121.769 119.348C121.285 119.24 120.587 119.437 120.193 119.974C119.799 120.512 119.709 121.138 119.691 121.765C119.745 124.111 119.978 125.382 120.175 126.17H120.157Z" fill="#F3F0EB"/>
<path d="M115.071 119.098C114.839 118.955 114.534 118.883 114.23 118.901C113.871 118.901 113.513 119.009 113.191 119.223C112.779 119.492 112.475 119.868 112.224 120.28C112.117 120.459 112.009 120.638 111.92 120.817C111.042 122.68 110.773 124.076 110.702 125.043C110.684 125.348 110.666 125.617 110.666 125.831C110.684 126.745 110.845 126.995 110.845 126.995C110.845 126.995 110.988 126.673 111.257 125.778C111.364 125.437 111.49 125.008 111.669 124.506C111.937 123.665 112.331 122.608 112.976 121.283C113.245 120.764 113.549 120.334 113.854 120.119C114.158 119.904 114.409 119.886 114.677 119.994C114.928 120.101 115.143 120.334 115.286 120.549C115.429 120.764 115.519 121.014 115.573 121.229C115.644 121.516 115.698 121.748 115.734 121.945C115.752 122.053 115.77 122.142 115.788 122.214C115.841 122.429 115.859 122.501 115.859 122.501C115.859 122.501 115.895 122.429 115.967 122.214C116.003 122.089 116.056 121.928 116.092 121.695C116.11 121.534 116.146 121.372 116.146 121.158C116.146 120.656 116.074 119.743 115.089 119.134L115.071 119.098Z" fill="#F3F0EB"/>
<path d="M110.184 116.573C110.184 116.412 110.184 116.215 110.077 115.982C110.005 115.821 109.898 115.678 109.754 115.552C109.683 115.481 109.593 115.427 109.504 115.391C109.253 115.266 108.877 115.302 108.68 115.391C108.447 115.463 108.268 115.57 108.089 115.696C107.731 115.964 107.534 116.179 107.247 116.43C106.209 117.361 105.421 118.131 104.776 118.794C102.717 120.889 102.52 121.587 102.52 121.587C102.52 121.587 103.97 120.943 108.053 117.236C108.322 117.003 108.59 116.716 108.787 116.591C108.895 116.519 108.984 116.466 109.056 116.448C109.127 116.448 109.074 116.448 109.092 116.448C109.11 116.484 109.127 116.573 109.145 116.681C109.145 116.949 109.145 117.182 109.163 117.415C109.199 118.382 109.253 119.116 109.324 119.671C109.45 120.781 109.611 121.157 109.611 121.157C109.611 121.157 109.736 120.781 109.898 119.671C109.969 119.116 110.059 118.364 110.13 117.397C110.13 117.146 110.166 116.931 110.166 116.591L110.184 116.573Z" fill="#F3F0EB"/>
<path d="M96.681 112.436C97.0929 112.4 98.6508 112.114 100.101 111.845C101.247 111.648 102.322 111.451 102.77 111.433C102.985 111.433 103.181 111.433 103.343 111.469C103.396 111.469 103.432 111.505 103.468 111.523C103.629 111.612 103.683 111.72 103.701 111.917C103.701 112.131 103.665 112.4 103.575 112.669C103.396 113.224 103.181 113.725 102.985 114.155C102.591 115.032 102.214 115.677 101.928 116.143C101.838 116.286 101.212 117.325 101.14 117.468C101.516 117.289 102.071 116.787 102.376 116.483C102.788 116.071 103.325 115.462 103.844 114.549C104.113 114.101 104.381 113.582 104.614 112.955C104.722 112.633 104.847 112.239 104.811 111.755C104.811 111.254 104.614 110.914 104.31 110.681C103.969 110.412 103.468 110.305 102.877 110.305C100.603 110.287 97.075 111.881 96.6631 112.4L96.681 112.436Z" fill="#F3F0EB"/>
<path d="M167.451 114.137C157.494 168.863 104.058 172.892 80.3299 137.596C79.524 136.396 78.8256 135.268 78.2168 134.212C77.6258 133.191 77.1065 132.26 76.6588 131.4C75.6201 129.395 74.9397 127.819 74.4561 126.726C74.3308 126.458 74.2233 126.207 74.1338 126.01C74.2233 126.261 74.3129 126.493 74.3845 126.726C74.9396 128.338 75.5485 129.896 76.2111 131.4C76.6409 132.367 77.0886 133.316 77.5542 134.23C100.601 180.181 171.534 169.848 169.134 98.647C168.866 103.124 168.651 107.547 167.487 114.119L167.451 114.137Z" fill="#F3F0EB"/>
<path d="M173.558 97.3401C173.092 79.3787 170.746 78.5728 161.47 80.668C147.717 83.7661 155.471 83.9989 147.108 85.5389C144.852 85.9508 142.542 86.2194 140.267 86.6492C143.849 70.2278 139.838 53.0901 131.6 40.4831C122.951 27.2493 111.293 22.056 94.8713 19.3878C93.0626 17.991 88.2454 14.5527 85.9532 14.6602C83.2492 13.5499 80.4914 14.7676 78.1634 16.5584C74.0267 14.5348 68.8692 14.1408 63.9625 14.0513C61.2943 10.1832 57.6053 -0.203269 54.0058 0.477225C52.233 0.799564 50.281 0.907012 48.6872 1.73077C47.1472 2.53662 44.7296 4.18413 45.1773 6.17188C45.5355 7.74776 47.8456 8.5178 48.9379 9.59226C50.6571 11.2756 52.3404 13.0126 53.8984 14.875C51.445 15.3048 48.9021 15.9674 46.4129 16.8091C46.0011 16.9523 43.5119 15.1616 42.9747 14.893C40.7004 13.8185 38.4798 13.0664 35.4534 13.9797C30.9944 15.3406 27.4666 17.8656 23.9567 20.8204C28.362 21.0353 32.3375 18.1163 39.1782 19.9071C37.7277 19.531 32.051 25.2257 29.329 26.3181C17.8143 30.9025 2.68225 48.2551 0.658679 67.8819C-2.7617 101.011 25.5325 127.64 54.543 131.723C59.396 149.344 76.8203 166.016 112.528 167.234C154.522 168.667 174.579 138.259 173.522 97.358L173.558 97.3401ZM107.281 164.548C97.3067 162.739 91.6658 157.904 84.3594 150.884C79.3095 146.031 75.4593 140.355 72.4687 134.212C72.0031 133.263 71.5554 132.296 71.1256 131.311C70.4451 129.753 69.8184 128.177 69.2274 126.566C68.8693 125.581 68.529 124.596 68.2067 123.611C67.9201 122.733 67.6336 121.838 67.3829 120.943C67.1143 120.065 66.8636 119.188 66.6308 118.292C64.84 111.72 63.6044 104.987 62.5657 98.3967C87.5112 100.026 81.9419 98.0206 90.4123 96.6238C94.6385 95.9254 98.1663 96.7134 102.446 96.4806C104.47 96.3731 106.44 96.015 108.427 96.0329C113.352 96.1045 112.707 93.3467 121.088 91.6276C122.933 91.2515 124.885 91.6276 127.428 91.3948C127.929 91.3411 128.448 91.2694 129.003 91.1799C130.615 90.8755 132.442 90.2845 134.591 89.1563C135.414 88.7265 136.238 88.2072 137.151 88.0818C137.241 88.0818 137.313 88.0639 137.402 88.046C138.298 88.0102 139.282 88.5295 139.497 89.4428C139.515 89.5324 139.497 89.604 139.515 89.6756C139.515 89.9622 139.444 90.2308 139.282 90.4815C138.62 91.4485 136.811 92.2185 135.217 93.4004C134.447 93.9735 133.713 94.654 133.212 95.4957C132.71 96.3552 132.8 97.0536 133.14 97.6983C133.498 98.3609 134.143 98.9518 134.734 99.5607C134.967 99.7935 135.164 100.026 135.325 100.241C136.489 101.853 136.184 103.429 136.31 105.649C136.381 107.064 136.829 108.55 136.883 109.929C136.919 111.254 135.826 112.042 135.379 113.332C134.25 116.645 136.023 121.104 136.722 120.996C134.609 121.337 132.639 122.894 131.314 124.506C129.988 126.1 129.648 128.159 127.374 128.732C126.138 129.037 124.885 128.464 123.685 128.786C121.142 129.467 118.689 132.815 116.146 130.989C110.917 127.264 109.735 130.416 106.601 130.81C104.506 131.078 104.774 129.431 104.541 128.106C104.541 128.016 104.506 127.944 104.488 127.855C104.309 127.192 103.807 126.315 103.073 125.491C102.339 124.667 101.372 123.897 100.297 123.432C99.3482 123.02 98.2021 122.912 97.3963 122.304C97.1814 122.142 96.9844 121.945 96.8232 121.695C97.1276 121.157 97.2888 120.566 97.3784 119.94C97.5395 118.668 97.3246 117.289 96.8769 116.161C96.8053 116 96.7337 115.839 96.662 115.696C96.3218 115.033 95.8383 114.514 95.3548 114.012C94.8713 113.529 94.3699 113.063 93.958 112.49C93.0268 111.183 93.9222 110.252 94.8534 109.159C104.273 98.2355 78.8797 92.7558 77.2501 114.048C77.1426 115.481 77.1784 116.949 77.3575 118.435C77.447 119.277 77.5903 120.119 77.7694 120.96C77.9843 121.927 78.235 122.894 78.5573 123.861C78.8259 124.721 79.1483 125.563 79.5064 126.422C80.1511 127.98 80.9391 129.538 81.8165 131.06C82.3538 131.974 82.9268 132.869 83.5357 133.747C92.9014 147.285 111.346 157.671 130.311 151.153C151.531 143.882 163.995 119.044 155.543 92.0932C153.985 87.1148 152.373 85.4315 154.128 83.9989C155.023 83.2468 156.922 83.1751 158.068 82.8707C161.112 82.029 164.353 80.9546 167.559 81.5813C171.319 82.3335 171.534 89.998 171.731 96.8745C173.003 144.778 141.073 170.583 107.317 164.494L107.281 164.548ZM55.6712 129.198C55.2773 127.55 55.0087 125.903 54.8475 124.238C54.758 123.181 54.7042 122.107 54.7042 121.05C54.7042 120.155 54.74 119.259 54.8117 118.364C54.8833 117.504 54.9728 116.627 55.1161 115.767C55.9399 110.502 57.9634 105.327 61.2047 100.599C61.9568 106.401 63.1746 112.311 64.8221 118.077C65.0907 118.991 65.3593 119.886 65.6279 120.781C65.9145 121.659 66.201 122.554 66.4875 123.432C66.8278 124.452 67.2038 125.455 67.5799 126.458C68.1888 128.07 68.8334 129.664 69.5139 131.239C69.9437 132.224 70.3735 133.191 70.8212 134.141C75.6742 144.402 82.1747 153.284 90.2153 159.05C80.6705 153.893 72.4329 144.921 66.9173 133.8C66.4338 132.833 65.9861 131.866 65.5563 130.881C64.8579 129.288 64.2132 127.676 63.6402 126.01C63.2641 124.972 62.9239 123.915 62.6015 122.841C62.5478 122.68 62.4941 122.501 62.4404 122.339C62.4762 122.501 62.512 122.662 62.5478 122.841C62.7627 123.897 62.9955 124.936 63.2641 125.975C63.6939 127.622 64.1774 129.234 64.7326 130.81C65.0728 131.795 65.4489 132.744 65.8428 133.693C70.9107 145.87 79.9541 155.128 91.3076 160.859C78.1455 156.901 66.6487 147.858 59.2349 132.511C59.1633 132.35 59.0737 132.189 59.0021 132.01C59.0558 132.171 59.1095 132.332 59.1632 132.493C61.7061 139.978 65.1265 146.228 72.2359 152.782C64.2132 146.998 58.9663 139.692 56.4413 131.92C56.1548 131.025 55.904 130.129 55.6712 129.216V129.198ZM84.3415 130.846C83.3924 129.323 82.5686 127.783 81.8523 126.243C81.4763 125.419 81.1181 124.596 80.8137 123.772C80.4377 122.787 80.1153 121.784 79.8288 120.817C79.596 119.976 79.399 119.134 79.2378 118.31C78.629 115.033 78.6648 111.953 79.4885 109.303C81.6196 102.354 88.1738 98.7907 94.7817 101.817C96.0532 104.145 95.5876 108.067 93.4028 109.768C91.5584 111.201 88.6931 110.162 86.6695 110.914C82.4612 112.508 83.7327 116.448 88.4603 114.836C90.0541 114.299 91.63 113.242 92.4895 111.756C92.794 112.902 93.7252 113.493 94.6027 114.388C95.0683 114.854 95.498 115.427 95.8204 116.197C95.9636 116.537 96.0711 116.931 96.1606 117.361C96.4472 119.026 96.3218 119.958 95.892 120.566C94.9071 121.963 92.3463 121.533 89.7318 124.058C89.4273 124.363 89.1766 124.667 88.9796 124.99C87.35 127.676 89.7497 130.649 93.7968 127.049C95.0683 125.903 96.1248 124.345 96.6083 122.68C97.0918 123.396 98.22 123.754 99.0617 124.041C100.136 124.381 101.246 125.097 102.106 125.993C102.822 126.763 103.36 127.658 103.503 128.607C103.628 129.413 103.503 130.219 102.948 130.989C101.73 132.744 96.8411 138.08 100.781 139.584C102.393 140.211 103.825 139.226 104.559 137.776C105.15 136.63 105.437 135.108 105.437 133.818C105.437 132.851 105.491 132.081 106.511 131.687C107.693 131.257 108.803 130.487 110.039 130.201C112.922 129.538 115.035 130.935 117.023 132.78C115.161 135.251 111.74 143.381 117.059 143.435C118.921 143.435 120.211 141.912 120.533 140.175C120.963 137.704 119.476 134.982 118.205 132.815C122.557 129.914 123.739 128.679 128.878 130.075C128.771 132.296 128.914 135.054 130.275 136.898C131.081 137.991 132.71 138.653 133.821 137.525C136.399 134.946 131.833 130.452 129.523 129.288C131.564 123.682 135.361 122.626 137.169 121.623C138.405 123.306 140.142 124.238 142.291 124.685C143.67 124.972 145.64 125.473 147.001 124.864C149.561 123.718 146.947 121.157 145.461 120.495C142.757 119.313 139.855 119.868 137.116 120.495C137.08 120.441 137.008 120.405 136.972 120.387C134.465 115.588 136.704 112.956 137.921 111.237C139.838 112.472 142.112 113.26 144.422 113.224C148.863 113.153 147.878 108.64 143.616 108.013C141.575 107.727 139.569 108.461 137.832 109.517C137.187 106.688 137.08 103.554 137.169 100.635C150.099 105.363 149.687 94.2063 143.097 95.3703C140.912 95.7822 139.551 97.4476 137.671 98.4862C137.187 98.7549 136.632 98.8623 136.113 98.8086C135.11 98.719 134.232 98.0386 134.25 96.8387C134.304 94.0272 135.701 93.5258 138.208 92.2902C138.423 92.1827 138.656 92.0574 138.871 91.932C139.891 91.359 140.912 90.5173 140.733 89.2638C140.661 88.7444 140.375 88.2967 139.981 88.046C139.784 87.9207 139.569 87.849 139.336 87.849C139.587 87.7595 139.838 87.67 140.106 87.5983C143.813 86.4702 147.645 87.0969 151.692 86.0762C163.1 112.651 153.483 134.857 137.886 145.118C116.862 158.943 96.5725 147.983 86.1323 133.478C85.5055 132.618 84.9325 131.741 84.3773 130.863L84.3415 130.846ZM91.7016 111.523C91.7016 111.523 91.63 111.559 91.5763 111.631C90.5197 112.508 86.3293 116.304 85.2548 113.708C84.0908 110.896 90.7346 111.487 91.7016 111.523ZM95.4085 123.091C95.1399 123.736 94.9787 124.399 94.4952 125.008C90.5376 130.147 87.7261 127.228 90.3585 124.649C91.3434 123.682 93.0805 122.769 95.7846 122.321C95.6234 122.572 95.4981 122.841 95.3906 123.109L95.4085 123.091ZM104.47 133.961C104.506 134.803 104.953 137.704 102.285 138.635C101.246 138.994 99.581 138.761 100.458 136.11C101.103 134.248 102.769 132.636 104.452 131.687C104.201 131.848 104.452 133.675 104.452 133.961H104.47ZM117.507 133.747C118.689 135.931 121.679 140.355 118.205 142.181C116.54 143.059 115.143 141.698 115.125 139.961C115.268 137.776 116.45 135.627 117.507 133.729V133.747ZM131.582 136.952C129.576 135.43 130.06 132.278 130.042 130.559C130.042 130.649 132.263 132.368 132.478 132.636C133.212 133.514 133.91 134.606 133.713 135.806C133.803 136.809 133.086 137.203 131.582 136.952ZM138.512 121.641C138.512 121.641 138.459 121.551 138.477 121.498C138.602 121.068 140.823 120.495 140.912 120.477C142.184 120.369 143.455 120.62 144.673 120.996C148.738 122.196 146.678 124.238 145.479 124.435C144.297 124.632 142.971 124.094 141.861 123.772C140.411 123.36 139.587 122.626 138.512 121.623V121.641ZM138.691 110.699C139.676 109.822 140.321 108.944 141.664 108.765C147.18 107.995 148.899 113.905 141.718 112.096C141.557 112.06 138.459 110.896 138.691 110.699ZM137.205 99.8114C137.205 99.7219 137.169 99.6323 137.116 99.5607C139.82 98.719 141.879 95.2091 145.049 96.4627C146.678 97.1073 147.287 99.4174 145.622 100.402C142.792 102.05 137.921 100.008 137.205 99.8114ZM93.7968 20.1936C90.4481 18.958 86.4188 18.7252 83.1417 19.6027C86.2576 14.0692 89.5885 17.3821 93.7968 20.1936ZM83.5178 16.0749C81.4405 18.2775 73.5253 32.4604 72.3792 35.0392C71.6987 33.1409 70.9824 31.2248 70.2481 29.3266C70.3377 26.5867 77.6619 17.6328 83.5178 16.0749ZM62.1897 42.4529C57.9455 40.7517 53.4865 39.9996 49.0454 38.943C40.3422 36.8657 39.8229 33.0514 22.0584 46.9478C32.4449 34.5556 39.5006 30.3831 49.7975 33.123C65.807 42.3455 62.0643 37.976 62.7985 42.5067C63.4074 46.321 68.7976 45.748 71.1972 44.1721C74.0088 42.3455 74.0804 39.91 73.0417 36.9911C73.2208 36.7225 73.3999 36.4359 73.5611 36.1494C75.2802 40.3398 83.6789 38.3521 86.7949 37.7969C100.996 35.2361 104.452 42.9544 110.075 45.8375C102.07 45.6226 101.175 36.5076 85.022 41.8799C82.694 42.6499 80.4555 43.6349 78.2171 44.4944C75.8353 45.4077 73.185 44.2079 70.7317 44.763C58.6977 47.4671 52.6269 62.0082 49.5826 72.4663C48.9738 60.3607 50.8899 48.0223 62.2792 43.993C62.9955 43.7423 62.7985 42.7037 62.1897 42.4709V42.4529ZM57.8023 35.4689C57.8023 35.4689 57.8023 35.4689 57.8202 35.4689C57.8202 35.4689 57.8381 35.4689 57.856 35.4689C57.856 35.4689 57.8202 35.451 57.8023 35.4331V35.4689ZM77.0889 17.4896C76.1398 18.3312 70.6421 23.7931 69.2811 26.909C66.7024 20.319 65.6638 18.2238 64.4639 15.1795C69.8005 15.3765 72.5224 16.6837 77.0889 17.4896ZM55.0803 1.40843C54.9549 1.62332 55.0445 1.7845 55.1877 1.94567C53.7551 3.16339 51.7136 6.01072 46.6815 5.49139C46.7353 3.30665 51.1048 1.06818 55.0982 1.39052L55.0803 1.40843ZM47.953 6.97773C51.7495 7.64032 55.2594 5.34813 56.3159 3.46782C56.2443 3.59317 57.5157 5.40185 57.6232 5.59884C63.4611 15.8779 72.4687 36.3643 71.3226 41.3069C70.8212 43.4737 67.365 43.5274 65.6279 43.0797C63.6581 42.5783 65.5205 41.1099 64.6788 35.0571C63.3716 25.7629 57.4441 12.6366 47.953 6.97773ZM54.74 15.8241C57.2471 19.0117 58.8767 21.9307 60.2735 25.4943C59.414 24.9392 55.528 22.7724 54.7042 22.3247C54.7042 22.3247 54.7042 22.3247 54.6863 22.3247C52.4478 20.713 49.4035 18.6715 47.7202 17.597C50.1198 16.7733 52.806 16.1465 54.74 15.8421V15.8241ZM27.574 18.958C36.116 14.7318 36.9756 13.9618 41.5599 15.9853C47.8635 18.7431 57.4083 27.0344 61.3122 28.5745C61.9927 30.8487 62.4583 33.0514 62.6015 35.4331C46.7711 29.4519 51.642 14.1229 27.5561 18.9401L27.574 18.958ZM25.6042 115.266C-3.51381 92.3618 -7.3819 51.765 28.9171 28.4849C32.9821 25.8704 36.5816 22.7007 40.9511 20.4443C43.4403 21.3755 45.7145 22.844 47.7202 24.6169C50.7287 29.6489 55.8145 34.1796 57.4083 35.2361C41.5599 26.0495 36.3488 30.5443 26.0698 40.6085C22.4345 44.1542 22.0942 44.5302 19.6409 49.0251C18.3157 51.4426 20.4467 50.0995 27.3412 45.4973C40.2706 36.8657 38.9096 39.0505 49.2782 40.8771C52.7165 41.4859 56.1368 42.1485 59.4498 43.2409C55.2056 45.7122 51.9822 49.5265 49.9587 54.0393C47.2546 60.0921 46.8248 76.9611 48.5081 76.9611C48.6156 77.0865 48.8305 77.0865 48.92 76.8895C51.6778 71.0695 54.0595 65.0883 57.3546 59.5369C66.3443 44.4586 71.8777 47.0552 74.9579 46.715C76.7307 46.518 78.4678 46.0166 80.1511 45.4256C90.1257 42.0052 92.1314 39.14 101.479 43.8318C105.222 45.7122 108.445 46.8762 112.672 46.518C109.824 44.0646 106.78 42.0948 103.718 39.928C100.852 37.8865 97.826 36.1315 94.2624 35.8092C85.8458 35.0571 76.3189 38.5491 74.1878 35.1645C74.1878 35.1645 82.4433 20.8383 82.4791 20.8025C82.7836 20.2653 86.7233 20.4085 87.4396 20.4085C92.8835 20.4085 95.2831 23.1126 99.9929 23.0589C99.2587 22.1814 97.5932 20.8741 96.4651 20.6234C108.678 23.417 119.405 28.2879 127.284 38.746C138.96 54.2541 141.969 71.6784 137.402 87.4372C134.823 88.3505 132.388 89.604 129.612 89.801C131.242 85.5748 132.227 81.4739 132.8 76.2448C131.654 81.0978 130.114 85.6285 128.215 89.8368C109.394 90.2129 117.077 95.9075 101.533 95.048C79.6318 93.8302 93.2059 100.886 65.5026 97.555C63.9088 97.376 62.4583 96.7313 61.348 97.9669C57.3008 102.551 54.6147 108.604 53.6119 115.248C39.9483 110.287 31.8898 101.62 30.0095 100.295C35.6683 108.622 44.0133 114.478 53.3253 117.827C53.2537 118.74 53.2 119.671 53.2 120.62C35.919 115.534 25.5325 108.694 15.3788 93.5974C8.69925 83.1751 7.91132 74.275 7.4099 71.9291C8.43064 97.6088 28.9171 116.77 53.2716 123.808C53.3791 125.473 53.6118 127.139 53.9342 128.804C43.6014 126.207 33.7164 121.677 25.6042 115.302V115.266Z" fill="#F3F0EB"/>
</svg>
