<svg width="134" height="149" viewBox="0 0 134 149" fill="none" xmlns="http://www.w3.org/2000/svg">
<g clip-path="url(#clip0_2694_7674)">
<path d="M80.6949 74.6866C66.1113 60.8802 51.3529 47.2803 36.0677 34.4548C35.9425 34.078 35.5382 33.7432 35.1221 33.9347C26.9546 37.6629 23.285 48.6336 22.5912 58.0392C21.8081 68.5939 25.54 80.5139 34.1086 87.8535C41.2606 93.9751 50.6217 95.89 58.6226 94.1108C68.4841 91.9255 75.8804 84.4723 80.8744 75.6697C81.0263 75.4055 80.9416 74.9228 80.6873 74.6909L80.6949 74.6866ZM73.9168 70.2748C74.072 70.422 74.2882 70.6049 74.5298 70.7969C74.5069 70.81 74.4917 70.8187 74.4791 70.8496C70.0476 77.6531 65.0031 83.8991 56.9594 85.8682C50.6367 87.4168 42.9289 85.6515 37.48 80.4184C25.2516 68.673 30.31 47.8509 38.0291 37.8041C38.1026 37.703 38.1227 37.597 38.1149 37.4952C48.5132 46.9493 58.9495 56.3462 69.2491 65.9277C70.8058 67.3724 72.3601 68.8302 73.9143 70.2881L73.9168 70.2748ZM78.5643 74.6572C79.5901 77.398 75.3865 81.0368 73.833 82.7542C69.4994 87.5418 64.0008 91.2504 57.6141 92.5288C44.7137 95.1112 30.8191 87.3201 25.8988 72.6227C21.5326 59.579 24.8715 41.3487 35.6654 35.2522C36.2962 35.8231 36.927 36.3939 37.5502 36.9691C37.4791 36.9862 37.4132 37.0123 37.3599 37.0782C28.2265 47.1806 23.8681 70.3165 37.3689 82.1821C51.5565 94.6455 69.0073 85.0615 75.6131 71.663C76.8491 72.6541 78.2606 73.8279 78.5643 74.6572Z" fill="#F3F0EB"/>
<path d="M50.5546 63.875C50.6023 63.5879 50.3833 63.206 50.0584 63.3096C48.693 63.7504 41.8654 66.9581 44.9305 69.7806C46.0218 70.7839 47.6409 70.2566 48.5157 69.5424C49.9204 68.3943 50.4932 66.3776 50.9113 64.5322C50.9869 64.2056 50.7884 63.9652 50.5495 63.8662L50.5546 63.875ZM47.8332 68.4935C47.595 68.7482 47.3033 68.9273 46.9607 69.0176C46.3747 69.3537 46.0315 69.161 45.9006 68.4214C45.4903 67.5825 45.6398 67.4377 46.1543 66.9065C46.5675 66.4806 47.1433 66.1268 47.6328 65.7988C48.3404 65.3221 49.0862 64.8943 49.8142 64.4532C49.5544 65.4286 49.2489 66.3948 48.7807 67.2536C48.5225 67.7204 48.2237 68.1515 47.8281 68.4846L47.8332 68.4935Z" fill="#F3F0EB"/>
<path d="M47.7931 56.6412C46.3541 55.7547 40.526 52.8405 40.9492 56.5054C41.0809 57.7049 41.9763 58.5608 43.0433 58.7988C44.753 59.1876 46.2237 58.0136 47.7186 57.5694C47.7973 57.5478 47.8479 57.4952 47.8757 57.4202C48.104 57.2539 48.1566 56.8695 47.7981 56.6501L47.7931 56.6412ZM42.2024 57.2269C41.7162 56.5732 41.8773 55.8314 42.5806 55.735C43.0807 55.6725 43.7491 55.9384 44.2547 56.097C45.1135 56.36 45.9293 56.7067 46.7477 57.1109C45.268 57.5464 43.2538 58.6545 42.2024 57.2269Z" fill="#F3F0EB"/>
<path d="M61.0749 67.2984C60.6045 66.9897 60.2498 67.4293 60.3572 67.8635C60.1894 67.7472 59.9533 67.7764 59.9004 68.0192C59.5276 69.6262 59.1171 71.538 59.9963 73.2295C60.6513 74.4949 61.9787 75.5397 63.2683 75.2841C64.6162 75.0069 65.1441 73.4763 64.9333 72.0507C64.6196 69.9167 62.73 68.3679 61.0825 67.2941L61.0749 67.2984ZM63.6037 71.2314C64.1595 72.4473 63.9422 74.449 62.3977 74.1543C59.8346 73.6529 60.2265 69.9808 60.5154 68.245C60.5204 68.2185 60.5127 68.1875 60.5127 68.1521C60.5407 68.1833 60.5661 68.2277 60.6094 68.2501C61.6723 69.0807 62.9892 69.8956 63.5986 71.2225L63.6037 71.2314Z" fill="#F3F0EB"/>
<path d="M58.7507 89.9277C56.464 90.6136 54.1819 91.096 51.7367 91.1881C51.4777 91.195 51.5039 91.6286 51.7629 91.6217C54.2158 91.5606 56.6557 91.3182 58.9755 90.6723C59.4045 90.5562 59.1694 89.7938 58.7507 89.9277Z" fill="#F3F0EB"/>
<path d="M60.2554 87.5072C58.075 87.9904 55.8664 88.4071 53.7166 88.9791C53.3664 89.0737 53.5401 89.6588 53.9032 89.604C56.1271 89.2847 58.3151 88.7971 60.516 88.3848C61.0288 88.2914 60.7656 87.3917 60.2503 87.4983L60.2554 87.5072Z" fill="#F3F0EB"/>
<path d="M136.502 51.4625C136.22 51.3763 135.864 51.4621 135.74 51.7574C128.838 69.5761 122.139 87.7501 117.174 106.547C117.128 106.715 117.261 106.875 117.408 106.921C117.025 107.117 116.902 107.801 117.415 108.203C133.779 120.67 154.608 111.474 159.98 93.9312C165.258 76.6664 153.667 56.563 136.502 51.4625ZM118.002 107.005C117.878 106.911 117.761 106.884 117.647 106.878C117.669 106.865 117.674 106.839 117.692 106.817C122.159 94.1494 126.267 81.2981 130.888 68.7071C132.043 65.5538 133.215 62.414 134.406 59.2875C134.504 59.0185 134.615 58.6478 134.736 58.2242C141.963 60.5962 149.059 62.6178 152.323 71.2529C154.846 77.9276 155.48 85.6627 153.572 91.9635C149.649 104.909 131.65 111.915 119.428 103.637C119.146 103.445 118.842 103.867 119.117 104.099C131.315 114.469 150.839 105.608 154.835 92.5966C156.961 85.6518 156.203 76.819 153.079 69.556C149.748 61.8093 142.223 58.2278 135.112 56.8871C135.478 55.6383 135.91 54.3635 136.468 53.9255C137.569 53.0582 138.082 53.4247 139.533 54.0327C145.48 56.5365 150.915 61.2344 154.57 67.0597C171.466 94.0137 142.951 124.759 118.002 107.005Z" fill="#F3F0EB"/>
<path d="M103.003 21.0219C100.827 21.3017 98.7655 21.3392 96.5124 20.9551C96.1771 20.8995 96.1325 21.4918 96.4755 21.5784C98.7061 22.1525 101.111 22.3078 103.246 21.8153C103.7 21.7082 103.468 20.9679 103.016 21.0264L103.003 21.0219Z" fill="#F3F0EB"/>
<path d="M104.391 19.0685C103.064 19.3459 101.741 19.7383 100.455 20.1576C100.122 20.2656 100.276 20.8152 100.631 20.7648C101.979 20.5583 103.345 20.2944 104.644 19.9504C105.137 19.8215 104.891 18.9705 104.384 19.0728L104.391 19.0685Z" fill="#F3F0EB"/>
<path d="M112.654 -31.3817C108.707 -32.3048 106.35 -25.3928 104.758 -22.7558C97.3295 -10.4912 90.1353 1.93432 83.2412 14.601C82.9148 13.8555 81.7678 14.2891 82.079 15.0432C86.0783 24.6258 96.1642 25.7237 103.958 24.8185C113.901 23.6731 119.759 16.677 122.9 7.02459C125.905 -2.23084 126.702 -13.5727 120.961 -23.1596C119.208 -26.0739 115.944 -30.6006 112.672 -31.3683L112.654 -31.3817ZM105.932 -21.9774C106.682 -23.21 107.426 -24.4515 108.188 -25.6796C108.444 -26.0978 108.666 -26.4853 108.871 -26.8508C108.95 -26.7662 109.037 -26.6859 109.156 -26.6364C122.09 -20.9619 121.026 -1.25059 115.72 7.83708C109.508 18.4834 96.0921 20.9956 84.9456 13.4463C84.8846 13.4105 84.8338 13.3924 84.7855 13.3965C90.322 4.05847 95.8764 -5.26613 101.466 -14.5639C102.955 -17.0469 104.449 -19.521 105.947 -21.9862L105.932 -21.9774ZM114.774 18.2491C107.989 24.9861 89.6106 27.3811 83.6007 15.3511C83.6235 15.338 83.6488 15.3116 83.6615 15.2808C83.9703 14.7613 84.2868 14.2374 84.5906 13.709C84.6034 13.7843 84.6442 13.8553 84.7077 13.9133C96.2693 23.4558 111.261 19.0716 117.348 7.65922C122.634 -2.25558 122.74 -21.9609 109.535 -27.916C110.085 -28.6327 110.787 -29.0829 112.125 -29.1302C118.204 -29.3231 122.438 -18.045 123.367 -12.7222C125.251 -1.85547 121.712 11.354 114.769 18.2402L114.774 18.2491Z" fill="#F3F0EB"/>
<path d="M108.02 -0.897941C106.951 -2.37426 105.149 -3.02913 103.579 -3.22674C103.436 -3.68774 102.863 -3.52403 102.947 -3.07673C103.304 -1.09723 105.67 5.72671 108.255 2.68597C109.076 1.71925 108.837 0.2271 108.02 -0.897941ZM107.329 1.98907C106.016 3.12012 104.624 -0.118751 103.952 -2.08294C104.781 -1.83787 105.616 -1.66792 106.377 -1.13591C107.335 -0.469728 108.351 1.1079 107.329 1.98907Z" fill="#F3F0EB"/>
<path d="M96.1715 3.90317C95.6654 3.53229 95.1184 4.30649 95.6067 4.73473C95.6881 4.8061 95.7746 4.88636 95.856 4.95773C95.295 6.44826 95.354 8.17343 96.0071 9.80581C96.4663 10.9591 97.4922 12.3776 98.7333 11.9845C99.9515 11.6046 99.895 9.90154 99.55 8.71816C98.9828 6.81224 97.7378 5.04714 96.1791 3.89881L96.1715 3.90317ZM98.6745 10.4009C98.3293 10.469 97.9891 10.5461 97.6439 10.6142C97.4277 10.3959 97.2444 10.1468 97.0991 9.87598C96.8342 9.41405 96.6453 8.87309 96.5174 8.36797C96.2769 7.38438 96.2904 6.45578 96.4284 5.51486C96.9066 5.99609 97.3444 6.5124 97.7111 7.11662C98.0881 7.7386 99.2015 9.76805 98.6745 10.4009Z" fill="#F3F0EB"/>
</g>
<path d="M96.1006 136.261C93.9325 136.502 91.8737 136.501 89.6163 136.07C89.2803 136.008 89.2466 136.605 89.5907 136.699C91.8292 137.32 94.2343 137.523 96.3575 137.066C96.8093 136.967 96.5637 136.215 96.1134 136.266L96.1006 136.261Z" fill="#F3F0EB"/>
<path d="M97.4853 134.271C96.1598 134.528 94.8417 134.901 93.5598 135.301C93.2285 135.405 93.3922 135.965 93.7475 135.921C95.0948 135.737 96.4587 135.495 97.7549 135.171C98.246 135.049 97.9847 134.181 97.4778 134.276L97.4853 134.271Z" fill="#F3F0EB"/>
<path d="M105.074 83.7691C101.124 82.7543 98.9206 89.6655 97.3897 92.2873C90.2478 104.481 83.3421 116.841 76.7402 129.451C76.3998 128.693 75.2667 129.105 75.5922 129.871C79.7727 139.609 89.8377 140.931 97.5795 140.187C107.455 139.248 113.143 132.327 116.071 122.673C118.871 113.415 119.429 102.009 113.514 92.2291C111.709 89.2561 108.366 84.6266 105.092 83.783L105.074 83.7691ZM98.5753 93.0965C99.296 91.8712 100.011 90.6367 100.745 89.4162C100.991 89.0005 101.204 88.615 101.401 88.2513C101.481 88.3382 101.569 88.4209 101.689 88.4734C114.684 94.4669 114.033 114.297 108.939 123.337C102.974 133.926 89.668 136.168 78.4133 128.324C78.3518 128.287 78.3008 128.268 78.2529 128.271C83.572 118.984 88.9092 109.712 94.2823 100.467C95.7131 97.9986 97.1491 95.5388 98.5903 93.0881L98.5753 93.0965ZM108.213 133.803C101.596 140.443 83.3468 142.46 77.1137 130.214C77.1361 130.201 77.1608 130.175 77.1728 130.144C77.4695 129.628 77.7737 129.107 78.0652 128.581C78.0796 128.657 78.1216 128.73 78.1862 128.79C89.8953 138.65 104.732 134.556 110.555 123.192C115.614 113.32 115.311 93.4747 102.039 87.1926C102.572 86.4826 103.262 86.0443 104.594 86.0254C110.642 85.9619 115.091 97.4124 116.126 102.793C118.227 113.779 114.977 127.008 108.207 133.794L108.213 133.803Z" fill="#F3F0EB"/>
<path d="M101.088 114.331C100.003 112.833 98.2117 112.14 96.6589 111.91C96.5083 111.446 95.9457 111.597 96.0383 112.046C96.4308 114.031 98.9058 120.899 101.394 117.916C102.184 116.968 101.917 115.472 101.088 114.331ZM100.466 117.2C99.1933 118.302 97.753 115.037 97.0502 113.06C97.8725 113.323 98.7006 113.51 99.4616 114.058C100.421 114.744 101.456 116.342 100.466 117.2Z" fill="#F3F0EB"/>
<path d="M103.365 102.173C101.8 102.105 99.691 102.731 98.6282 103.803C98.3357 104.089 98.7137 104.792 99.1266 104.679C100.4 105.672 101.881 106.161 103.289 106.028C104.282 105.937 105.674 105.536 105.755 104.284C105.846 102.893 104.407 102.235 103.362 102.187L103.365 102.173ZM104.416 104.088C104.132 105.781 101.489 105.092 99.9929 104.334C100.545 104.082 101.086 103.812 101.692 103.638C102.07 103.533 102.473 103.438 102.87 103.382C103.172 103.32 103.486 103.311 103.806 103.347C104.469 103.322 104.68 103.565 104.423 104.084L104.416 104.088Z" fill="#F3F0EB"/>
<path d="M89.2059 119.074C88.6997 118.693 88.1766 119.454 88.6665 119.892C88.7481 119.965 88.835 120.047 88.9167 120.12C88.3944 121.595 88.4879 123.318 89.1648 124.961C89.6409 126.122 90.6808 127.56 91.8955 127.194C93.088 126.841 92.9975 125.14 92.6334 123.952C92.0355 122.037 90.7726 120.249 89.2133 119.07L89.2059 119.074ZM91.8052 125.612C91.4664 125.673 91.1329 125.743 90.7941 125.803C90.5766 125.581 90.3909 125.328 90.2422 125.055C89.9717 124.588 89.7745 124.044 89.6382 123.537C89.3811 122.551 89.3754 121.624 89.492 120.688C89.9731 121.179 90.415 121.703 90.7887 122.314C91.1729 122.943 92.3115 124.992 91.8052 125.612Z" fill="#F3F0EB"/>
<defs>
<clipPath id="clip0_2694_7674">
<rect width="63.8663" height="92.6688" fill="white" transform="translate(0.160156 32.1709) rotate(-29.8366)"/>
</clipPath>
</defs>
</svg>
